{"glyphs":{"0":{"ha":496,"x_min":85,"x_max":419,"o":"m 390 517 q 419 414 419 469 q 393 314 419 364 q 318 229 365 264 q 218 194 271 194 q 123 238 161 194 q 85 340 85 282 q 126 470 85 407 q 228 576 167 533 q 353 629 301 629 q 375 620 367 629 q 383 600 383 611 q 376 581 383 589 q 357 574 369 574 l 347 574 q 390 517 375 543 m 364 365 q 371 413 371 390 q 351 488 371 451 q 333 515 340 508 q 318 526 326 522 q 292 547 304 535 l 286 554 q 220 506 251 536 q 167 442 189 476 q 133 338 133 392 q 156 269 133 296 q 221 242 178 242 q 308 281 267 242 q 364 365 349 319 z "},"1":{"ha":556,"x_min":179,"x_max":429,"o":"m 425 701 q 429 715 429 708 q 421 735 429 726 q 401 744 413 744 q 382 736 389 744 q 369 717 375 728 q 361 700 364 706 q 262 479 311 608 q 190 256 213 350 q 179 174 179 208 q 194 113 179 136 q 219 99 204 99 q 238 106 231 99 q 246 124 246 113 q 238 149 246 132 q 229 190 229 168 q 244 276 229 221 q 314 481 268 371 q 425 701 357 586 z "},"2":{"ha":564,"x_min":97,"x_max":492,"o":"m 458 250 q 481 244 471 253 q 492 222 492 235 q 478 198 492 204 q 439 189 464 192 q 378 185 407 185 q 240 199 314 185 q 140 232 182 208 q 108 249 122 235 q 97 275 97 260 q 108 294 97 288 q 121 299 115 299 q 143 286 131 299 q 151 279 149 281 q 188 301 165 276 q 215 338 210 325 q 233 418 233 374 q 219 496 233 454 q 135 613 192 574 q 121 621 131 615 q 106 633 111 626 q 101 647 101 639 q 110 668 101 660 q 129 676 118 676 q 143 671 135 676 q 243 555 204 622 q 282 418 282 488 q 263 327 282 369 q 207 254 243 285 q 248 247 224 250 q 286 242 272 244 q 353 236 321 236 q 458 250 389 236 z "},"3":{"ha":508,"x_min":89,"x_max":421,"o":"m 99 614 q 89 593 89 604 q 99 572 89 582 q 117 564 110 564 q 143 578 129 564 q 208 618 169 604 q 286 632 246 632 q 328 628 307 632 q 374 604 368 619 l 375 600 q 358 574 375 590 l 310 528 q 251 425 251 472 q 265 378 251 401 q 282 356 271 368 q 297 339 293 343 q 321 308 321 315 q 281 258 321 290 q 193 213 229 219 q 183 211 192 213 q 169 203 175 210 q 164 185 164 196 q 172 165 164 174 q 193 158 182 158 q 273 190 225 158 q 347 256 321 222 q 368 307 368 283 q 360 339 368 322 q 332 374 356 347 q 304 406 313 390 q 297 428 297 417 q 313 465 297 447 q 357 507 328 482 q 385 532 368 515 q 421 601 421 571 q 335 675 421 657 q 283 681 313 681 q 183 663 232 681 q 99 614 135 646 z "},"4":{"ha":633,"x_min":69,"x_max":576,"o":"m 572 447 q 576 433 576 439 q 561 411 576 419 q 525 399 546 403 l 336 372 q 314 172 314 232 q 317 153 314 157 q 332 143 319 149 q 353 115 353 133 q 325 89 353 89 q 304 93 315 89 q 273 124 283 103 q 263 169 263 144 q 286 368 263 208 q 143 361 206 361 q 90 369 111 361 q 69 404 69 376 q 81 450 69 425 q 117 528 96 485 q 217 683 157 610 q 230 701 221 689 q 248 722 239 714 q 268 729 257 729 q 288 721 281 729 q 294 701 294 713 q 286 681 294 689 q 183 547 235 633 q 143 474 160 508 q 122 428 126 440 l 121 422 q 143 408 121 408 q 294 418 193 408 l 299 446 l 303 474 q 326 579 315 547 q 354 599 335 599 q 375 592 367 599 q 383 574 383 585 q 379 560 383 568 q 363 519 368 540 q 351 460 358 497 q 346 424 349 446 l 446 438 q 519 453 496 446 q 533 458 524 454 q 550 461 543 461 q 572 447 564 461 z "},"5":{"ha":671,"x_min":74,"x_max":619,"o":"m 592 646 q 612 635 604 643 q 619 617 619 626 q 607 597 619 606 q 592 592 600 592 q 578 594 586 592 q 564 599 571 597 q 483 604 536 604 q 351 597 424 604 q 222 576 279 589 q 211 575 218 575 l 206 547 q 197 461 197 506 q 199 433 197 440 q 226 431 207 431 q 274 433 246 431 l 310 435 q 365 419 349 435 q 376 393 376 410 q 364 353 376 378 q 297 257 344 311 q 205 165 254 206 q 114 113 156 124 q 86 118 99 108 q 74 140 74 128 q 85 161 74 154 q 105 170 92 167 q 125 176 118 174 q 269 300 192 206 q 294 329 275 307 q 324 375 313 351 q 326 383 326 381 q 314 392 326 392 q 276 389 307 392 q 224 386 243 386 q 188 390 201 386 q 160 415 167 397 q 153 461 153 433 q 181 663 153 569 q 194 697 188 685 q 218 710 201 710 q 236 701 229 710 q 243 682 243 693 q 238 664 243 671 q 224 628 228 651 q 355 644 272 638 q 506 651 438 651 q 592 646 569 651 z "},"6":{"ha":432,"x_min":83,"x_max":349,"o":"m 339 782 q 349 760 349 774 q 338 738 349 744 q 303 705 318 724 q 265 649 289 686 q 194 510 228 590 q 144 356 161 431 q 228 343 197 356 q 301 285 272 326 q 331 197 331 244 q 315 135 331 164 q 275 92 301 107 q 217 76 249 76 q 139 104 174 76 q 83 249 83 149 q 93 343 83 294 q 214 661 122 499 q 288 765 251 731 q 304 781 294 774 q 324 789 314 789 q 339 782 329 789 m 163 303 q 149 301 156 303 q 135 299 142 299 q 132 243 132 279 q 160 156 133 193 q 219 118 186 118 q 267 143 246 118 q 285 196 285 165 q 272 247 285 224 q 226 292 256 278 q 163 303 197 306 z "},"7":{"ha":542,"x_min":97,"x_max":478,"o":"m 469 699 q 478 675 478 689 q 474 651 478 672 q 452 595 467 625 q 433 556 438 565 q 341 309 386 451 q 296 96 296 167 q 293 71 296 81 q 278 57 290 61 l 267 54 q 247 65 254 54 q 240 89 240 75 q 247 139 240 113 q 256 169 254 165 l 276 244 q 325 414 303 344 q 381 556 347 483 q 426 664 421 643 q 356 667 408 667 q 285 664 303 667 l 251 660 q 231 655 243 658 q 211 651 218 651 q 169 505 186 588 q 153 371 153 422 l 154 360 q 150 347 154 354 q 126 335 144 335 q 108 342 118 335 q 97 374 97 351 q 124 542 97 435 q 183 719 151 650 q 197 741 190 733 q 214 749 204 749 q 234 740 226 749 q 242 721 242 732 q 239 708 242 717 q 360 715 301 715 q 469 699 457 715 z "},"8":{"ha":589,"x_min":86,"x_max":533,"o":"m 522 508 q 533 486 533 501 q 528 470 533 478 q 513 460 522 463 q 500 458 507 458 q 489 457 493 458 q 415 431 450 450 q 325 374 379 411 q 281 342 303 360 l 282 338 q 304 249 304 285 q 290 197 304 221 q 253 158 276 174 q 206 143 231 143 q 179 147 192 143 q 133 217 133 164 q 153 282 133 251 q 225 358 175 319 q 176 446 204 400 q 140 503 147 492 q 119 536 135 511 q 95 585 104 561 q 86 628 86 608 q 106 674 86 660 q 154 688 125 688 q 201 681 178 688 q 358 603 264 665 q 428 547 400 575 q 447 527 438 539 q 457 504 456 515 q 500 515 485 515 q 522 508 513 515 m 263 388 q 410 482 319 431 l 404 489 q 349 551 385 524 q 264 604 313 578 q 176 638 217 631 q 150 640 168 640 q 133 635 138 640 q 138 605 128 626 q 150 581 149 583 q 179 524 158 560 q 208 474 200 488 q 260 385 240 424 q 263 388 260 385 m 244 208 q 260 251 260 225 q 244 314 260 278 q 200 271 222 297 q 175 217 175 240 q 178 203 175 211 q 201 188 186 188 q 225 194 213 188 q 244 208 238 200 z "},"9":{"ha":508,"x_min":67,"x_max":397,"o":"m 376 517 q 397 474 397 510 q 391 417 397 449 q 376 358 385 386 q 306 153 353 267 q 261 65 286 104 q 247 51 256 57 q 228 44 238 44 q 206 61 213 44 q 204 69 204 64 q 217 97 204 82 q 246 147 231 115 q 310 299 281 218 q 350 454 339 381 q 281 406 314 428 q 221 373 249 385 q 165 361 193 361 q 111 377 136 361 q 75 419 86 393 q 67 467 67 443 q 85 549 67 508 q 149 655 108 604 q 239 732 190 706 q 293 747 265 747 q 383 632 367 747 q 386 592 386 604 q 376 517 386 551 m 311 485 q 313 496 310 489 q 335 610 335 549 q 317 685 335 658 q 288 700 306 700 q 181 619 246 700 q 111 469 111 533 q 117 438 111 450 q 163 406 129 406 q 268 453 201 406 l 311 485 z "}," ":{"ha":528,"x_min":0,"x_max":0,"o":""},"A":{"ha":586,"x_min":51,"x_max":553,"o":"m 538 463 q 553 439 553 454 q 546 421 553 431 q 514 410 536 410 l 489 411 q 426 408 468 411 q 432 342 429 386 q 438 240 438 258 q 437 213 438 231 q 436 158 436 196 q 428 113 436 124 q 406 101 419 101 q 390 106 397 101 q 378 128 378 113 q 381 146 378 135 q 388 231 388 192 q 378 404 388 304 q 249 385 328 399 q 158 363 201 376 q 151 361 156 361 q 111 132 118 231 q 108 79 108 96 l 110 57 q 104 39 110 46 q 81 28 93 28 q 63 35 71 28 q 54 53 56 42 q 63 149 51 86 l 67 178 q 158 561 86 315 l 169 599 q 204 711 190 668 q 239 796 218 754 q 294 854 267 854 q 324 839 310 854 q 363 759 346 814 q 399 604 379 704 q 421 461 411 543 q 510 465 467 465 l 521 465 q 538 463 532 465 m 167 418 q 372 456 289 446 l 358 556 q 331 694 349 617 q 310 768 318 746 q 296 790 303 790 q 254 707 283 790 q 194 519 228 632 q 167 418 175 453 z "},"B":{"ha":533,"x_min":89,"x_max":479,"o":"m 464 703 q 357 567 433 638 q 253 483 318 531 l 286 478 q 313 473 296 476 q 336 467 329 469 q 426 382 426 442 q 389 280 426 329 q 297 192 351 231 q 200 131 251 158 q 185 123 196 129 q 165 118 175 117 q 170 94 167 110 q 174 67 174 78 q 167 40 174 50 q 147 31 160 31 q 117 71 122 31 q 93 404 101 186 l 92 453 q 89 551 89 517 q 106 746 89 661 q 171 847 119 815 q 300 878 219 878 q 393 864 350 878 q 458 824 436 850 q 479 765 479 801 q 464 703 479 733 m 244 535 q 340 614 311 585 q 397 678 374 647 q 429 742 419 708 q 433 765 433 754 q 416 802 433 788 q 363 825 399 817 q 299 832 338 832 q 199 810 238 832 q 161 769 171 794 q 146 703 151 744 q 136 544 136 629 q 147 306 136 461 q 160 171 151 238 l 167 174 q 290 242 233 196 q 369 346 347 288 q 379 382 379 372 q 369 403 379 394 q 335 419 360 411 q 279 432 307 428 q 218 447 238 440 q 189 478 189 458 q 194 495 189 489 q 207 506 200 501 q 217 514 214 511 l 244 535 z "},"C":{"ha":814,"x_min":82,"x_max":756,"o":"m 610 663 q 621 649 613 654 q 638 643 629 643 q 653 647 646 643 q 663 658 660 651 q 665 671 665 667 q 651 706 665 688 q 635 729 638 725 q 592 768 617 751 q 454 804 536 804 q 266 753 351 804 q 131 614 181 701 q 82 424 82 526 q 92 336 82 376 q 192 172 115 229 q 383 115 268 115 q 533 136 453 115 q 678 189 614 157 q 710 205 682 190 q 751 239 739 219 q 756 253 756 246 q 747 273 756 264 q 728 282 739 282 q 709 276 718 282 q 688 259 700 271 q 668 243 675 247 q 539 188 625 214 q 385 164 461 164 q 174 258 236 164 q 131 419 131 324 q 151 543 131 488 q 243 674 179 619 q 388 749 307 729 q 451 756 419 756 q 550 733 507 756 q 610 663 593 710 z "},"D":{"ha":578,"x_min":94,"x_max":526,"o":"m 526 583 q 476 408 526 501 q 342 225 425 314 q 278 165 318 199 q 213 115 239 132 q 197 106 210 114 q 171 96 185 97 l 168 96 q 178 67 174 74 q 182 51 182 58 q 174 31 182 39 q 154 22 167 22 q 133 33 140 22 q 122 57 125 43 q 99 254 103 153 q 94 463 94 358 q 101 671 94 586 q 103 695 101 678 q 107 726 104 713 q 109 748 108 733 q 117 771 110 763 q 138 781 125 781 q 160 770 151 781 q 165 746 169 760 q 144 597 150 693 q 140 461 140 535 q 151 218 140 336 q 158 149 153 196 l 161 150 q 253 211 210 176 q 413 397 342 282 q 478 581 478 503 q 435 693 478 643 q 332 761 393 743 q 275 769 303 769 q 201 757 239 769 q 174 761 186 751 q 163 785 163 771 q 181 808 163 803 q 261 822 218 822 q 389 791 328 822 q 488 705 450 760 q 526 583 526 650 z "},"E":{"ha":883,"x_min":19,"x_max":832,"o":"m 726 856 q 751 861 731 857 q 790 865 771 865 q 832 838 832 865 q 822 813 832 818 q 799 809 811 808 q 782 810 786 810 q 723 801 753 810 q 688 792 693 793 q 424 688 572 760 q 124 526 276 617 q 103 513 113 519 q 82 499 93 506 q 67 488 78 496 q 47 481 57 481 q 27 489 35 481 q 19 508 19 497 q 32 532 19 524 q 383 722 163 618 q 726 856 603 825 m 724 507 q 749 510 740 510 q 772 499 765 510 q 778 481 778 492 q 764 457 778 465 q 744 453 757 453 q 724 453 731 453 q 699 449 710 451 q 679 444 688 446 q 464 379 571 424 q 432 366 457 376 q 386 343 407 356 q 374 336 378 338 q 434 203 392 253 q 543 154 476 154 q 681 197 603 154 q 713 210 703 210 q 728 204 721 210 q 738 183 738 194 q 729 163 738 169 q 703 149 721 157 q 617 115 653 126 q 543 104 581 104 q 418 150 469 104 q 341 272 367 196 q 315 436 315 347 q 331 571 315 511 q 338 605 333 581 q 351 646 342 629 q 375 660 360 660 q 395 652 386 660 q 404 632 404 644 l 401 621 q 365 435 365 538 q 367 392 365 406 q 724 507 564 482 z "},"F":{"ha":683,"x_min":47,"x_max":628,"o":"m 613 557 q 628 532 628 551 q 622 514 628 522 q 604 504 615 506 l 600 504 q 582 506 592 504 q 564 508 572 508 q 437 498 499 508 q 289 465 375 488 q 267 456 282 464 q 244 447 251 449 q 260 278 247 356 q 297 157 274 200 q 304 145 299 154 q 310 126 310 136 q 304 110 310 117 q 283 99 296 99 q 260 111 268 99 q 234 166 243 135 q 218 239 225 197 q 196 513 196 368 q 215 733 196 644 q 219 748 217 738 q 225 765 221 758 q 131 747 161 754 q 106 740 122 746 q 79 735 90 735 q 60 740 67 735 q 47 763 47 749 q 53 781 47 772 q 71 790 60 789 q 572 832 317 832 q 610 826 596 832 q 625 803 625 821 q 616 782 625 790 q 594 774 607 774 q 564 779 592 774 q 463 788 521 788 q 269 772 374 788 q 278 753 278 764 q 275 740 278 749 q 254 677 260 711 q 246 590 249 643 q 244 504 244 564 q 398 542 329 528 q 543 561 467 556 l 575 563 q 613 557 600 563 z "},"G":{"ha":789,"x_min":58,"x_max":749,"o":"m 736 482 q 749 461 749 476 q 738 438 749 449 q 708 431 726 428 q 694 434 701 432 q 653 436 688 436 q 599 433 635 436 l 599 429 q 596 414 599 425 q 582 376 585 393 q 568 231 568 304 q 572 174 568 197 q 579 151 574 165 q 585 129 585 138 q 568 108 585 115 l 557 106 q 521 203 524 106 q 314 125 419 125 q 267 129 289 125 q 148 184 200 140 q 74 292 96 228 q 58 379 58 338 q 118 556 58 471 q 223 664 160 617 q 360 742 286 711 q 511 783 429 771 q 532 786 525 786 q 560 769 553 786 l 563 758 q 555 739 563 747 q 535 729 547 731 q 351 681 442 722 q 196 574 261 640 q 113 431 131 508 q 106 378 106 400 q 135 272 106 319 q 213 199 164 225 q 317 172 261 172 q 447 213 385 172 q 494 250 476 232 q 507 263 499 254 q 524 278 515 272 q 536 378 531 347 q 540 402 538 386 q 544 428 542 418 q 440 413 510 424 q 410 409 422 410 q 389 408 397 408 q 356 406 367 406 q 340 407 344 406 q 322 432 322 413 q 331 453 322 443 q 351 461 339 463 q 456 464 400 458 q 522 471 513 469 q 571 476 540 474 q 657 486 625 482 q 697 489 679 489 q 736 482 722 489 z "},"H":{"ha":732,"x_min":93,"x_max":663,"o":"m 647 539 q 663 514 663 531 q 656 494 663 501 q 636 486 647 486 q 608 493 626 486 q 582 500 589 500 l 560 503 q 557 399 557 431 q 563 285 557 328 q 574 217 568 238 q 580 201 576 208 q 585 186 583 193 q 586 179 586 183 q 576 160 586 168 q 556 151 567 151 q 526 185 536 151 q 511 319 514 233 l 510 390 q 513 506 510 428 l 471 507 q 318 496 399 507 q 182 469 233 486 q 163 462 175 467 q 143 456 151 457 q 164 222 147 308 q 169 191 165 215 q 181 147 174 167 q 200 114 189 128 q 214 99 204 108 q 224 79 224 90 q 215 59 224 67 q 196 51 207 51 q 178 57 185 51 q 144 103 156 74 q 124 176 133 133 q 93 543 93 321 q 100 757 93 636 q 101 781 100 764 q 105 813 101 799 q 117 833 108 826 q 133 839 124 839 q 156 828 147 839 q 161 804 165 818 q 148 733 151 769 q 143 643 144 697 l 142 608 l 140 563 l 142 511 q 425 551 260 539 q 514 554 483 554 q 535 747 521 685 q 539 765 536 750 q 549 790 542 781 q 571 800 557 800 q 593 788 585 800 q 596 761 601 775 q 568 615 576 713 l 564 553 q 618 547 600 550 q 647 539 636 544 z "},"I":{"ha":553,"x_min":58,"x_max":493,"o":"m 483 185 q 493 164 493 175 q 484 144 493 153 q 463 136 475 136 q 433 138 443 136 q 413 138 426 138 q 389 138 399 139 q 281 125 335 135 q 193 111 250 118 q 176 107 186 110 q 160 104 167 104 q 140 113 147 104 q 133 132 133 121 q 139 150 133 142 q 156 160 144 158 q 274 176 185 167 q 272 203 272 185 l 272 290 q 286 606 272 408 l 289 643 q 308 776 292 731 q 124 744 228 768 q 102 737 115 742 q 79 735 89 732 q 64 746 69 738 q 58 763 58 754 q 64 780 58 772 q 79 789 69 788 q 225 813 121 799 q 381 831 329 826 q 414 833 400 833 q 433 831 426 833 q 451 804 451 825 q 432 776 451 782 q 421 775 429 775 q 401 777 411 775 q 382 779 390 779 l 369 779 q 363 765 369 772 q 358 756 361 763 q 354 743 356 749 q 339 660 347 718 q 325 485 331 601 q 319 325 319 388 q 328 189 319 251 l 328 182 l 413 189 q 454 193 446 193 q 483 185 474 193 z "},"J":{"ha":900,"x_min":25,"x_max":882,"o":"m 879 710 q 882 697 882 701 q 874 676 882 685 q 857 671 868 671 l 838 672 q 726 676 801 676 q 703 661 719 661 q 638 605 664 661 q 613 481 613 549 q 618 428 613 461 q 631 366 625 399 q 636 307 636 333 q 592 190 636 235 q 411 132 533 132 q 356 135 392 132 q 218 172 282 143 q 110 250 154 200 q 42 368 65 300 q 33 396 40 374 q 25 436 25 418 q 53 468 25 468 q 71 460 64 468 q 81 442 78 453 q 94 372 90 386 q 164 264 113 310 q 275 199 211 221 q 404 178 339 178 q 539 208 489 178 q 589 307 589 239 q 578 388 589 335 q 568 440 574 404 q 565 485 565 468 q 579 587 565 538 q 621 669 593 636 l 515 657 q 344 629 436 647 q 294 618 328 626 l 243 606 q 218 612 228 603 q 208 635 208 621 q 214 650 208 643 q 229 658 219 657 q 735 722 449 708 q 814 725 788 725 l 843 726 q 879 710 871 726 z "},"K":{"ha":597,"x_min":92,"x_max":546,"o":"m 533 726 q 546 703 546 718 q 540 686 546 694 q 525 675 535 678 q 339 580 453 653 q 175 451 225 507 q 167 436 167 443 q 174 425 167 432 q 190 408 181 418 q 294 349 224 378 q 422 314 364 321 l 456 308 l 464 308 l 478 308 q 490 307 488 308 q 503 298 499 306 q 508 281 508 290 q 499 258 508 267 q 474 251 490 251 q 443 256 472 251 q 321 289 390 264 q 203 342 251 314 q 147 381 167 363 q 140 247 140 301 q 168 53 140 128 q 190 11 178 25 q 206 -1 194 6 q 222 -14 218 -7 q 226 -28 226 -22 q 214 -51 226 -43 q 188 -54 201 -60 q 126 14 143 -39 q 100 139 108 67 q 92 286 92 208 q 112 564 92 417 q 165 846 132 711 l 182 911 q 190 944 185 926 q 204 972 196 963 q 226 983 213 983 q 249 972 240 983 q 253 946 258 961 q 194 724 213 825 q 160 501 175 624 l 175 515 q 313 622 226 564 q 463 710 400 681 q 484 721 467 711 q 518 731 501 731 q 533 726 528 731 z "},"L":{"ha":704,"x_min":72,"x_max":681,"o":"m 638 244 q 653 249 646 249 q 673 240 665 249 q 681 221 681 232 q 665 196 681 207 q 613 170 642 181 q 539 146 585 160 q 358 110 464 124 q 167 96 253 96 q 101 99 140 96 q 72 122 74 101 l 72 126 q 76 141 72 135 q 86 150 81 147 q 92 151 90 151 q 96 153 94 151 q 140 294 121 178 q 171 539 160 410 q 182 744 182 675 q 181 789 182 775 l 179 803 q 188 824 179 815 q 207 832 196 832 q 228 824 219 832 q 235 804 236 817 l 231 717 q 224 597 229 690 q 210 422 219 503 q 185 251 199 319 q 150 146 171 183 l 197 144 q 410 164 313 144 q 515 189 478 178 q 611 231 547 199 q 623 237 617 233 q 638 244 629 240 z "},"M":{"ha":821,"x_min":85,"x_max":756,"o":"m 735 193 q 747 179 738 189 q 756 158 756 169 q 748 137 756 146 q 728 128 740 128 q 696 154 711 128 q 657 261 667 208 q 644 397 644 331 q 657 568 644 453 q 607 521 640 547 q 435 467 535 467 q 317 491 374 467 q 225 561 261 515 q 193 610 203 589 l 192 613 q 156 432 172 526 q 138 244 138 318 q 149 132 138 181 q 156 109 150 125 q 163 83 163 93 q 158 69 163 76 q 136 57 151 57 q 108 75 118 57 q 95 121 99 96 q 90 182 92 146 q 115 475 85 299 q 188 771 144 651 q 202 806 194 793 q 225 818 210 818 q 246 810 238 818 q 254 790 254 801 q 250 776 254 783 q 211 679 233 749 q 233 658 229 676 q 306 553 249 590 q 438 517 364 517 q 526 531 483 517 q 599 572 568 544 q 647 635 632 601 q 672 721 663 669 q 682 765 678 751 q 694 783 686 776 q 710 789 701 790 q 728 758 728 785 q 724 718 728 756 q 708 618 713 651 q 693 426 693 501 q 696 361 693 406 q 708 259 700 299 q 735 193 715 219 z "},"N":{"ha":722,"x_min":88,"x_max":650,"o":"m 621 760 q 644 749 638 760 q 650 719 650 738 q 607 474 650 621 q 510 263 567 335 q 449 228 482 228 q 422 233 433 228 q 379 260 399 243 q 338 304 360 278 q 206 528 254 403 q 182 594 186 576 q 154 440 174 557 q 140 257 140 357 q 144 189 140 217 q 147 171 144 185 q 153 147 149 157 q 164 131 157 136 q 183 104 183 117 q 179 90 183 99 q 157 78 172 78 q 128 89 142 78 q 97 141 103 108 q 90 228 92 174 q 113 481 88 332 q 174 744 138 629 q 190 782 181 767 q 215 797 199 797 q 234 789 226 797 q 242 769 242 781 q 238 756 242 763 q 201 674 219 731 q 221 667 213 674 q 229 647 229 660 q 251 545 231 597 q 307 432 272 493 q 369 339 336 379 q 447 275 421 275 q 497 325 469 275 q 550 447 525 375 q 594 721 594 571 q 621 760 594 760 z "},"O":{"ha":694,"x_min":53,"x_max":639,"o":"m 433 733 q 583 665 526 719 q 639 529 639 611 q 638 503 639 511 q 561 317 626 408 q 392 164 496 226 l 368 149 q 367 138 368 142 q 333 117 361 117 q 275 129 317 117 q 113 240 174 157 q 53 429 53 324 l 54 454 q 109 599 60 535 q 233 699 158 663 q 389 736 308 736 q 433 733 418 736 m 333 196 q 458 274 399 218 q 553 398 517 329 q 590 528 590 467 q 586 567 590 549 q 509 659 572 628 q 375 690 446 690 q 238 654 301 690 q 138 556 175 618 q 101 424 101 494 q 122 324 101 374 q 193 226 146 265 q 300 178 240 188 q 315 176 304 176 q 333 196 318 189 z "},"P":{"ha":543,"x_min":89,"x_max":510,"o":"m 501 806 q 510 760 510 785 q 454 619 510 696 q 321 479 399 542 q 239 424 281 447 q 197 401 225 415 q 157 389 169 388 q 140 399 144 392 l 139 308 q 142 193 139 263 q 154 69 144 110 q 151 40 160 51 q 128 29 142 29 q 110 36 118 29 q 99 56 101 43 q 89 210 89 94 q 94 506 89 286 q 101 646 96 556 q 113 783 107 736 q 114 801 113 786 q 122 826 115 817 q 143 838 129 838 q 159 833 151 838 q 169 821 167 828 q 249 871 204 853 q 342 889 294 889 q 438 869 393 889 q 501 806 483 849 m 240 482 q 395 616 325 536 q 465 757 465 696 q 461 782 465 769 q 419 827 451 811 q 344 843 386 843 q 283 833 313 843 q 233 807 253 824 q 217 791 228 801 q 199 776 207 781 q 189 774 193 774 q 167 786 176 774 q 151 669 154 732 q 146 594 147 606 q 140 433 143 547 l 150 442 q 170 450 157 446 q 192 457 183 454 q 240 482 218 468 z "},"Q":{"ha":810,"x_min":72,"x_max":746,"o":"m 746 194 q 738 176 746 183 q 718 168 729 168 q 679 181 707 168 q 621 210 650 193 q 576 238 585 231 q 456 165 519 186 q 457 157 457 163 q 450 138 457 146 q 431 131 443 131 q 251 177 338 131 q 117 301 165 224 q 72 460 72 372 q 101 594 72 529 q 181 708 129 660 q 285 772 225 750 q 410 793 344 793 q 557 763 488 793 q 671 676 626 732 q 724 518 724 607 q 718 464 724 488 q 680 365 708 415 q 611 271 651 314 q 717 224 667 236 q 738 215 731 219 q 746 197 744 210 l 746 194 m 426 213 q 533 267 475 221 q 392 396 429 343 q 385 417 385 404 q 392 438 385 429 q 411 446 400 446 q 433 432 425 446 q 568 299 475 364 q 644 405 615 346 q 674 517 674 464 q 636 636 674 583 q 537 719 599 689 q 407 749 475 749 q 278 718 339 749 q 164 610 207 682 q 121 460 121 539 q 146 349 121 403 q 241 240 176 285 q 379 186 306 194 q 385 199 379 190 q 407 210 393 208 q 426 213 421 211 z "},"R":{"ha":586,"x_min":92,"x_max":558,"o":"m 536 382 q 558 347 558 365 q 550 329 558 338 q 533 322 543 322 q 510 332 524 322 q 468 361 482 354 q 371 390 424 385 q 242 396 318 396 q 215 394 235 396 q 176 392 194 392 q 153 393 161 392 l 165 274 q 181 164 174 207 q 204 79 189 121 q 217 58 207 74 q 228 32 228 42 q 220 13 228 19 q 203 6 213 6 q 179 15 189 6 q 149 76 160 36 q 126 189 138 115 q 94 593 103 344 q 92 713 92 665 q 99 869 92 789 q 100 886 99 872 q 108 910 101 900 q 128 919 117 919 q 150 909 140 919 q 157 885 160 899 l 153 869 q 271 890 204 890 q 417 858 354 890 q 479 760 479 825 q 478 742 479 749 q 427 622 469 678 q 321 507 385 565 q 226 440 279 469 q 326 439 272 442 q 447 422 396 433 q 536 382 497 411 m 175 465 q 213 483 196 472 q 260 515 229 493 q 385 643 335 571 q 432 754 432 711 q 388 818 432 794 q 282 842 343 842 q 201 829 239 842 q 182 820 194 826 q 161 813 169 814 q 146 815 150 813 q 143 733 143 788 q 142 693 142 719 q 149 457 140 592 q 163 462 154 460 q 175 465 171 464 z "},"S":{"ha":778,"x_min":42,"x_max":758,"o":"m 756 819 q 758 807 758 811 q 750 787 758 796 q 729 779 742 778 l 703 781 q 504 742 621 781 q 288 651 385 701 q 177 585 229 621 q 101 518 125 549 q 93 497 93 506 q 106 472 93 488 q 193 408 133 439 q 333 346 268 368 q 497 300 399 324 q 524 287 513 297 q 535 263 535 276 q 532 250 535 258 q 347 149 514 203 q 239 118 285 129 l 185 107 q 151 103 156 103 q 139 104 143 103 q 118 128 118 108 q 127 149 118 140 q 149 160 136 158 q 268 176 210 163 q 381 212 317 189 q 472 254 444 235 l 371 282 q 222 341 303 304 q 100 411 142 378 q 42 497 42 457 q 99 588 42 539 q 243 683 156 636 q 474 783 347 739 q 694 833 600 826 l 721 835 q 756 819 747 835 z "},"T":{"ha":843,"x_min":24,"x_max":822,"o":"m 738 738 q 767 737 742 738 q 808 726 793 736 q 818 696 822 715 q 792 678 814 678 q 774 681 788 678 q 724 686 750 686 l 682 685 q 551 669 624 681 q 550 660 551 663 q 542 594 542 635 q 544 522 542 569 q 562 308 549 422 q 597 108 575 194 q 591 80 601 92 q 567 68 581 68 q 544 82 553 68 q 532 140 535 97 q 523 247 528 200 q 515 326 518 294 q 494 603 494 525 q 496 642 494 631 q 497 658 496 653 q 310 613 428 644 l 281 604 q 122 557 163 569 l 96 549 q 51 536 65 538 q 31 544 39 536 q 24 565 24 553 q 29 581 24 574 q 44 592 35 589 q 200 632 110 607 q 433 692 333 668 q 632 729 533 715 q 738 738 701 738 z "},"U":{"ha":646,"x_min":82,"x_max":567,"o":"m 161 700 q 156 725 164 714 q 135 736 147 736 q 108 718 115 736 q 99 683 101 700 q 97 663 97 667 q 82 478 82 550 q 98 299 82 379 q 165 167 114 218 q 256 129 201 129 q 335 151 300 129 q 492 385 436 213 q 564 776 547 557 q 565 790 564 782 q 567 807 567 799 q 556 836 567 826 q 539 842 549 842 q 522 835 529 842 q 511 818 514 829 q 510 803 510 814 l 511 774 q 508 708 511 744 q 503 646 506 672 q 414 322 482 468 q 347 217 383 260 q 257 175 310 175 q 140 350 168 175 q 132 471 132 408 q 161 700 132 590 z "},"V":{"ha":629,"x_min":42,"x_max":586,"o":"m 560 775 q 578 766 571 775 q 586 746 586 757 q 583 733 586 738 q 472 509 536 646 q 356 250 407 372 q 311 113 321 167 q 310 102 311 110 q 304 89 308 94 q 283 79 296 79 q 265 85 274 79 q 256 100 257 90 q 271 165 254 118 q 161 312 211 196 q 79 567 111 428 q 47 749 63 640 q 44 765 46 753 q 42 788 42 778 q 54 817 42 808 q 69 821 61 821 q 90 813 82 821 q 99 793 99 806 q 133 547 99 689 q 214 311 167 406 q 246 256 231 278 q 283 219 261 233 l 289 217 q 390 457 326 315 q 508 707 454 599 q 519 731 511 713 q 537 763 526 750 q 560 775 547 775 z "},"W":{"ha":824,"x_min":86,"x_max":785,"o":"m 154 757 q 150 781 158 769 q 128 793 142 793 q 103 780 108 793 q 94 742 97 767 q 86 569 86 685 q 96 334 86 446 q 125 157 106 222 q 179 83 147 83 q 206 96 192 83 q 236 138 224 113 q 258 188 249 163 q 272 224 268 213 l 328 374 q 379 515 351 440 q 401 569 389 539 q 422 617 414 599 q 436 631 428 631 q 447 619 443 631 q 467 556 457 597 q 485 481 478 515 q 514 351 501 394 q 537 286 524 313 q 574 260 550 260 q 609 277 596 260 q 638 325 622 294 q 676 419 657 365 l 689 454 q 744 619 725 557 q 776 744 764 681 q 781 763 778 750 q 785 785 785 776 q 776 806 785 797 q 757 814 768 814 q 736 804 744 814 q 726 776 729 794 q 722 751 724 757 q 669 547 708 676 q 600 354 629 417 q 593 338 597 347 q 585 323 589 329 q 579 317 582 317 q 570 330 575 317 q 564 349 565 343 q 533 476 557 368 q 523 526 532 485 q 503 600 514 568 q 483 650 493 632 q 436 683 464 683 q 406 669 419 683 q 380 636 390 656 q 362 598 369 617 q 351 572 354 579 q 293 414 325 507 l 264 335 q 196 165 232 247 q 182 143 186 143 q 173 159 178 143 q 163 200 168 175 q 149 306 157 226 q 139 435 142 386 q 136 561 136 521 l 136 608 q 154 757 139 706 z "},"X":{"ha":904,"x_min":32,"x_max":864,"o":"m 838 753 q 858 744 851 753 q 864 725 864 736 q 849 700 864 708 q 756 628 811 681 q 651 517 713 586 l 704 346 q 731 267 718 300 q 764 210 744 235 q 778 195 768 206 q 788 172 788 185 q 779 152 788 160 q 760 144 771 144 q 747 147 756 144 q 715 180 728 157 q 695 224 703 203 q 685 251 688 244 q 613 472 658 318 q 508 339 556 406 q 477 295 501 329 q 434 230 453 261 q 404 171 415 199 q 399 150 401 164 q 390 135 397 140 q 372 129 382 129 q 347 144 356 129 q 343 160 343 151 q 362 211 343 183 q 383 244 381 239 q 594 529 457 368 l 594 532 q 539 675 568 618 q 506 726 522 710 q 461 743 489 743 q 440 740 454 743 q 319 676 392 731 q 192 558 247 621 q 134 491 154 515 q 99 438 114 467 q 91 422 97 435 q 77 403 85 410 q 60 396 69 396 q 40 404 47 396 q 32 424 32 413 q 36 439 32 433 q 222 657 111 557 q 347 754 289 718 q 465 790 404 790 q 550 750 518 790 q 607 644 582 710 q 632 572 614 629 q 768 710 706 653 q 806 742 790 731 q 838 753 821 753 z "},"Y":{"ha":619,"x_min":28,"x_max":594,"o":"m 567 760 q 588 742 581 754 q 594 714 594 729 q 588 683 594 700 q 516 601 576 660 q 418 514 456 542 q 260 235 349 400 q 196 106 218 158 q 171 44 175 57 q 165 27 168 38 q 158 10 163 17 q 144 3 154 4 l 139 3 q 120 10 128 3 q 113 28 113 17 q 125 72 113 42 q 168 163 135 99 q 188 200 182 188 q 335 464 240 306 l 336 467 q 286 458 311 458 q 189 491 236 458 q 107 583 142 524 q 53 708 78 633 q 28 872 28 782 q 33 897 28 888 q 51 910 38 907 q 74 901 65 911 q 82 875 83 890 q 99 742 78 818 q 157 607 121 667 q 260 511 210 522 q 290 508 271 508 q 372 532 331 508 l 376 535 q 493 715 450 661 q 567 760 536 769 z "},"Z":{"ha":731,"x_min":43,"x_max":688,"o":"m 688 139 q 674 117 688 124 q 640 108 661 111 q 582 106 622 106 q 324 136 474 106 q 206 164 261 149 q 132 193 150 179 q 114 219 114 206 q 151 249 114 246 q 218 278 189 251 q 283 353 247 306 q 340 435 314 396 q 286 472 340 435 q 147 549 208 524 q 115 581 115 561 q 128 603 115 594 q 154 606 142 613 q 364 475 235 565 q 404 544 388 511 q 448 632 424 581 q 482 714 472 683 q 242 722 399 710 q 82 740 153 729 q 53 749 64 743 q 43 771 43 756 q 54 792 43 785 q 79 796 65 799 q 263 769 149 779 q 474 760 376 760 q 490 761 482 760 q 506 763 497 763 q 531 751 524 763 q 533 738 533 746 q 515 666 533 714 q 469 569 496 618 q 401 447 433 501 q 503 368 454 410 q 528 347 511 361 q 556 321 544 333 q 574 294 568 308 q 576 281 576 290 q 569 263 576 269 q 550 256 561 256 q 524 271 533 256 q 492 310 511 292 q 444 354 474 329 l 378 408 q 332 340 344 358 q 204 214 261 243 q 326 185 269 196 q 568 156 465 156 q 625 161 599 156 q 642 165 631 163 q 661 167 653 167 q 688 139 688 167 z "},"Ａ":{"ha":1250,"x_min":365,"x_max":867,"o":"m 851 463 q 867 439 867 454 q 860 421 867 431 q 828 410 850 410 l 803 411 q 740 408 782 411 q 746 342 743 386 q 751 240 751 258 q 751 213 751 231 q 750 158 750 196 q 742 113 750 124 q 719 101 733 101 q 704 106 711 101 q 692 128 692 113 q 694 146 692 135 q 701 231 701 192 q 692 404 701 304 q 563 385 642 399 q 472 363 515 376 q 465 361 469 361 q 425 132 432 231 q 422 79 422 96 l 424 57 q 418 39 424 46 q 394 28 407 28 q 377 35 385 28 q 368 53 369 42 q 376 149 365 86 l 381 178 q 472 561 400 315 l 483 599 q 518 711 504 668 q 553 796 532 754 q 608 854 581 854 q 638 839 624 854 q 676 759 660 814 q 713 604 693 704 q 735 461 725 543 q 824 465 781 465 l 835 465 q 851 463 846 465 m 481 418 q 686 456 603 446 l 672 556 q 644 694 663 617 q 624 768 632 746 q 610 790 617 790 q 568 707 597 790 q 508 519 542 632 q 481 418 489 453 z "},"Ｂ":{"ha":1250,"x_min":431,"x_max":821,"o":"m 806 703 q 699 567 775 638 q 594 483 660 531 l 628 478 q 654 473 638 476 q 678 467 671 469 q 768 382 768 442 q 731 280 768 329 q 639 192 693 231 q 542 131 593 158 q 527 123 538 129 q 507 118 517 117 q 512 94 508 110 q 515 67 515 78 q 508 40 515 50 q 489 31 501 31 q 458 71 464 31 q 435 404 443 186 l 433 453 q 431 551 431 517 q 447 746 431 661 q 513 847 461 815 q 642 878 561 878 q 735 864 692 878 q 800 824 778 850 q 821 765 821 801 q 806 703 821 733 m 586 535 q 682 614 653 585 q 738 678 715 647 q 771 742 761 708 q 775 765 775 754 q 758 802 775 788 q 704 825 740 817 q 640 832 679 832 q 540 810 579 832 q 503 769 513 794 q 488 703 493 744 q 478 544 478 629 q 489 306 478 461 q 501 171 493 238 l 508 174 q 632 242 575 196 q 711 346 689 288 q 721 382 721 372 q 711 403 721 394 q 676 419 701 411 q 621 432 649 428 q 560 447 579 440 q 531 478 531 458 q 536 495 531 489 q 549 506 542 501 q 558 514 556 511 l 586 535 z "},"Ｃ":{"ha":1250,"x_min":279,"x_max":953,"o":"m 807 663 q 818 649 810 654 q 835 643 826 643 q 850 647 843 643 q 860 658 857 651 q 863 671 863 667 q 849 706 863 688 q 832 729 835 725 q 789 768 814 751 q 651 804 733 804 q 463 753 549 804 q 328 614 378 701 q 279 424 279 526 q 289 336 279 376 q 389 172 313 229 q 581 115 465 115 q 731 136 650 115 q 875 189 811 157 q 908 205 879 190 q 949 239 936 219 q 953 253 953 246 q 944 273 953 264 q 925 282 936 282 q 906 276 915 282 q 885 259 897 271 q 865 243 872 247 q 736 188 822 214 q 582 164 658 164 q 371 258 433 164 q 328 419 328 324 q 349 543 328 488 q 440 674 376 619 q 585 749 504 729 q 649 756 617 756 q 747 733 704 756 q 807 663 790 710 z "},"Ｄ":{"ha":1250,"x_min":426,"x_max":858,"o":"m 858 583 q 808 408 858 501 q 674 225 757 314 q 610 165 650 199 q 544 115 571 132 q 529 106 542 114 q 503 96 517 97 l 500 96 q 510 67 506 74 q 514 51 514 58 q 506 31 514 39 q 486 22 499 22 q 465 33 472 22 q 454 57 457 43 q 431 254 435 153 q 426 463 426 358 q 433 671 426 586 q 435 695 433 678 q 439 726 436 713 q 441 748 440 733 q 449 771 442 763 q 469 781 457 781 q 492 770 483 781 q 497 746 501 760 q 476 597 482 693 q 472 461 472 535 q 483 218 472 336 q 490 149 485 196 l 493 150 q 585 211 542 176 q 744 397 674 282 q 810 581 810 503 q 767 693 810 643 q 664 761 725 743 q 607 769 635 769 q 533 757 571 769 q 506 761 518 751 q 494 785 494 771 q 513 808 494 803 q 593 822 550 822 q 721 791 660 822 q 820 705 782 760 q 858 583 858 650 z "},"Ｅ":{"ha":1250,"x_min":158,"x_max":971,"o":"m 865 850 q 890 856 869 851 q 929 860 910 860 q 971 832 971 860 q 960 808 971 813 q 938 803 950 803 q 921 804 925 804 q 862 796 892 804 q 826 786 832 788 q 563 683 711 754 q 263 521 415 611 q 242 507 251 514 q 221 493 232 500 q 206 483 217 490 q 186 475 196 475 q 166 483 174 475 q 158 503 158 492 q 171 526 158 518 q 522 716 301 613 q 865 850 742 819 m 863 501 q 888 504 879 504 q 911 493 904 504 q 917 475 917 486 q 903 451 917 460 q 883 447 896 447 q 863 447 869 447 q 838 443 849 446 q 818 439 826 440 q 603 374 710 418 q 571 360 596 371 q 525 338 546 350 q 513 331 517 332 q 573 198 531 247 q 682 149 615 149 q 819 192 742 149 q 851 204 842 204 q 867 199 860 204 q 876 178 876 189 q 868 158 876 164 q 842 143 860 151 q 756 110 792 121 q 682 99 719 99 q 557 144 608 99 q 480 266 506 190 q 454 431 454 342 q 469 565 454 506 q 476 599 472 575 q 490 640 481 624 q 514 654 499 654 q 534 647 525 654 q 543 626 543 639 l 540 615 q 504 429 504 532 q 506 386 504 400 q 863 501 703 476 z "},"Ｆ":{"ha":1250,"x_min":292,"x_max":872,"o":"m 857 557 q 872 532 872 551 q 866 514 872 522 q 849 504 860 506 l 844 504 q 826 506 836 504 q 808 508 817 508 q 681 498 743 508 q 533 465 619 488 q 511 456 526 464 q 489 447 496 449 q 505 278 492 356 q 542 157 518 200 q 549 145 543 154 q 554 126 554 136 q 549 110 554 117 q 528 99 540 99 q 504 111 513 99 q 478 166 488 135 q 463 239 469 197 q 440 513 440 368 q 460 733 440 644 q 463 748 461 738 q 469 765 465 758 q 375 747 406 754 q 351 740 367 746 q 324 735 335 735 q 304 740 311 735 q 292 763 292 749 q 298 781 292 772 q 315 790 304 789 q 817 832 561 832 q 855 826 840 832 q 869 803 869 821 q 860 782 869 790 q 839 774 851 774 q 808 779 836 774 q 707 788 765 788 q 514 772 618 788 q 522 753 522 764 q 519 740 522 749 q 499 677 504 711 q 490 590 493 643 q 489 504 489 564 q 642 542 574 528 q 788 561 711 556 l 819 563 q 857 557 844 563 z "},"Ｇ":{"ha":1250,"x_min":297,"x_max":988,"o":"m 975 485 q 988 464 988 479 q 976 441 988 451 q 947 433 965 431 q 933 437 940 435 q 892 439 926 439 q 838 436 874 439 l 838 432 q 835 417 838 428 q 821 379 824 396 q 807 233 807 307 q 811 176 807 200 q 818 154 813 168 q 824 132 824 140 q 807 111 824 118 l 796 108 q 760 206 763 108 q 553 128 658 128 q 506 132 528 128 q 387 187 439 143 q 313 294 335 231 q 297 382 297 340 q 357 558 297 474 q 462 667 399 619 q 599 744 525 714 q 750 786 668 774 q 771 789 764 789 q 799 772 792 789 l 801 761 q 794 742 801 750 q 774 732 786 733 q 590 684 681 725 q 435 577 500 643 q 351 433 369 511 q 344 381 344 403 q 374 275 344 322 q 451 201 403 228 q 556 175 500 175 q 686 215 624 175 q 733 253 715 235 q 746 266 738 257 q 763 281 754 275 q 775 381 769 350 q 778 405 776 389 q 783 431 781 421 q 679 415 749 426 q 649 412 661 413 q 628 411 636 411 q 594 408 606 408 q 579 410 583 408 q 561 435 561 415 q 569 456 561 446 q 590 464 578 465 q 695 467 639 461 q 761 474 751 472 q 810 479 779 476 q 896 489 864 485 q 936 492 918 492 q 975 485 961 492 z "},"Ｈ":{"ha":1250,"x_min":351,"x_max":921,"o":"m 906 539 q 921 514 921 531 q 914 494 921 501 q 894 486 906 486 q 866 493 885 486 q 840 500 847 500 l 818 503 q 815 399 815 431 q 821 285 815 328 q 832 217 826 238 q 838 201 835 208 q 843 186 842 193 q 844 179 844 183 q 835 160 844 168 q 814 151 825 151 q 785 185 794 151 q 769 319 772 233 l 768 390 q 771 506 768 428 l 729 507 q 576 496 657 507 q 440 469 492 486 q 422 462 433 467 q 401 456 410 457 q 422 222 406 308 q 428 191 424 215 q 440 147 432 167 q 458 114 447 128 q 472 99 463 108 q 482 79 482 90 q 474 59 482 67 q 454 51 465 51 q 436 57 443 51 q 403 103 414 74 q 382 176 392 133 q 351 543 351 321 q 358 757 351 636 q 359 781 358 764 q 363 813 360 799 q 375 833 367 826 q 392 839 382 839 q 415 828 406 839 q 419 804 424 818 q 406 733 410 769 q 401 643 403 697 l 400 608 l 399 563 l 400 511 q 683 551 518 539 q 772 554 742 554 q 793 747 779 685 q 797 765 794 750 q 808 790 800 781 q 829 800 815 800 q 851 788 843 800 q 854 761 860 775 q 826 615 835 713 l 822 553 q 876 547 858 550 q 906 539 894 544 z "},"Ｉ":{"ha":1250,"x_min":364,"x_max":799,"o":"m 789 185 q 799 164 799 175 q 790 144 799 153 q 768 136 781 136 q 739 138 749 136 q 718 138 732 138 q 694 138 704 139 q 586 125 640 135 q 499 111 556 118 q 482 107 492 110 q 465 104 472 104 q 446 113 453 104 q 439 132 439 121 q 444 150 439 142 q 461 160 450 158 q 579 176 490 167 q 578 203 578 185 l 578 290 q 592 606 578 408 l 594 643 q 614 776 597 731 q 429 744 533 768 q 408 737 421 742 q 385 735 394 732 q 369 746 375 738 q 364 763 364 754 q 369 780 364 772 q 385 789 375 788 q 531 813 426 799 q 686 831 635 826 q 719 833 706 833 q 739 831 732 833 q 757 804 757 825 q 738 776 757 782 q 726 775 735 775 q 706 777 717 775 q 688 779 696 779 l 675 779 q 668 765 675 772 q 664 756 667 763 q 660 743 661 749 q 644 660 653 718 q 631 485 636 601 q 625 325 625 388 q 633 189 625 251 l 633 182 l 718 189 q 760 193 751 193 q 789 185 779 193 z "},"Ｊ":{"ha":1250,"x_min":211,"x_max":1068,"o":"m 1065 710 q 1068 697 1068 701 q 1060 676 1068 685 q 1043 671 1054 671 l 1024 672 q 913 676 988 676 q 889 661 906 661 q 824 605 850 661 q 799 481 799 549 q 804 428 799 461 q 817 366 811 399 q 822 307 822 333 q 778 190 822 235 q 597 132 719 132 q 542 135 578 132 q 404 172 468 143 q 296 250 340 200 q 228 368 251 300 q 219 396 226 374 q 211 436 211 418 q 239 468 211 468 q 257 460 250 468 q 267 442 264 453 q 281 372 276 386 q 350 264 299 310 q 461 199 397 221 q 590 178 525 178 q 725 208 675 178 q 775 307 775 239 q 764 388 775 335 q 754 440 760 404 q 751 485 751 468 q 765 587 751 538 q 807 669 779 636 l 701 657 q 531 629 622 647 q 481 618 514 626 l 429 606 q 404 612 414 603 q 394 635 394 621 q 400 650 394 643 q 415 658 406 657 q 921 722 635 708 q 1000 725 974 725 l 1029 726 q 1065 710 1057 726 z "},"Ｋ":{"ha":1250,"x_min":426,"x_max":881,"o":"m 868 726 q 881 703 881 718 q 875 686 881 694 q 860 675 869 678 q 674 580 788 653 q 510 451 560 507 q 501 436 501 443 q 508 425 501 432 q 525 408 515 418 q 628 349 558 378 q 757 314 699 321 l 790 308 l 799 308 l 813 308 q 825 307 822 308 q 838 298 833 306 q 843 281 843 290 q 833 258 843 267 q 808 251 825 251 q 778 256 807 251 q 656 289 725 264 q 538 342 586 314 q 482 381 501 363 q 475 247 475 301 q 503 53 475 128 q 525 11 513 25 q 541 -1 529 6 q 557 -14 553 -7 q 561 -28 561 -22 q 549 -51 561 -43 q 522 -54 536 -60 q 460 14 478 -39 q 435 139 443 67 q 426 286 426 208 q 447 564 426 417 q 500 846 467 711 l 517 911 q 525 944 519 926 q 539 972 531 963 q 561 983 547 983 q 584 972 575 983 q 588 946 593 961 q 529 724 547 825 q 494 501 510 624 l 510 515 q 648 622 561 564 q 797 710 735 681 q 819 721 801 711 q 853 731 836 731 q 868 726 863 731 z "},"Ｌ":{"ha":1250,"x_min":344,"x_max":953,"o":"m 910 244 q 925 249 918 249 q 945 240 938 249 q 953 221 953 232 q 938 196 953 207 q 885 170 914 181 q 811 146 857 160 q 631 110 736 124 q 439 96 525 96 q 374 99 413 96 q 344 122 346 101 l 344 126 q 349 141 344 135 q 358 150 353 147 q 365 151 363 151 q 368 153 367 151 q 413 294 393 178 q 443 539 432 410 q 454 744 454 675 q 453 789 454 775 l 451 803 q 460 824 451 815 q 479 832 468 832 q 500 824 492 832 q 507 804 508 817 l 503 717 q 497 597 501 690 q 482 422 492 503 q 457 251 471 319 q 422 146 443 183 l 469 144 q 682 164 585 144 q 788 189 750 178 q 883 231 819 199 q 895 237 889 233 q 910 244 901 240 z "},"Ｍ":{"ha":1250,"x_min":279,"x_max":950,"o":"m 929 193 q 941 179 932 189 q 950 158 950 169 q 942 137 950 146 q 922 128 935 128 q 890 154 906 128 q 851 261 861 208 q 839 397 839 331 q 851 568 839 453 q 801 521 835 547 q 629 467 729 467 q 512 491 568 467 q 419 561 456 515 q 388 610 397 589 l 386 613 q 350 432 367 526 q 332 244 332 318 q 343 132 332 181 q 351 109 344 125 q 357 83 357 93 q 353 69 357 76 q 331 57 346 57 q 303 75 313 57 q 290 121 293 96 q 285 182 286 146 q 309 475 279 299 q 382 771 339 651 q 397 806 389 793 q 419 818 404 818 q 440 810 432 818 q 449 790 449 801 q 444 776 449 783 q 406 679 428 749 q 428 658 424 676 q 501 553 443 590 q 632 517 558 517 q 720 531 678 517 q 793 572 763 544 q 842 635 826 601 q 867 721 857 669 q 876 765 872 751 q 888 783 881 776 q 904 789 896 790 q 922 758 922 785 q 918 718 922 756 q 903 618 907 651 q 888 426 888 501 q 890 361 888 406 q 902 259 894 299 q 929 193 910 219 z "},"Ｎ":{"ha":1250,"x_min":356,"x_max":918,"o":"m 889 760 q 912 749 906 760 q 918 719 918 738 q 875 474 918 621 q 778 263 835 335 q 717 228 750 228 q 690 233 701 228 q 647 260 667 243 q 606 304 628 278 q 474 528 522 403 q 450 594 454 576 q 422 440 442 557 q 408 257 408 357 q 413 189 408 217 q 415 171 413 185 q 421 147 417 157 q 432 131 425 136 q 451 104 451 117 q 447 90 451 99 q 425 78 440 78 q 396 89 410 78 q 365 141 371 108 q 358 228 360 174 q 381 481 356 332 q 442 744 406 629 q 458 782 449 767 q 483 797 467 797 q 502 789 494 797 q 510 769 510 781 q 506 756 510 763 q 469 674 488 731 q 489 667 481 674 q 497 647 497 660 q 519 545 499 597 q 575 432 540 493 q 638 339 604 379 q 715 275 689 275 q 765 325 738 275 q 818 447 793 375 q 863 721 863 571 q 889 760 863 760 z "},"Ｏ":{"ha":1250,"x_min":329,"x_max":915,"o":"m 710 733 q 859 665 803 719 q 915 529 915 611 q 914 503 915 511 q 838 317 903 408 q 668 164 772 226 l 644 149 q 643 138 644 142 q 610 117 638 117 q 551 129 593 117 q 390 240 450 157 q 329 429 329 324 l 331 454 q 385 599 336 535 q 510 699 435 663 q 665 736 585 736 q 710 733 694 736 m 610 196 q 734 274 675 218 q 830 398 793 329 q 867 528 867 467 q 863 567 867 549 q 785 659 849 628 q 651 690 722 690 q 515 654 578 690 q 415 556 451 618 q 378 424 378 494 q 399 324 378 374 q 469 226 422 265 q 576 178 517 188 q 592 176 581 176 q 610 196 594 189 z "},"Ｐ":{"ha":1250,"x_min":454,"x_max":875,"o":"m 867 804 q 875 758 875 783 q 819 617 875 694 q 686 478 764 540 q 604 422 646 446 q 563 400 590 414 q 522 388 535 386 q 506 397 510 390 l 504 307 q 507 192 504 261 q 519 68 510 108 q 516 39 525 50 q 493 28 507 28 q 475 35 483 28 q 464 54 467 42 q 454 208 454 93 q 460 504 454 285 q 467 644 461 554 q 478 782 472 735 q 479 800 478 785 q 488 825 481 815 q 508 836 494 836 q 524 831 517 836 q 535 819 532 826 q 615 869 569 851 q 707 888 660 888 q 803 867 758 888 q 867 804 849 847 m 606 481 q 760 615 690 535 q 831 756 831 694 q 826 781 831 768 q 784 826 817 810 q 710 842 751 842 q 648 832 678 842 q 599 806 618 822 q 583 790 593 800 q 564 775 572 779 q 554 772 558 772 q 532 785 542 772 q 516 667 519 731 q 511 593 513 604 q 506 432 508 546 l 515 440 q 535 449 522 444 q 557 456 549 453 q 606 481 583 467 z "},"Ｑ":{"ha":1250,"x_min":292,"x_max":965,"o":"m 965 194 q 957 176 965 183 q 938 168 949 168 q 899 181 926 168 q 840 210 869 193 q 796 238 804 231 q 675 165 739 186 q 676 157 676 163 q 669 138 676 146 q 650 131 663 131 q 471 177 557 131 q 336 301 385 224 q 292 460 292 372 q 320 594 292 529 q 400 708 349 660 q 504 772 444 750 q 629 793 564 793 q 776 763 707 793 q 890 676 846 732 q 943 518 943 607 q 938 464 943 488 q 899 365 928 415 q 831 271 871 314 q 936 224 886 236 q 957 215 950 219 q 965 197 964 210 l 965 194 m 646 213 q 753 267 694 221 q 611 396 649 343 q 604 417 604 404 q 612 438 604 429 q 631 446 619 446 q 653 432 644 446 q 788 299 694 364 q 864 405 835 346 q 893 517 893 464 q 856 636 893 583 q 756 719 818 689 q 626 749 694 749 q 497 718 558 749 q 383 610 426 682 q 340 460 340 539 q 365 349 340 403 q 460 240 396 285 q 599 186 525 194 q 604 199 599 190 q 626 210 613 208 q 646 213 640 211 z "},"Ｒ":{"ha":1250,"x_min":446,"x_max":913,"o":"m 890 382 q 913 347 913 365 q 904 329 913 338 q 888 322 897 322 q 864 332 878 322 q 822 361 836 354 q 725 390 778 385 q 596 396 672 396 q 569 394 589 396 q 531 392 549 392 q 507 393 515 392 l 519 274 q 535 164 528 207 q 558 79 543 121 q 572 58 561 74 q 582 32 582 42 q 574 13 582 19 q 557 6 567 6 q 533 15 543 6 q 503 76 514 36 q 481 189 492 115 q 449 593 457 344 q 446 713 446 665 q 453 869 446 789 q 454 886 453 872 q 463 910 456 900 q 482 919 471 919 q 504 909 494 919 q 511 885 514 899 l 507 869 q 625 890 558 890 q 771 858 708 890 q 833 760 833 825 q 832 742 833 749 q 781 622 824 678 q 675 507 739 565 q 581 440 633 469 q 681 439 626 442 q 801 422 750 433 q 890 382 851 411 m 529 465 q 567 483 550 472 q 614 515 583 493 q 739 643 689 571 q 786 754 786 711 q 742 818 786 794 q 636 842 697 842 q 556 829 593 842 q 536 820 549 826 q 515 813 524 814 q 500 815 504 813 q 497 733 497 788 q 496 693 496 719 q 503 457 494 592 q 517 462 508 460 q 529 465 525 464 z "},"Ｓ":{"ha":1250,"x_min":288,"x_max":1004,"o":"m 1001 819 q 1004 807 1004 811 q 996 787 1004 796 q 975 779 988 778 l 949 781 q 750 742 867 781 q 533 651 631 701 q 423 585 475 621 q 347 518 371 549 q 339 497 339 506 q 351 472 339 488 q 439 408 379 439 q 579 346 514 368 q 743 300 644 324 q 769 287 758 297 q 781 263 781 276 q 778 250 781 258 q 593 149 760 203 q 485 118 531 129 l 431 107 q 397 103 401 103 q 385 104 389 103 q 364 128 364 108 q 373 149 364 140 q 394 160 382 158 q 514 176 456 163 q 626 212 563 189 q 718 254 690 235 l 617 282 q 468 341 549 304 q 346 411 388 378 q 288 497 288 457 q 344 588 288 539 q 489 683 401 636 q 719 783 593 739 q 940 833 846 826 l 967 835 q 1001 819 993 835 z "},"Ｔ":{"ha":1250,"x_min":193,"x_max":992,"o":"m 907 738 q 937 737 911 738 q 977 726 963 736 q 988 696 992 715 q 961 678 983 678 q 943 681 957 678 q 893 686 919 686 l 851 685 q 721 669 793 681 q 719 660 721 663 q 711 594 711 635 q 714 522 711 569 q 731 308 718 422 q 767 108 744 194 q 760 80 771 92 q 736 68 750 68 q 714 82 722 68 q 701 140 704 97 q 692 247 697 200 q 685 326 688 294 q 664 603 664 525 q 665 642 664 631 q 667 658 665 653 q 479 613 597 644 l 450 604 q 292 557 332 569 l 265 549 q 221 536 235 538 q 201 544 208 536 q 193 565 193 553 q 199 581 193 574 q 214 592 204 589 q 369 632 279 607 q 603 692 503 668 q 801 729 703 715 q 907 738 871 738 z "},"Ｕ":{"ha":1250,"x_min":419,"x_max":904,"o":"m 499 700 q 493 725 501 714 q 472 736 485 736 q 446 718 453 736 q 437 683 439 700 q 435 663 435 667 q 419 478 419 550 q 435 299 419 379 q 503 167 451 218 q 593 129 539 129 q 672 151 638 129 q 829 385 774 213 q 901 776 885 557 q 903 790 901 782 q 904 807 904 799 q 893 836 904 826 q 876 842 886 842 q 859 835 867 842 q 849 818 851 829 q 847 803 847 814 l 849 774 q 846 708 849 744 q 840 646 843 672 q 751 322 819 468 q 684 217 721 260 q 594 175 647 175 q 478 350 506 175 q 469 471 469 408 q 499 700 469 590 z "},"Ｖ":{"ha":1250,"x_min":374,"x_max":918,"o":"m 892 775 q 910 766 903 775 q 918 746 918 757 q 915 733 918 738 q 803 509 868 646 q 688 250 739 372 q 643 113 653 167 q 642 102 643 110 q 636 89 640 94 q 615 79 628 79 q 597 85 606 79 q 588 100 589 90 q 603 165 586 118 q 493 312 543 196 q 411 567 443 428 q 379 749 394 640 q 376 765 378 753 q 374 788 374 778 q 386 817 374 808 q 401 821 393 821 q 422 813 414 821 q 431 793 431 806 q 465 547 431 689 q 546 311 499 406 q 578 256 563 278 q 615 219 593 233 l 621 217 q 722 457 658 315 q 840 707 786 599 q 851 731 843 713 q 869 763 858 750 q 892 775 879 775 z "},"Ｗ":{"ha":1250,"x_min":301,"x_max":1000,"o":"m 369 757 q 365 781 374 769 q 343 793 357 793 q 318 780 324 793 q 310 742 313 767 q 301 569 301 685 q 311 334 301 446 q 340 157 321 222 q 394 83 363 83 q 421 96 407 83 q 451 138 439 113 q 474 188 464 163 q 488 224 483 213 l 543 374 q 594 515 567 440 q 617 569 604 539 q 638 617 629 599 q 651 631 643 631 q 663 619 658 631 q 683 556 672 597 q 700 481 693 515 q 729 351 717 394 q 752 286 739 313 q 789 260 765 260 q 824 277 811 260 q 853 325 838 294 q 892 419 872 365 l 904 454 q 960 619 940 557 q 992 744 979 681 q 997 763 993 750 q 1000 785 1000 776 q 992 806 1000 797 q 972 814 983 814 q 951 804 960 814 q 942 776 944 794 q 938 751 939 757 q 884 547 924 676 q 815 354 844 417 q 808 338 813 347 q 801 323 804 329 q 794 317 797 317 q 785 330 790 317 q 779 349 781 343 q 749 476 772 368 q 738 526 747 485 q 719 600 729 568 q 699 650 708 632 q 651 683 679 683 q 621 669 635 683 q 595 636 606 656 q 577 598 585 617 q 567 572 569 579 q 508 414 540 507 l 479 335 q 411 165 447 247 q 397 143 401 143 q 388 159 393 143 q 378 200 383 175 q 365 306 372 226 q 354 435 357 386 q 351 561 351 521 l 351 608 q 369 757 354 706 z "},"Ｘ":{"ha":1250,"x_min":165,"x_max":997,"o":"m 971 753 q 991 744 985 753 q 997 725 997 736 q 982 700 997 708 q 889 628 944 681 q 785 517 846 586 l 838 346 q 865 267 851 300 q 897 210 878 235 q 911 195 901 206 q 921 172 921 185 q 913 152 921 160 q 893 144 904 144 q 881 147 889 144 q 849 180 861 157 q 828 224 836 203 q 818 251 821 244 q 746 472 792 318 q 642 339 689 406 q 610 295 635 329 q 567 230 586 261 q 538 171 549 199 q 532 150 535 164 q 523 135 531 140 q 506 129 515 129 q 481 144 489 129 q 476 160 476 151 q 495 211 476 183 q 517 244 514 239 q 728 529 590 368 l 728 532 q 672 675 701 618 q 639 726 656 710 q 594 743 622 743 q 574 740 588 743 q 453 676 525 731 q 325 558 381 621 q 267 491 288 515 q 232 438 247 467 q 224 422 231 435 q 210 403 218 410 q 193 396 203 396 q 173 404 181 396 q 165 424 165 413 q 169 439 165 433 q 356 657 244 557 q 480 754 422 718 q 599 790 538 790 q 683 750 651 790 q 740 644 715 710 q 765 572 747 629 q 901 710 839 653 q 939 742 924 731 q 971 753 954 753 z "},"Ｙ":{"ha":1250,"x_min":376,"x_max":943,"o":"m 915 760 q 936 742 929 754 q 943 714 943 729 q 936 683 943 700 q 865 601 925 660 q 767 514 804 542 q 608 235 697 400 q 544 106 567 158 q 519 44 524 57 q 514 27 517 38 q 507 10 511 17 q 493 3 503 4 l 488 3 q 469 10 476 3 q 461 28 461 17 q 474 72 461 42 q 517 163 483 99 q 536 200 531 188 q 683 464 589 306 l 685 467 q 635 458 660 458 q 538 491 585 458 q 456 583 490 524 q 401 708 426 633 q 376 872 376 782 q 381 897 376 888 q 400 910 386 907 q 423 901 414 911 q 431 875 432 890 q 448 742 426 818 q 506 607 469 667 q 608 511 558 522 q 639 508 619 508 q 721 532 679 508 l 725 535 q 842 715 799 661 q 915 760 885 769 z "},"Ｚ":{"ha":1250,"x_min":328,"x_max":972,"o":"m 972 139 q 959 117 972 124 q 925 108 946 111 q 867 106 907 106 q 608 136 758 106 q 490 164 546 149 q 417 193 435 179 q 399 219 399 206 q 436 249 399 246 q 503 278 474 251 q 568 353 532 306 q 625 435 599 396 q 571 472 625 435 q 432 549 493 524 q 400 581 400 561 q 413 603 400 594 q 439 606 426 613 q 649 475 519 565 q 689 544 672 511 q 733 632 708 581 q 767 714 757 683 q 526 722 683 710 q 367 740 438 729 q 338 749 349 743 q 328 771 328 756 q 339 792 328 785 q 364 796 350 799 q 547 769 433 779 q 758 760 661 760 q 774 761 767 760 q 790 763 782 763 q 815 751 808 763 q 818 738 818 746 q 799 666 818 714 q 754 569 781 618 q 686 447 718 501 q 788 368 739 410 q 813 347 796 361 q 841 321 829 333 q 858 294 853 308 q 861 281 861 290 q 853 263 861 269 q 835 256 846 256 q 808 271 818 256 q 777 310 796 292 q 729 354 758 329 l 663 408 q 617 340 629 358 q 489 214 546 243 q 611 185 554 196 q 853 156 750 156 q 910 161 883 156 q 926 165 915 163 q 946 167 938 167 q 972 139 972 167 z "},"a":{"ha":604,"x_min":56,"x_max":557,"o":"m 542 463 q 557 439 557 454 q 550 421 557 431 q 518 410 540 410 l 493 411 q 431 408 472 411 q 436 342 433 386 q 442 240 442 258 q 441 213 442 231 q 440 158 440 196 q 432 113 440 124 q 410 101 424 101 q 394 106 401 101 q 382 128 382 113 q 385 146 382 135 q 392 231 392 192 q 382 404 392 304 q 253 385 332 399 q 163 363 206 376 q 156 361 160 361 q 115 132 122 231 q 113 79 113 96 l 114 57 q 108 39 114 46 q 85 28 97 28 q 67 35 75 28 q 58 53 60 42 q 67 149 56 86 l 71 178 q 163 561 90 315 l 174 599 q 208 711 194 668 q 243 796 222 754 q 299 854 271 854 q 328 839 314 854 q 367 759 350 814 q 403 604 383 704 q 425 461 415 543 q 514 465 471 465 l 525 465 q 542 463 536 465 m 171 418 q 376 456 293 446 l 363 556 q 335 694 353 617 q 315 768 322 746 q 300 790 307 790 q 258 707 288 790 q 199 519 232 632 q 171 418 179 453 z "},"b":{"ha":533,"x_min":89,"x_max":479,"o":"m 464 703 q 357 567 433 638 q 253 483 318 531 l 286 478 q 313 473 296 476 q 336 467 329 469 q 426 382 426 442 q 389 280 426 329 q 297 192 351 231 q 200 131 251 158 q 185 123 196 129 q 165 118 175 117 q 170 94 167 110 q 174 67 174 78 q 167 40 174 50 q 147 31 160 31 q 117 71 122 31 q 93 404 101 186 l 92 453 q 89 551 89 517 q 106 746 89 661 q 171 847 119 815 q 300 878 219 878 q 393 864 350 878 q 458 824 436 850 q 479 765 479 801 q 464 703 479 733 m 244 535 q 340 614 311 585 q 397 678 374 647 q 429 742 419 708 q 433 765 433 754 q 416 802 433 788 q 363 825 399 817 q 299 832 338 832 q 199 810 238 832 q 161 769 171 794 q 146 703 151 744 q 136 544 136 629 q 147 306 136 461 q 160 171 151 238 l 167 174 q 290 242 233 196 q 369 346 347 288 q 379 382 379 372 q 369 403 379 394 q 335 419 360 411 q 279 432 307 428 q 218 447 238 440 q 189 478 189 458 q 194 495 189 489 q 207 506 200 501 q 217 514 214 511 l 244 535 z "},"c":{"ha":814,"x_min":82,"x_max":756,"o":"m 610 663 q 621 649 613 654 q 638 643 629 643 q 653 647 646 643 q 663 658 660 651 q 665 671 665 667 q 651 706 665 688 q 635 729 638 725 q 592 768 617 751 q 454 804 536 804 q 266 753 351 804 q 131 614 181 701 q 82 424 82 526 q 92 336 82 376 q 192 172 115 229 q 383 115 268 115 q 533 136 453 115 q 678 189 614 157 q 710 205 682 190 q 751 239 739 219 q 756 253 756 246 q 747 273 756 264 q 728 282 739 282 q 709 276 718 282 q 688 259 700 271 q 668 243 675 247 q 539 188 625 214 q 385 164 461 164 q 174 258 236 164 q 131 419 131 324 q 151 543 131 488 q 243 674 179 619 q 388 749 307 729 q 451 756 419 756 q 550 733 507 756 q 610 663 593 710 z "},"d":{"ha":582,"x_min":94,"x_max":526,"o":"m 526 583 q 476 408 526 501 q 342 225 425 314 q 278 165 318 199 q 213 115 239 132 q 197 106 210 114 q 171 96 185 97 l 168 96 q 178 67 174 74 q 182 51 182 58 q 174 31 182 39 q 154 22 167 22 q 133 33 140 22 q 122 57 125 43 q 99 254 103 153 q 94 463 94 358 q 101 671 94 586 q 103 695 101 678 q 107 726 104 713 q 109 748 108 733 q 117 771 110 763 q 138 781 125 781 q 160 770 151 781 q 165 746 169 760 q 144 597 150 693 q 140 461 140 535 q 151 218 140 336 q 158 149 153 196 l 161 150 q 253 211 210 176 q 413 397 342 282 q 478 581 478 503 q 435 693 478 643 q 332 761 393 743 q 275 769 303 769 q 201 757 239 769 q 174 761 186 751 q 163 785 163 771 q 181 808 163 803 q 261 822 218 822 q 389 791 328 822 q 488 705 450 760 q 526 583 526 650 z "},"e":{"ha":883,"x_min":19,"x_max":832,"o":"m 726 856 q 751 861 731 857 q 790 865 771 865 q 832 838 832 865 q 822 813 832 818 q 799 809 811 808 q 782 810 786 810 q 723 801 753 810 q 688 792 693 793 q 424 688 572 760 q 124 526 276 617 q 103 513 113 519 q 82 499 93 506 q 67 488 78 496 q 47 481 57 481 q 27 489 35 481 q 19 508 19 497 q 32 532 19 524 q 383 722 163 618 q 726 856 603 825 m 724 507 q 749 510 740 510 q 772 499 765 510 q 778 481 778 492 q 764 457 778 465 q 744 453 757 453 q 724 453 731 453 q 699 449 710 451 q 679 444 688 446 q 464 379 571 424 q 432 366 457 376 q 386 343 407 356 q 374 336 378 338 q 434 203 392 253 q 543 154 476 154 q 681 197 603 154 q 713 210 703 210 q 728 204 721 210 q 738 183 738 194 q 729 163 738 169 q 703 149 721 157 q 617 115 653 126 q 543 104 581 104 q 418 150 469 104 q 341 272 367 196 q 315 436 315 347 q 331 571 315 511 q 338 605 333 581 q 351 646 342 629 q 375 660 360 660 q 395 652 386 660 q 404 632 404 644 l 401 621 q 365 435 365 538 q 367 392 365 406 q 724 507 564 482 z "},"f":{"ha":683,"x_min":47,"x_max":628,"o":"m 613 557 q 628 532 628 551 q 622 514 628 522 q 604 504 615 506 l 600 504 q 582 506 592 504 q 564 508 572 508 q 437 498 499 508 q 289 465 375 488 q 267 456 282 464 q 244 447 251 449 q 260 278 247 356 q 297 157 274 200 q 304 145 299 154 q 310 126 310 136 q 304 110 310 117 q 283 99 296 99 q 260 111 268 99 q 234 166 243 135 q 218 239 225 197 q 196 513 196 368 q 215 733 196 644 q 219 748 217 738 q 225 765 221 758 q 131 747 161 754 q 106 740 122 746 q 79 735 90 735 q 60 740 67 735 q 47 763 47 749 q 53 781 47 772 q 71 790 60 789 q 572 832 317 832 q 610 826 596 832 q 625 803 625 821 q 616 782 625 790 q 594 774 607 774 q 564 779 592 774 q 463 788 521 788 q 269 772 374 788 q 278 753 278 764 q 275 740 278 749 q 254 677 260 711 q 246 590 249 643 q 244 504 244 564 q 398 542 329 528 q 543 561 467 556 l 575 563 q 613 557 600 563 z "},"g":{"ha":789,"x_min":58,"x_max":749,"o":"m 736 481 q 749 460 749 475 q 738 437 749 447 q 708 429 726 426 q 694 433 701 431 q 653 435 688 435 q 599 432 635 435 l 599 428 q 596 413 599 424 q 582 375 585 392 q 568 229 568 303 q 572 172 568 196 q 579 150 574 164 q 585 128 585 136 q 568 107 585 114 l 557 104 q 521 201 524 104 q 314 124 419 124 q 267 128 289 124 q 148 183 200 139 q 74 290 96 226 q 58 378 58 336 q 118 554 58 469 q 223 663 160 615 q 360 740 286 710 q 511 782 429 769 q 532 785 525 785 q 560 768 553 785 l 563 757 q 555 738 563 746 q 535 728 547 729 q 351 680 442 721 q 196 573 261 639 q 113 429 131 507 q 106 376 106 399 q 135 271 106 318 q 213 197 164 224 q 317 171 261 171 q 447 211 385 171 q 494 249 476 231 q 507 262 499 253 q 524 276 515 271 q 536 376 531 346 q 540 401 538 385 q 544 426 542 417 q 440 411 510 422 q 410 408 422 408 q 389 407 397 407 q 356 404 367 404 q 340 406 344 404 q 322 431 322 411 q 331 451 322 442 q 351 460 339 461 q 456 463 400 457 q 522 469 513 468 q 571 475 540 472 q 657 485 625 481 q 697 488 679 488 q 736 481 722 488 z "},"h":{"ha":732,"x_min":93,"x_max":663,"o":"m 647 538 q 663 513 663 529 q 656 493 663 500 q 636 485 647 485 q 608 492 626 485 q 582 499 589 499 l 560 501 q 557 397 557 429 q 563 283 557 326 q 574 215 568 236 q 580 199 576 207 q 585 185 583 192 q 586 178 586 182 q 576 158 586 167 q 556 150 567 150 q 526 183 536 150 q 511 318 514 232 l 510 389 q 513 504 510 426 l 471 506 q 318 494 399 506 q 182 468 233 485 q 163 460 175 465 q 143 454 151 456 q 164 221 147 307 q 169 190 165 214 q 181 146 174 165 q 200 113 189 126 q 214 98 204 107 q 224 78 224 89 q 215 58 224 65 q 196 50 207 50 q 178 56 185 50 q 144 102 156 72 q 124 175 133 132 q 93 542 93 319 q 100 756 93 635 q 101 780 100 763 q 105 811 101 797 q 117 832 108 825 q 133 838 124 838 q 156 827 147 838 q 161 803 165 817 q 148 732 151 768 q 143 642 144 696 l 142 607 l 140 561 l 142 510 q 425 550 260 538 q 514 553 483 553 q 535 746 521 683 q 539 764 536 749 q 549 789 542 779 q 571 799 557 799 q 593 786 585 799 q 596 760 601 774 q 568 614 576 711 l 564 551 q 618 546 600 549 q 647 538 636 543 z "},"i":{"ha":553,"x_min":58,"x_max":493,"o":"m 483 185 q 493 164 493 175 q 484 144 493 153 q 463 136 475 136 q 433 138 443 136 q 413 138 426 138 q 389 138 399 139 q 281 125 335 135 q 193 111 250 118 q 176 107 186 110 q 160 104 167 104 q 140 113 147 104 q 133 132 133 121 q 139 150 133 142 q 156 160 144 158 q 274 176 185 167 q 272 203 272 185 l 272 290 q 286 606 272 408 l 289 643 q 308 776 292 731 q 124 744 228 768 q 102 737 115 742 q 79 735 89 732 q 64 746 69 738 q 58 763 58 754 q 64 780 58 772 q 79 789 69 788 q 225 813 121 799 q 381 831 329 826 q 414 833 400 833 q 433 831 426 833 q 451 804 451 825 q 432 776 451 782 q 421 775 429 775 q 401 777 411 775 q 382 779 390 779 l 369 779 q 363 765 369 772 q 358 756 361 763 q 354 743 356 749 q 339 660 347 718 q 325 485 331 601 q 319 325 319 388 q 328 189 319 251 l 328 182 l 413 189 q 454 193 446 193 q 483 185 474 193 z "},"j":{"ha":900,"x_min":25,"x_max":882,"o":"m 879 710 q 882 697 882 701 q 874 676 882 685 q 857 671 868 671 l 838 672 q 726 676 801 676 q 703 661 719 661 q 638 605 664 661 q 613 481 613 549 q 618 428 613 461 q 631 366 625 399 q 636 307 636 333 q 592 190 636 235 q 411 132 533 132 q 356 135 392 132 q 218 172 282 143 q 110 250 154 200 q 42 368 65 300 q 33 396 40 374 q 25 436 25 418 q 53 468 25 468 q 71 460 64 468 q 81 442 78 453 q 94 372 90 386 q 164 264 113 310 q 275 199 211 221 q 404 178 339 178 q 539 208 489 178 q 589 307 589 239 q 578 388 589 335 q 568 440 574 404 q 565 485 565 468 q 579 587 565 538 q 621 669 593 636 l 515 657 q 344 629 436 647 q 294 618 328 626 l 243 606 q 218 612 228 603 q 208 635 208 621 q 214 650 208 643 q 229 658 219 657 q 735 722 449 708 q 814 725 788 725 l 843 726 q 879 710 871 726 z "},"k":{"ha":597,"x_min":92,"x_max":546,"o":"m 533 726 q 546 703 546 718 q 540 686 546 694 q 525 675 535 678 q 339 580 453 653 q 175 451 225 507 q 167 436 167 443 q 174 425 167 432 q 190 408 181 418 q 294 349 224 378 q 422 314 364 321 l 456 308 l 464 308 l 478 308 q 490 307 488 308 q 503 298 499 306 q 508 281 508 290 q 499 258 508 267 q 474 251 490 251 q 443 256 472 251 q 321 289 390 264 q 203 342 251 314 q 147 381 167 363 q 140 247 140 301 q 168 53 140 128 q 190 11 178 25 q 206 -1 194 6 q 222 -14 218 -7 q 226 -28 226 -22 q 214 -51 226 -43 q 188 -54 201 -60 q 126 14 143 -39 q 100 139 108 67 q 92 286 92 208 q 112 564 92 417 q 165 846 132 711 l 182 911 q 190 944 185 926 q 204 972 196 963 q 226 983 213 983 q 249 972 240 983 q 253 946 258 961 q 194 724 213 825 q 160 501 175 624 l 175 515 q 313 622 226 564 q 463 710 400 681 q 484 721 467 711 q 518 731 501 731 q 533 726 528 731 z "},"l":{"ha":704,"x_min":72,"x_max":681,"o":"m 638 244 q 653 249 646 249 q 673 240 665 249 q 681 221 681 232 q 665 196 681 207 q 613 170 642 181 q 539 146 585 160 q 358 110 464 124 q 167 96 253 96 q 101 99 140 96 q 72 122 74 101 l 72 126 q 76 141 72 135 q 86 150 81 147 q 92 151 90 151 q 96 153 94 151 q 140 294 121 178 q 171 539 160 410 q 182 744 182 675 q 181 789 182 775 l 179 803 q 188 824 179 815 q 207 832 196 832 q 228 824 219 832 q 235 804 236 817 l 231 717 q 224 597 229 690 q 210 422 219 503 q 185 251 199 319 q 150 146 171 183 l 197 144 q 410 164 313 144 q 515 189 478 178 q 611 231 547 199 q 623 237 617 233 q 638 244 629 240 z "},"m":{"ha":821,"x_min":85,"x_max":756,"o":"m 735 193 q 747 179 738 189 q 756 158 756 169 q 748 137 756 146 q 728 128 740 128 q 696 154 711 128 q 657 261 667 208 q 644 397 644 331 q 657 568 644 453 q 607 521 640 547 q 435 467 535 467 q 317 491 374 467 q 225 561 261 515 q 193 610 203 589 l 192 613 q 156 432 172 526 q 138 244 138 318 q 149 132 138 181 q 156 109 150 125 q 163 83 163 93 q 158 69 163 76 q 136 57 151 57 q 108 75 118 57 q 95 121 99 96 q 90 182 92 146 q 115 475 85 299 q 188 771 144 651 q 202 806 194 793 q 225 818 210 818 q 246 810 238 818 q 254 790 254 801 q 250 776 254 783 q 211 679 233 749 q 233 658 229 676 q 306 553 249 590 q 438 517 364 517 q 526 531 483 517 q 599 572 568 544 q 647 635 632 601 q 672 721 663 669 q 682 765 678 751 q 694 783 686 776 q 710 789 701 790 q 728 758 728 785 q 724 718 728 756 q 708 618 713 651 q 693 426 693 501 q 696 361 693 406 q 708 259 700 299 q 735 193 715 219 z "},"n":{"ha":721,"x_min":86,"x_max":649,"o":"m 619 760 q 642 749 636 760 q 649 719 649 738 q 606 474 649 621 q 508 263 565 335 q 447 228 481 228 q 421 233 432 228 q 378 260 397 243 q 336 304 358 278 q 204 528 253 403 q 181 594 185 576 q 153 440 172 557 q 139 257 139 357 q 143 189 139 217 q 145 171 143 185 q 151 147 147 157 q 163 131 156 136 q 182 104 182 117 q 178 90 182 99 q 156 78 171 78 q 126 89 140 78 q 96 141 101 108 q 89 228 90 174 q 111 481 86 332 q 172 744 136 629 q 188 782 179 767 q 214 797 197 797 q 233 789 225 797 q 240 769 240 781 q 236 756 240 763 q 200 674 218 731 q 219 667 211 674 q 228 647 228 660 q 250 545 229 597 q 306 432 271 493 q 368 339 335 379 q 446 275 419 275 q 496 325 468 275 q 549 447 524 375 q 593 721 593 571 q 619 760 593 760 z "},"o":{"ha":694,"x_min":53,"x_max":639,"o":"m 433 733 q 583 665 526 719 q 639 529 639 611 q 638 503 639 511 q 561 317 626 408 q 392 164 496 226 l 368 149 q 367 138 368 142 q 333 117 361 117 q 275 129 317 117 q 113 240 174 157 q 53 429 53 324 l 54 454 q 109 599 60 535 q 233 699 158 663 q 389 736 308 736 q 433 733 418 736 m 333 196 q 458 274 399 218 q 553 398 517 329 q 590 528 590 467 q 586 567 590 549 q 509 659 572 628 q 375 690 446 690 q 238 654 301 690 q 138 556 175 618 q 101 424 101 494 q 122 324 101 374 q 193 226 146 265 q 300 178 240 188 q 315 176 304 176 q 333 196 318 189 z "},"p":{"ha":551,"x_min":89,"x_max":510,"o":"m 501 806 q 510 760 510 785 q 454 619 510 696 q 321 479 399 542 q 239 424 281 447 q 197 401 225 415 q 157 389 169 388 q 140 399 144 392 l 139 308 q 142 193 139 263 q 154 69 144 110 q 151 40 160 51 q 128 29 142 29 q 110 36 118 29 q 99 56 101 43 q 89 210 89 94 q 94 506 89 286 q 101 646 96 556 q 113 783 107 736 q 114 801 113 786 q 122 826 115 817 q 143 838 129 838 q 159 833 151 838 q 169 821 167 828 q 249 871 204 853 q 342 889 294 889 q 438 869 393 889 q 501 806 483 849 m 240 482 q 395 616 325 536 q 465 757 465 696 q 461 782 465 769 q 419 827 451 811 q 344 843 386 843 q 283 833 313 843 q 233 807 253 824 q 217 791 228 801 q 199 776 207 781 q 189 774 193 774 q 167 786 176 774 q 151 669 154 732 q 146 594 147 606 q 140 433 143 547 l 150 442 q 170 450 157 446 q 192 457 183 454 q 240 482 218 468 z "},"q":{"ha":810,"x_min":72,"x_max":746,"o":"m 746 194 q 738 176 746 183 q 718 168 729 168 q 679 181 707 168 q 621 210 650 193 q 576 238 585 231 q 456 165 519 186 q 457 157 457 163 q 450 138 457 146 q 431 131 443 131 q 251 177 338 131 q 117 301 165 224 q 72 460 72 372 q 101 594 72 529 q 181 708 129 660 q 285 772 225 750 q 410 793 344 793 q 557 763 488 793 q 671 676 626 732 q 724 518 724 607 q 718 464 724 488 q 680 365 708 415 q 611 271 651 314 q 717 224 667 236 q 738 215 731 219 q 746 197 744 210 l 746 194 m 426 213 q 533 267 475 221 q 392 396 429 343 q 385 417 385 404 q 392 438 385 429 q 411 446 400 446 q 433 432 425 446 q 568 299 475 364 q 644 405 615 346 q 674 517 674 464 q 636 636 674 583 q 537 719 599 689 q 407 749 475 749 q 278 718 339 749 q 164 610 207 682 q 121 460 121 539 q 146 349 121 403 q 241 240 176 285 q 379 186 306 194 q 385 199 379 190 q 407 210 393 208 q 426 213 421 211 z "},"r":{"ha":600,"x_min":92,"x_max":558,"o":"m 536 369 q 558 335 558 353 q 550 317 558 325 q 533 310 543 310 q 510 319 524 310 q 468 349 482 342 q 371 378 424 372 q 242 383 318 383 q 215 381 235 383 q 176 379 194 379 q 153 381 161 379 l 165 261 q 181 151 174 194 q 204 67 189 108 q 217 45 207 61 q 228 19 228 29 q 220 0 228 7 q 203 -7 213 -7 q 179 3 189 -7 q 149 63 160 24 q 126 176 138 103 q 94 581 103 332 q 92 700 92 653 q 99 857 92 776 q 100 874 99 860 q 108 897 101 888 q 128 907 117 907 q 150 897 140 907 q 157 872 160 886 l 153 857 q 271 878 204 878 q 417 845 354 878 q 479 747 479 813 q 478 729 479 736 q 427 609 469 665 q 321 494 385 553 q 226 428 279 457 q 326 426 272 429 q 447 410 396 421 q 536 369 497 399 m 175 453 q 213 470 196 460 q 260 503 229 481 q 385 631 335 558 q 432 742 432 699 q 388 806 432 782 q 282 829 343 829 q 201 817 239 829 q 182 808 194 814 q 161 800 169 801 q 146 803 150 800 q 143 721 143 775 q 142 681 142 707 q 149 444 140 579 q 163 449 154 447 q 175 453 171 451 z "},"s":{"ha":778,"x_min":42,"x_max":758,"o":"m 756 819 q 758 807 758 811 q 750 787 758 796 q 729 779 742 778 l 703 781 q 504 742 621 781 q 288 651 385 701 q 177 585 229 621 q 101 518 125 549 q 93 497 93 506 q 106 472 93 488 q 193 408 133 439 q 333 346 268 368 q 497 300 399 324 q 524 287 513 297 q 535 263 535 276 q 532 250 535 258 q 347 149 514 203 q 239 118 285 129 l 185 107 q 151 103 156 103 q 139 104 143 103 q 118 128 118 108 q 127 149 118 140 q 149 160 136 158 q 268 176 210 163 q 381 212 317 189 q 472 254 444 235 l 371 282 q 222 341 303 304 q 100 411 142 378 q 42 497 42 457 q 99 588 42 539 q 243 683 156 636 q 474 783 347 739 q 694 833 600 826 l 721 835 q 756 819 747 835 z "},"t":{"ha":843,"x_min":24,"x_max":819,"o":"m 743 746 q 798 740 776 746 q 819 713 819 733 q 792 686 819 686 q 774 689 788 686 q 726 696 753 696 q 682 693 715 696 q 551 678 621 692 q 550 668 551 671 q 542 603 542 643 q 544 531 542 578 q 562 317 549 431 q 597 117 575 203 q 591 88 601 100 q 567 76 581 76 q 544 90 553 76 q 532 149 535 106 q 523 256 528 208 q 515 335 518 303 q 494 611 494 533 q 496 650 494 639 q 497 668 496 661 q 310 621 426 653 q 122 565 231 600 q 89 553 113 563 q 50 544 65 544 q 31 553 38 544 q 24 574 24 561 q 29 590 24 582 q 44 600 35 597 q 192 640 107 617 q 442 704 351 683 q 632 738 533 725 q 743 746 704 746 z "},"u":{"ha":646,"x_min":82,"x_max":567,"o":"m 161 700 q 156 725 164 714 q 135 736 147 736 q 108 718 115 736 q 99 683 101 700 q 97 663 97 667 q 82 478 82 550 q 98 299 82 379 q 165 167 114 218 q 256 129 201 129 q 335 151 300 129 q 492 385 436 213 q 564 776 547 557 q 565 790 564 782 q 567 807 567 799 q 556 836 567 826 q 539 842 549 842 q 522 835 529 842 q 511 818 514 829 q 510 803 510 814 l 511 774 q 508 708 511 744 q 503 646 506 672 q 414 322 482 468 q 347 217 383 260 q 257 175 310 175 q 140 350 168 175 q 132 471 132 408 q 161 700 132 590 z "},"v":{"ha":629,"x_min":42,"x_max":586,"o":"m 560 775 q 578 766 571 775 q 586 746 586 757 q 583 733 586 738 q 472 509 536 646 q 356 250 407 372 q 311 113 321 167 q 310 102 311 110 q 304 89 308 94 q 283 79 296 79 q 265 85 274 79 q 256 100 257 90 q 271 165 254 118 q 161 312 211 196 q 79 567 111 428 q 47 749 63 640 q 44 765 46 753 q 42 788 42 778 q 54 817 42 808 q 69 821 61 821 q 90 813 82 821 q 99 793 99 806 q 133 547 99 689 q 214 311 167 406 q 246 256 231 278 q 283 219 261 233 l 289 217 q 390 457 326 315 q 508 707 454 599 q 519 731 511 713 q 537 763 526 750 q 560 775 547 775 z "},"w":{"ha":824,"x_min":86,"x_max":785,"o":"m 154 757 q 150 781 158 769 q 128 793 142 793 q 103 780 108 793 q 94 742 97 767 q 86 569 86 685 q 96 334 86 446 q 125 157 106 222 q 179 83 147 83 q 206 96 192 83 q 236 138 224 113 q 258 188 249 163 q 272 224 268 213 l 328 374 q 379 515 351 440 q 401 569 389 539 q 422 617 414 599 q 436 631 428 631 q 447 619 443 631 q 467 556 457 597 q 485 481 478 515 q 514 351 501 394 q 537 286 524 313 q 574 260 550 260 q 609 277 596 260 q 638 325 622 294 q 676 419 657 365 l 689 454 q 744 619 725 557 q 776 744 764 681 q 781 763 778 750 q 785 785 785 776 q 776 806 785 797 q 757 814 768 814 q 736 804 744 814 q 726 776 729 794 q 722 751 724 757 q 669 547 708 676 q 600 354 629 417 q 593 338 597 347 q 585 323 589 329 q 579 317 582 317 q 570 330 575 317 q 564 349 565 343 q 533 476 557 368 q 523 526 532 485 q 503 600 514 568 q 483 650 493 632 q 436 683 464 683 q 406 669 419 683 q 380 636 390 656 q 362 598 369 617 q 351 572 354 579 q 293 414 325 507 l 264 335 q 196 165 232 247 q 182 143 186 143 q 173 159 178 143 q 163 200 168 175 q 149 306 157 226 q 139 435 142 386 q 136 561 136 521 l 136 608 q 154 757 139 706 z "},"x":{"ha":904,"x_min":32,"x_max":864,"o":"m 838 753 q 858 744 851 753 q 864 725 864 736 q 849 700 864 708 q 756 628 811 681 q 651 517 713 586 l 704 346 q 731 267 718 300 q 764 210 744 235 q 778 195 768 206 q 788 172 788 185 q 779 152 788 160 q 760 144 771 144 q 747 147 756 144 q 715 180 728 157 q 695 224 703 203 q 685 251 688 244 q 613 472 658 318 q 508 339 556 406 q 477 295 501 329 q 434 230 453 261 q 404 171 415 199 q 399 150 401 164 q 390 135 397 140 q 372 129 382 129 q 347 144 356 129 q 343 160 343 151 q 362 211 343 183 q 383 244 381 239 q 594 529 457 368 l 594 532 q 539 675 568 618 q 506 726 522 710 q 461 743 489 743 q 440 740 454 743 q 319 676 392 731 q 192 558 247 621 q 134 491 154 515 q 99 438 114 467 q 91 422 97 435 q 77 403 85 410 q 60 396 69 396 q 40 404 47 396 q 32 424 32 413 q 36 439 32 433 q 222 657 111 557 q 347 754 289 718 q 465 790 404 790 q 550 750 518 790 q 607 644 582 710 q 632 572 614 629 q 768 710 706 653 q 806 742 790 731 q 838 753 821 753 z "},"y":{"ha":650,"x_min":42,"x_max":608,"o":"m 581 750 q 601 732 594 744 q 608 704 608 719 q 601 674 608 690 q 530 591 590 650 q 432 504 469 532 q 274 225 364 390 q 210 96 232 149 q 185 35 189 47 q 179 17 182 28 q 172 1 176 7 q 158 -7 168 -6 l 153 -7 q 134 0 142 -7 q 126 18 126 7 q 139 63 126 32 q 182 153 149 89 q 201 190 196 178 q 349 454 254 296 l 350 457 q 300 449 325 449 q 203 481 250 449 q 121 574 156 514 q 67 698 92 624 q 42 863 42 772 q 47 890 42 879 q 71 900 53 900 q 90 890 82 900 q 96 865 97 879 q 113 733 92 808 q 171 597 135 657 q 274 501 224 513 q 304 499 285 499 q 386 522 344 499 l 390 525 q 507 706 464 651 q 581 750 550 760 z "},"z":{"ha":731,"x_min":43,"x_max":688,"o":"m 688 139 q 674 117 688 124 q 640 108 661 111 q 582 106 622 106 q 324 136 474 106 q 206 164 261 149 q 132 193 150 179 q 114 219 114 206 q 151 249 114 246 q 218 278 189 251 q 283 353 247 306 q 340 435 314 396 q 286 472 340 435 q 147 549 208 524 q 115 581 115 561 q 128 603 115 594 q 154 606 142 613 q 364 475 235 565 q 404 544 388 511 q 448 632 424 581 q 482 714 472 683 q 242 722 399 710 q 82 740 153 729 q 53 749 64 743 q 43 771 43 756 q 54 792 43 785 q 79 796 65 799 q 263 769 149 779 q 474 760 376 760 q 490 761 482 760 q 506 763 497 763 q 531 751 524 763 q 533 738 533 746 q 515 666 533 714 q 469 569 496 618 q 401 447 433 501 q 503 368 454 410 q 528 347 511 361 q 556 321 544 333 q 574 294 568 308 q 576 281 576 290 q 569 263 576 269 q 550 256 561 256 q 524 271 533 256 q 492 310 511 292 q 444 354 474 329 l 378 408 q 332 340 344 358 q 204 214 261 243 q 326 185 269 196 q 568 156 465 156 q 625 161 599 156 q 642 165 631 163 q 661 167 653 167 q 688 139 688 167 z "},"ａ":{"ha":1250,"x_min":365,"x_max":867,"o":"m 851 463 q 867 439 867 454 q 860 421 867 431 q 828 410 850 410 l 803 411 q 740 408 782 411 q 746 342 743 386 q 751 240 751 258 q 751 213 751 231 q 750 158 750 196 q 742 113 750 124 q 719 101 733 101 q 704 106 711 101 q 692 128 692 113 q 694 146 692 135 q 701 231 701 192 q 692 404 701 304 q 563 385 642 399 q 472 363 515 376 q 465 361 469 361 q 425 132 432 231 q 422 79 422 96 l 424 57 q 418 39 424 46 q 394 28 407 28 q 377 35 385 28 q 368 53 369 42 q 376 149 365 86 l 381 178 q 472 561 400 315 l 483 599 q 518 711 504 668 q 553 796 532 754 q 608 854 581 854 q 638 839 624 854 q 676 759 660 814 q 713 604 693 704 q 735 461 725 543 q 824 465 781 465 l 835 465 q 851 463 846 465 m 481 418 q 686 456 603 446 l 672 556 q 644 694 663 617 q 624 768 632 746 q 610 790 617 790 q 568 707 597 790 q 508 519 542 632 q 481 418 489 453 z "},"ｂ":{"ha":1250,"x_min":443,"x_max":833,"o":"m 818 703 q 711 567 788 638 q 607 483 672 531 l 640 478 q 667 473 650 476 q 690 467 683 469 q 781 382 781 442 q 743 280 781 329 q 651 192 706 231 q 554 131 606 158 q 540 123 550 129 q 519 118 529 117 q 524 94 521 110 q 528 67 528 78 q 521 40 528 50 q 501 31 514 31 q 471 71 476 31 q 447 404 456 186 l 446 453 q 443 551 443 517 q 460 746 443 661 q 525 847 474 815 q 654 878 574 878 q 747 864 704 878 q 813 824 790 850 q 833 765 833 801 q 818 703 833 733 m 599 535 q 694 614 665 585 q 751 678 728 647 q 783 742 774 708 q 788 765 788 754 q 770 802 788 788 q 717 825 753 817 q 653 832 692 832 q 553 810 592 832 q 515 769 525 794 q 500 703 506 744 q 490 544 490 629 q 501 306 490 461 q 514 171 506 238 l 521 174 q 644 242 588 196 q 724 346 701 288 q 733 382 733 372 q 724 403 733 394 q 689 419 714 411 q 633 432 661 428 q 572 447 592 440 q 543 478 543 458 q 549 495 543 489 q 561 506 554 501 q 571 514 568 511 l 599 535 z "},"ｃ":{"ha":1250,"x_min":279,"x_max":953,"o":"m 807 663 q 818 649 810 654 q 835 643 826 643 q 850 647 843 643 q 860 658 857 651 q 863 671 863 667 q 849 706 863 688 q 832 729 835 725 q 789 768 814 751 q 651 804 733 804 q 463 753 549 804 q 328 614 378 701 q 279 424 279 526 q 289 336 279 376 q 389 172 313 229 q 581 115 465 115 q 731 136 650 115 q 875 189 811 157 q 908 205 879 190 q 949 239 936 219 q 953 253 953 246 q 944 273 953 264 q 925 282 936 282 q 906 276 915 282 q 885 259 897 271 q 865 243 872 247 q 736 188 822 214 q 582 164 658 164 q 371 258 433 164 q 328 419 328 324 q 349 543 328 488 q 440 674 376 619 q 585 749 504 729 q 649 756 617 756 q 747 733 704 756 q 807 663 790 710 z "},"ｄ":{"ha":1250,"x_min":426,"x_max":858,"o":"m 858 583 q 808 408 858 501 q 674 225 757 314 q 610 165 650 199 q 544 115 571 132 q 529 106 542 114 q 503 96 517 97 l 500 96 q 510 67 506 74 q 514 51 514 58 q 506 31 514 39 q 486 22 499 22 q 465 33 472 22 q 454 57 457 43 q 431 254 435 153 q 426 463 426 358 q 433 671 426 586 q 435 695 433 678 q 439 726 436 713 q 441 748 440 733 q 449 771 442 763 q 469 781 457 781 q 492 770 483 781 q 497 746 501 760 q 476 597 482 693 q 472 461 472 535 q 483 218 472 336 q 490 149 485 196 l 493 150 q 585 211 542 176 q 744 397 674 282 q 810 581 810 503 q 767 693 810 643 q 664 761 725 743 q 607 769 635 769 q 533 757 571 769 q 506 761 518 751 q 494 785 494 771 q 513 808 494 803 q 593 822 550 822 q 721 791 660 822 q 820 705 782 760 q 858 583 858 650 z "},"ｅ":{"ha":1250,"x_min":158,"x_max":971,"o":"m 865 850 q 890 856 869 851 q 929 860 910 860 q 971 832 971 860 q 960 808 971 813 q 938 803 950 803 q 921 804 925 804 q 862 796 892 804 q 826 786 832 788 q 563 683 711 754 q 263 521 415 611 q 242 507 251 514 q 221 493 232 500 q 206 483 217 490 q 186 475 196 475 q 166 483 174 475 q 158 503 158 492 q 171 526 158 518 q 522 716 301 613 q 865 850 742 819 m 863 501 q 888 504 879 504 q 911 493 904 504 q 917 475 917 486 q 903 451 917 460 q 883 447 896 447 q 863 447 869 447 q 838 443 849 446 q 818 439 826 440 q 603 374 710 418 q 571 360 596 371 q 525 338 546 350 q 513 331 517 332 q 573 198 531 247 q 682 149 615 149 q 819 192 742 149 q 851 204 842 204 q 867 199 860 204 q 876 178 876 189 q 868 158 876 164 q 842 143 860 151 q 756 110 792 121 q 682 99 719 99 q 557 144 608 99 q 480 266 506 190 q 454 431 454 342 q 469 565 454 506 q 476 599 472 575 q 490 640 481 624 q 514 654 499 654 q 534 647 525 654 q 543 626 543 639 l 540 615 q 504 429 504 532 q 506 386 504 400 q 863 501 703 476 z "},"ｆ":{"ha":1250,"x_min":292,"x_max":872,"o":"m 857 557 q 872 532 872 551 q 866 514 872 522 q 849 504 860 506 l 844 504 q 826 506 836 504 q 808 508 817 508 q 681 498 743 508 q 533 465 619 488 q 511 456 526 464 q 489 447 496 449 q 505 278 492 356 q 542 157 518 200 q 549 145 543 154 q 554 126 554 136 q 549 110 554 117 q 528 99 540 99 q 504 111 513 99 q 478 166 488 135 q 463 239 469 197 q 440 513 440 368 q 460 733 440 644 q 463 748 461 738 q 469 765 465 758 q 375 747 406 754 q 351 740 367 746 q 324 735 335 735 q 304 740 311 735 q 292 763 292 749 q 298 781 292 772 q 315 790 304 789 q 817 832 561 832 q 855 826 840 832 q 869 803 869 821 q 860 782 869 790 q 839 774 851 774 q 808 779 836 774 q 707 788 765 788 q 514 772 618 788 q 522 753 522 764 q 519 740 522 749 q 499 677 504 711 q 490 590 493 643 q 489 504 489 564 q 642 542 574 528 q 788 561 711 556 l 819 563 q 857 557 844 563 z "},"ｇ":{"ha":1250,"x_min":297,"x_max":988,"o":"m 975 485 q 988 464 988 479 q 976 441 988 451 q 947 433 965 431 q 933 437 940 435 q 892 439 926 439 q 838 436 874 439 l 838 432 q 835 417 838 428 q 821 379 824 396 q 807 233 807 307 q 811 176 807 200 q 818 154 813 168 q 824 132 824 140 q 807 111 824 118 l 796 108 q 760 206 763 108 q 553 128 658 128 q 506 132 528 128 q 387 187 439 143 q 313 294 335 231 q 297 382 297 340 q 357 558 297 474 q 462 667 399 619 q 599 744 525 714 q 750 786 668 774 q 771 789 764 789 q 799 772 792 789 l 801 761 q 794 742 801 750 q 774 732 786 733 q 590 684 681 725 q 435 577 500 643 q 351 433 369 511 q 344 381 344 403 q 374 275 344 322 q 451 201 403 228 q 556 175 500 175 q 686 215 624 175 q 733 253 715 235 q 746 266 738 257 q 763 281 754 275 q 775 381 769 350 q 778 405 776 389 q 783 431 781 421 q 679 415 749 426 q 649 412 661 413 q 628 411 636 411 q 594 408 606 408 q 579 410 583 408 q 561 435 561 415 q 569 456 561 446 q 590 464 578 465 q 695 467 639 461 q 761 474 751 472 q 810 479 779 476 q 896 489 864 485 q 936 492 918 492 q 975 485 961 492 z "},"ｈ":{"ha":1250,"x_min":351,"x_max":921,"o":"m 906 539 q 921 514 921 531 q 914 494 921 501 q 894 486 906 486 q 866 493 885 486 q 840 500 847 500 l 818 503 q 815 399 815 431 q 821 285 815 328 q 832 217 826 238 q 838 201 835 208 q 843 186 842 193 q 844 179 844 183 q 835 160 844 168 q 814 151 825 151 q 785 185 794 151 q 769 319 772 233 l 768 390 q 771 506 768 428 l 729 507 q 576 496 657 507 q 440 469 492 486 q 422 462 433 467 q 401 456 410 457 q 422 222 406 308 q 428 191 424 215 q 440 147 432 167 q 458 114 447 128 q 472 99 463 108 q 482 79 482 90 q 474 59 482 67 q 454 51 465 51 q 436 57 443 51 q 403 103 414 74 q 382 176 392 133 q 351 543 351 321 q 358 757 351 636 q 359 781 358 764 q 363 813 360 799 q 375 833 367 826 q 392 839 382 839 q 415 828 406 839 q 419 804 424 818 q 406 733 410 769 q 401 643 403 697 l 400 608 l 399 563 l 400 511 q 683 551 518 539 q 772 554 742 554 q 793 747 779 685 q 797 765 794 750 q 808 790 800 781 q 829 800 815 800 q 851 788 843 800 q 854 761 860 775 q 826 615 835 713 l 822 553 q 876 547 858 550 q 906 539 894 544 z "},"ｉ":{"ha":1250,"x_min":364,"x_max":799,"o":"m 789 185 q 799 164 799 175 q 790 144 799 153 q 768 136 781 136 q 739 138 749 136 q 718 138 732 138 q 694 138 704 139 q 586 125 640 135 q 499 111 556 118 q 482 107 492 110 q 465 104 472 104 q 446 113 453 104 q 439 132 439 121 q 444 150 439 142 q 461 160 450 158 q 579 176 490 167 q 578 203 578 185 l 578 290 q 592 606 578 408 l 594 643 q 614 776 597 731 q 429 744 533 768 q 408 737 421 742 q 385 735 394 732 q 369 746 375 738 q 364 763 364 754 q 369 780 364 772 q 385 789 375 788 q 531 813 426 799 q 686 831 635 826 q 719 833 706 833 q 739 831 732 833 q 757 804 757 825 q 738 776 757 782 q 726 775 735 775 q 706 777 717 775 q 688 779 696 779 l 675 779 q 668 765 675 772 q 664 756 667 763 q 660 743 661 749 q 644 660 653 718 q 631 485 636 601 q 625 325 625 388 q 633 189 625 251 l 633 182 l 718 189 q 760 193 751 193 q 789 185 779 193 z "},"ｊ":{"ha":1250,"x_min":211,"x_max":1068,"o":"m 1065 710 q 1068 697 1068 701 q 1060 676 1068 685 q 1043 671 1054 671 l 1024 672 q 913 676 988 676 q 889 661 906 661 q 824 605 850 661 q 799 481 799 549 q 804 428 799 461 q 817 366 811 399 q 822 307 822 333 q 778 190 822 235 q 597 132 719 132 q 542 135 578 132 q 404 172 468 143 q 296 250 340 200 q 228 368 251 300 q 219 396 226 374 q 211 436 211 418 q 239 468 211 468 q 257 460 250 468 q 267 442 264 453 q 281 372 276 386 q 350 264 299 310 q 461 199 397 221 q 590 178 525 178 q 725 208 675 178 q 775 307 775 239 q 764 388 775 335 q 754 440 760 404 q 751 485 751 468 q 765 587 751 538 q 807 669 779 636 l 701 657 q 531 629 622 647 q 481 618 514 626 l 429 606 q 404 612 414 603 q 394 635 394 621 q 400 650 394 643 q 415 658 406 657 q 921 722 635 708 q 1000 725 974 725 l 1029 726 q 1065 710 1057 726 z "},"ｋ":{"ha":1250,"x_min":426,"x_max":881,"o":"m 868 726 q 881 703 881 718 q 875 686 881 694 q 860 675 869 678 q 674 580 788 653 q 510 451 560 507 q 501 436 501 443 q 508 425 501 432 q 525 408 515 418 q 628 349 558 378 q 757 314 699 321 l 790 308 l 799 308 l 813 308 q 825 307 822 308 q 838 298 833 306 q 843 281 843 290 q 833 258 843 267 q 808 251 825 251 q 778 256 807 251 q 656 289 725 264 q 538 342 586 314 q 482 381 501 363 q 475 247 475 301 q 503 53 475 128 q 525 11 513 25 q 541 -1 529 6 q 557 -14 553 -7 q 561 -28 561 -22 q 549 -51 561 -43 q 522 -54 536 -60 q 460 14 478 -39 q 435 139 443 67 q 426 286 426 208 q 447 564 426 417 q 500 846 467 711 l 517 911 q 525 944 519 926 q 539 972 531 963 q 561 983 547 983 q 584 972 575 983 q 588 946 593 961 q 529 724 547 825 q 494 501 510 624 l 510 515 q 648 622 561 564 q 797 710 735 681 q 819 721 801 711 q 853 731 836 731 q 868 726 863 731 z "},"ｌ":{"ha":1250,"x_min":344,"x_max":953,"o":"m 910 244 q 925 249 918 249 q 945 240 938 249 q 953 221 953 232 q 938 196 953 207 q 885 170 914 181 q 811 146 857 160 q 631 110 736 124 q 439 96 525 96 q 374 99 413 96 q 344 122 346 101 l 344 126 q 349 141 344 135 q 358 150 353 147 q 365 151 363 151 q 368 153 367 151 q 413 294 393 178 q 443 539 432 410 q 454 744 454 675 q 453 789 454 775 l 451 803 q 460 824 451 815 q 479 832 468 832 q 500 824 492 832 q 507 804 508 817 l 503 717 q 497 597 501 690 q 482 422 492 503 q 457 251 471 319 q 422 146 443 183 l 469 144 q 682 164 585 144 q 788 189 750 178 q 883 231 819 199 q 895 237 889 233 q 910 244 901 240 z "},"ｍ":{"ha":1250,"x_min":279,"x_max":950,"o":"m 929 193 q 941 179 932 189 q 950 158 950 169 q 942 137 950 146 q 922 128 935 128 q 890 154 906 128 q 851 261 861 208 q 839 397 839 331 q 851 568 839 453 q 801 521 835 547 q 629 467 729 467 q 512 491 568 467 q 419 561 456 515 q 388 610 397 589 l 386 613 q 350 432 367 526 q 332 244 332 318 q 343 132 332 181 q 351 109 344 125 q 357 83 357 93 q 353 69 357 76 q 331 57 346 57 q 303 75 313 57 q 290 121 293 96 q 285 182 286 146 q 309 475 279 299 q 382 771 339 651 q 397 806 389 793 q 419 818 404 818 q 440 810 432 818 q 449 790 449 801 q 444 776 449 783 q 406 679 428 749 q 428 658 424 676 q 501 553 443 590 q 632 517 558 517 q 720 531 678 517 q 793 572 763 544 q 842 635 826 601 q 867 721 857 669 q 876 765 872 751 q 888 783 881 776 q 904 789 896 790 q 922 758 922 785 q 918 718 922 756 q 903 618 907 651 q 888 426 888 501 q 890 361 888 406 q 902 259 894 299 q 929 193 910 219 z "},"ｎ":{"ha":1250,"x_min":356,"x_max":918,"o":"m 889 760 q 912 749 906 760 q 918 719 918 738 q 875 474 918 621 q 778 263 835 335 q 717 228 750 228 q 690 233 701 228 q 647 260 667 243 q 606 304 628 278 q 474 528 522 403 q 450 594 454 576 q 422 440 442 557 q 408 257 408 357 q 413 189 408 217 q 415 171 413 185 q 421 147 417 157 q 432 131 425 136 q 451 104 451 117 q 447 90 451 99 q 425 78 440 78 q 396 89 410 78 q 365 141 371 108 q 358 228 360 174 q 381 481 356 332 q 442 744 406 629 q 458 782 449 767 q 483 797 467 797 q 502 789 494 797 q 510 769 510 781 q 506 756 510 763 q 469 674 488 731 q 489 667 481 674 q 497 647 497 660 q 519 545 499 597 q 575 432 540 493 q 638 339 604 379 q 715 275 689 275 q 765 325 738 275 q 818 447 793 375 q 863 721 863 571 q 889 760 863 760 z "},"ｏ":{"ha":1250,"x_min":329,"x_max":915,"o":"m 710 733 q 859 665 803 719 q 915 529 915 611 q 914 503 915 511 q 838 317 903 408 q 668 164 772 226 l 644 149 q 643 138 644 142 q 610 117 638 117 q 551 129 593 117 q 390 240 450 157 q 329 429 329 324 l 331 454 q 385 599 336 535 q 510 699 435 663 q 665 736 585 736 q 710 733 694 736 m 610 196 q 734 274 675 218 q 830 398 793 329 q 867 528 867 467 q 863 567 867 549 q 785 659 849 628 q 651 690 722 690 q 515 654 578 690 q 415 556 451 618 q 378 424 378 494 q 399 324 378 374 q 469 226 422 265 q 576 178 517 188 q 592 176 581 176 q 610 196 594 189 z "},"ｐ":{"ha":1250,"x_min":454,"x_max":875,"o":"m 867 804 q 875 758 875 783 q 819 617 875 694 q 686 478 764 540 q 604 422 646 446 q 563 400 590 414 q 522 388 535 386 q 506 397 510 390 l 504 307 q 507 192 504 261 q 519 68 510 108 q 516 39 525 50 q 493 28 507 28 q 475 35 483 28 q 464 54 467 42 q 454 208 454 93 q 460 504 454 285 q 467 644 461 554 q 478 782 472 735 q 479 800 478 785 q 488 825 481 815 q 508 836 494 836 q 524 831 517 836 q 535 819 532 826 q 615 869 569 851 q 707 888 660 888 q 803 867 758 888 q 867 804 849 847 m 606 481 q 760 615 690 535 q 831 756 831 694 q 826 781 831 768 q 784 826 817 810 q 710 842 751 842 q 648 832 678 842 q 599 806 618 822 q 583 790 593 800 q 564 775 572 779 q 554 772 558 772 q 532 785 542 772 q 516 667 519 731 q 511 593 513 604 q 506 432 508 546 l 515 440 q 535 449 522 444 q 557 456 549 453 q 606 481 583 467 z "},"ｑ":{"ha":1250,"x_min":292,"x_max":965,"o":"m 965 194 q 957 176 965 183 q 938 168 949 168 q 899 181 926 168 q 840 210 869 193 q 796 238 804 231 q 675 165 739 186 q 676 157 676 163 q 669 138 676 146 q 650 131 663 131 q 471 177 557 131 q 336 301 385 224 q 292 460 292 372 q 320 594 292 529 q 400 708 349 660 q 504 772 444 750 q 629 793 564 793 q 776 763 707 793 q 890 676 846 732 q 943 518 943 607 q 938 464 943 488 q 899 365 928 415 q 831 271 871 314 q 936 224 886 236 q 957 215 950 219 q 965 197 964 210 l 965 194 m 646 213 q 753 267 694 221 q 611 396 649 343 q 604 417 604 404 q 612 438 604 429 q 631 446 619 446 q 653 432 644 446 q 788 299 694 364 q 864 405 835 346 q 893 517 893 464 q 856 636 893 583 q 756 719 818 689 q 626 749 694 749 q 497 718 558 749 q 383 610 426 682 q 340 460 340 539 q 365 349 340 403 q 460 240 396 285 q 599 186 525 194 q 604 199 599 190 q 626 210 613 208 q 646 213 640 211 z "},"ｒ":{"ha":1250,"x_min":446,"x_max":913,"o":"m 890 382 q 913 347 913 365 q 904 329 913 338 q 888 322 897 322 q 864 332 878 322 q 822 361 836 354 q 725 390 778 385 q 596 396 672 396 q 569 394 589 396 q 531 392 549 392 q 507 393 515 392 l 519 274 q 535 164 528 207 q 558 79 543 121 q 572 58 561 74 q 582 32 582 42 q 574 13 582 19 q 557 6 567 6 q 533 15 543 6 q 503 76 514 36 q 481 189 492 115 q 449 593 457 344 q 446 713 446 665 q 453 869 446 789 q 454 886 453 872 q 463 910 456 900 q 482 919 471 919 q 504 909 494 919 q 511 885 514 899 l 507 869 q 625 890 558 890 q 771 858 708 890 q 833 760 833 825 q 832 742 833 749 q 781 622 824 678 q 675 507 739 565 q 581 440 633 469 q 681 439 626 442 q 801 422 750 433 q 890 382 851 411 m 529 465 q 567 483 550 472 q 614 515 583 493 q 739 643 689 571 q 786 754 786 711 q 742 818 786 794 q 636 842 697 842 q 556 829 593 842 q 536 820 549 826 q 515 813 524 814 q 500 815 504 813 q 497 733 497 788 q 496 693 496 719 q 503 457 494 592 q 517 462 508 460 q 529 465 525 464 z "},"ｓ":{"ha":1250,"x_min":288,"x_max":1004,"o":"m 1001 819 q 1004 807 1004 811 q 996 787 1004 796 q 975 779 988 778 l 949 781 q 750 742 867 781 q 533 651 631 701 q 423 585 475 621 q 347 518 371 549 q 339 497 339 506 q 351 472 339 488 q 439 408 379 439 q 579 346 514 368 q 743 300 644 324 q 769 287 758 297 q 781 263 781 276 q 778 250 781 258 q 593 149 760 203 q 485 118 531 129 l 431 107 q 397 103 401 103 q 385 104 389 103 q 364 128 364 108 q 373 149 364 140 q 394 160 382 158 q 514 176 456 163 q 626 212 563 189 q 718 254 690 235 l 617 282 q 468 341 549 304 q 346 411 388 378 q 288 497 288 457 q 344 588 288 539 q 489 683 401 636 q 719 783 593 739 q 940 833 846 826 l 967 835 q 1001 819 993 835 z "},"ｔ":{"ha":1250,"x_min":193,"x_max":992,"o":"m 907 738 q 937 737 911 738 q 977 726 963 736 q 988 696 992 715 q 961 678 983 678 q 943 681 957 678 q 893 686 919 686 l 851 685 q 721 669 793 681 q 719 660 721 663 q 711 594 711 635 q 714 522 711 569 q 731 308 718 422 q 767 108 744 194 q 760 80 771 92 q 736 68 750 68 q 714 82 722 68 q 701 140 704 97 q 692 247 697 200 q 685 326 688 294 q 664 603 664 525 q 665 642 664 631 q 667 658 665 653 q 479 613 597 644 l 450 604 q 292 557 332 569 l 265 549 q 221 536 235 538 q 201 544 208 536 q 193 565 193 553 q 199 581 193 574 q 214 592 204 589 q 369 632 279 607 q 603 692 503 668 q 801 729 703 715 q 907 738 871 738 z "},"ｕ":{"ha":1250,"x_min":419,"x_max":904,"o":"m 499 700 q 493 725 501 714 q 472 736 485 736 q 446 718 453 736 q 437 683 439 700 q 435 663 435 667 q 419 478 419 550 q 435 299 419 379 q 503 167 451 218 q 593 129 539 129 q 672 151 638 129 q 829 385 774 213 q 901 776 885 557 q 903 790 901 782 q 904 807 904 799 q 893 836 904 826 q 876 842 886 842 q 859 835 867 842 q 849 818 851 829 q 847 803 847 814 l 849 774 q 846 708 849 744 q 840 646 843 672 q 751 322 819 468 q 684 217 721 260 q 594 175 647 175 q 478 350 506 175 q 469 471 469 408 q 499 700 469 590 z "},"ｖ":{"ha":1250,"x_min":374,"x_max":918,"o":"m 892 775 q 910 766 903 775 q 918 746 918 757 q 915 733 918 738 q 803 509 868 646 q 688 250 739 372 q 643 113 653 167 q 642 102 643 110 q 636 89 640 94 q 615 79 628 79 q 597 85 606 79 q 588 100 589 90 q 603 165 586 118 q 493 312 543 196 q 411 567 443 428 q 379 749 394 640 q 376 765 378 753 q 374 788 374 778 q 386 817 374 808 q 401 821 393 821 q 422 813 414 821 q 431 793 431 806 q 465 547 431 689 q 546 311 499 406 q 578 256 563 278 q 615 219 593 233 l 621 217 q 722 457 658 315 q 840 707 786 599 q 851 731 843 713 q 869 763 858 750 q 892 775 879 775 z "},"ｗ":{"ha":1250,"x_min":301,"x_max":1000,"o":"m 369 757 q 365 781 374 769 q 343 793 357 793 q 318 780 324 793 q 310 742 313 767 q 301 569 301 685 q 311 334 301 446 q 340 157 321 222 q 394 83 363 83 q 421 96 407 83 q 451 138 439 113 q 474 188 464 163 q 488 224 483 213 l 543 374 q 594 515 567 440 q 617 569 604 539 q 638 617 629 599 q 651 631 643 631 q 663 619 658 631 q 683 556 672 597 q 700 481 693 515 q 729 351 717 394 q 752 286 739 313 q 789 260 765 260 q 824 277 811 260 q 853 325 838 294 q 892 419 872 365 l 904 454 q 960 619 940 557 q 992 744 979 681 q 997 763 993 750 q 1000 785 1000 776 q 992 806 1000 797 q 972 814 983 814 q 951 804 960 814 q 942 776 944 794 q 938 751 939 757 q 884 547 924 676 q 815 354 844 417 q 808 338 813 347 q 801 323 804 329 q 794 317 797 317 q 785 330 790 317 q 779 349 781 343 q 749 476 772 368 q 738 526 747 485 q 719 600 729 568 q 699 650 708 632 q 651 683 679 683 q 621 669 635 683 q 595 636 606 656 q 577 598 585 617 q 567 572 569 579 q 508 414 540 507 l 479 335 q 411 165 447 247 q 397 143 401 143 q 388 159 393 143 q 378 200 383 175 q 365 306 372 226 q 354 435 357 386 q 351 561 351 521 l 351 608 q 369 757 354 706 z "},"ｘ":{"ha":1250,"x_min":165,"x_max":997,"o":"m 971 753 q 991 744 985 753 q 997 725 997 736 q 982 700 997 708 q 889 628 944 681 q 785 517 846 586 l 838 346 q 865 267 851 300 q 897 210 878 235 q 911 195 901 206 q 921 172 921 185 q 913 152 921 160 q 893 144 904 144 q 881 147 889 144 q 849 180 861 157 q 828 224 836 203 q 818 251 821 244 q 746 472 792 318 q 642 339 689 406 q 610 295 635 329 q 567 230 586 261 q 538 171 549 199 q 532 150 535 164 q 523 135 531 140 q 506 129 515 129 q 481 144 489 129 q 476 160 476 151 q 495 211 476 183 q 517 244 514 239 q 728 529 590 368 l 728 532 q 672 675 701 618 q 639 726 656 710 q 594 743 622 743 q 574 740 588 743 q 453 676 525 731 q 325 558 381 621 q 267 491 288 515 q 232 438 247 467 q 224 422 231 435 q 210 403 218 410 q 193 396 203 396 q 173 404 181 396 q 165 424 165 413 q 169 439 165 433 q 356 657 244 557 q 480 754 422 718 q 599 790 538 790 q 683 750 651 790 q 740 644 715 710 q 765 572 747 629 q 901 710 839 653 q 939 742 924 731 q 971 753 954 753 z "},"ｙ":{"ha":1250,"x_min":376,"x_max":943,"o":"m 915 760 q 936 742 929 754 q 943 714 943 729 q 936 683 943 700 q 865 601 925 660 q 767 514 804 542 q 608 235 697 400 q 544 106 567 158 q 519 44 524 57 q 514 27 517 38 q 507 10 511 17 q 493 3 503 4 l 488 3 q 469 10 476 3 q 461 28 461 17 q 474 72 461 42 q 517 163 483 99 q 536 200 531 188 q 683 464 589 306 l 685 467 q 635 458 660 458 q 538 491 585 458 q 456 583 490 524 q 401 708 426 633 q 376 872 376 782 q 381 897 376 888 q 400 910 386 907 q 423 901 414 911 q 431 875 432 890 q 448 742 426 818 q 506 607 469 667 q 608 511 558 522 q 639 508 619 508 q 721 532 679 508 l 725 535 q 842 715 799 661 q 915 760 885 769 z "},"ｚ":{"ha":1250,"x_min":328,"x_max":972,"o":"m 972 139 q 959 117 972 124 q 925 108 946 111 q 867 106 907 106 q 608 136 758 106 q 490 164 546 149 q 417 193 435 179 q 399 219 399 206 q 436 249 399 246 q 503 278 474 251 q 568 353 532 306 q 625 435 599 396 q 571 472 625 435 q 432 549 493 524 q 400 581 400 561 q 413 603 400 594 q 439 606 426 613 q 649 475 519 565 q 689 544 672 511 q 733 632 708 581 q 767 714 757 683 q 526 722 683 710 q 367 740 438 729 q 338 749 349 743 q 328 771 328 756 q 339 792 328 785 q 364 796 350 799 q 547 769 433 779 q 758 760 661 760 q 774 761 767 760 q 790 763 782 763 q 815 751 808 763 q 818 738 818 746 q 799 666 818 714 q 754 569 781 618 q 686 447 718 501 q 788 368 739 410 q 813 347 796 361 q 841 321 829 333 q 858 294 853 308 q 861 281 861 290 q 853 263 861 269 q 835 256 846 256 q 808 271 818 256 q 777 310 796 292 q 729 354 758 329 l 663 408 q 617 340 629 358 q 489 214 546 243 q 611 185 554 196 q 853 156 750 156 q 910 161 883 156 q 926 165 915 163 q 946 167 938 167 q 972 139 972 167 z "},"一":{"ha":1250,"x_min":138,"x_max":1074,"o":"m 156 410 q 142 399 147 407 q 138 383 138 392 q 144 364 138 374 q 164 356 151 356 q 185 360 174 356 q 201 367 197 365 q 268 389 224 375 q 512 438 368 419 q 788 457 656 457 q 918 451 867 457 q 993 440 943 449 l 1038 433 q 1063 440 1053 432 q 1074 461 1074 449 q 1051 488 1074 482 q 970 501 1015 499 q 917 504 925 504 q 813 507 882 507 q 410 471 639 507 q 156 410 294 453 z "},"七":{"ha":1250,"x_min":43,"x_max":1197,"o":"m 1197 597 q 1185 578 1197 582 q 1153 574 1172 574 l 1061 575 q 947 567 1031 575 q 643 517 782 549 q 610 414 621 467 q 600 328 600 371 q 626 233 600 267 q 718 199 654 199 q 794 208 743 199 q 1013 301 903 232 q 1056 335 1033 314 q 1081 347 1071 347 q 1100 338 1090 347 q 1108 321 1108 329 q 1064 271 1108 299 q 889 185 982 219 q 719 151 796 151 q 632 168 669 151 q 549 332 549 207 q 581 500 549 411 q 493 475 536 490 q 189 347 358 432 q 121 304 169 338 q 98 287 114 300 q 69 274 82 274 q 50 283 57 274 q 43 303 43 292 q 54 326 43 319 q 506 524 226 438 q 601 550 538 533 l 601 551 q 663 658 628 613 q 689 674 674 674 q 706 668 699 674 q 717 646 717 661 q 710 626 717 633 q 669 567 688 600 q 978 617 817 600 q 1061 622 1006 619 q 1146 625 1119 625 q 1183 620 1168 625 q 1197 597 1197 615 z "},"三":{"ha":1250,"x_min":115,"x_max":1146,"o":"m 275 717 q 258 708 265 715 q 251 689 251 700 q 257 674 251 681 q 279 663 264 663 q 306 668 289 663 q 428 679 349 679 q 592 667 508 679 q 722 636 675 656 q 740 626 728 633 q 761 619 751 619 q 781 628 774 619 q 788 647 788 636 q 769 675 788 667 q 721 690 751 683 q 511 724 628 715 q 429 726 483 726 q 275 717 350 726 m 361 471 q 342 447 342 465 q 350 428 342 436 q 371 419 358 419 q 398 427 381 419 q 422 436 415 435 q 539 451 486 451 q 593 446 572 451 q 646 432 638 435 q 668 426 663 426 q 681 431 674 426 q 692 446 689 436 q 692 464 694 456 q 663 483 688 478 q 543 497 607 497 q 361 471 454 497 m 135 158 q 121 147 126 156 q 115 131 115 139 q 122 113 115 121 q 142 106 129 106 q 200 124 160 106 q 274 147 217 131 q 375 175 332 164 q 675 238 515 210 q 964 276 835 267 l 992 279 q 1025 282 1006 281 q 1071 283 1044 283 l 1106 282 q 1138 292 1128 282 q 1146 313 1146 300 q 1139 329 1146 322 q 1117 338 1131 338 l 1100 336 q 976 325 1017 328 l 910 319 q 557 264 768 306 q 135 158 329 219 z "},"九":{"ha":1250,"x_min":236,"x_max":1049,"o":"m 1040 190 q 1049 171 1049 181 q 1028 147 1049 157 q 918 132 988 132 q 771 146 840 132 q 644 188 697 161 q 592 268 592 214 q 604 317 592 293 q 642 376 617 340 q 666 410 647 385 q 695 460 685 435 q 706 508 706 485 q 648 583 706 565 q 514 599 590 601 q 418 288 457 442 q 374 32 379 133 q 378 -43 372 7 l 378 -46 q 371 -65 378 -57 q 353 -75 364 -74 l 349 -75 q 322 -58 328 -75 q 318 -10 318 -44 q 332 132 318 63 q 458 594 375 354 q 317 567 413 589 q 294 559 310 565 q 265 553 278 553 q 247 558 254 553 q 236 581 236 565 q 242 598 236 590 q 257 607 247 606 q 476 646 382 639 q 556 843 517 756 q 577 892 560 851 q 615 965 594 932 q 642 979 625 979 q 663 972 654 979 q 672 954 672 965 q 668 940 672 949 q 532 647 603 832 l 543 647 q 683 618 622 646 q 754 522 744 590 q 756 506 756 517 q 744 450 756 478 q 713 389 733 422 q 671 329 707 381 q 651 298 658 311 q 643 271 643 285 q 655 244 643 254 q 688 222 667 233 q 836 186 750 192 q 885 185 853 185 q 988 193 938 185 q 1003 197 993 194 q 1019 199 1013 199 q 1040 190 1033 199 z "},"二":{"ha":1250,"x_min":156,"x_max":1104,"o":"m 332 607 q 313 581 313 601 q 320 561 313 569 q 340 553 328 553 q 370 559 351 553 q 397 567 389 565 l 431 571 q 501 575 464 575 q 638 547 582 575 q 652 540 642 544 q 668 531 663 536 q 687 513 675 525 q 711 501 699 501 q 729 510 722 501 q 736 531 736 518 q 728 551 736 543 q 619 606 689 588 q 469 625 549 625 q 332 607 393 625 m 172 229 q 156 206 156 224 q 165 185 156 193 q 188 178 174 176 q 235 194 200 181 l 261 206 q 583 285 403 256 q 917 315 764 315 l 961 314 q 990 311 974 314 q 1014 307 1007 308 q 1072 301 1053 301 q 1095 310 1086 301 q 1104 329 1104 318 q 1094 350 1104 340 q 1070 360 1086 358 q 1038 363 1054 363 q 1014 363 1022 363 q 926 365 958 365 q 532 327 746 365 q 172 229 318 289 z "},"五":{"ha":1250,"x_min":185,"x_max":1160,"o":"m 1114 161 q 1147 147 1135 157 q 1154 124 1160 138 q 1138 108 1149 111 q 1115 107 1128 104 q 906 139 1021 132 q 707 144 821 144 q 239 86 413 144 q 214 82 228 82 q 185 107 185 82 q 219 133 185 128 q 444 194 343 157 q 444 217 444 204 q 444 247 443 231 q 472 463 454 365 l 433 450 q 411 437 425 447 q 389 424 397 426 l 378 421 q 358 429 367 421 q 349 449 349 438 q 360 468 349 460 q 482 514 413 503 q 513 630 496 579 q 554 724 529 681 l 571 749 q 426 733 500 746 q 300 701 353 721 q 276 696 286 696 q 254 708 261 696 q 250 722 250 715 q 256 740 250 732 q 271 749 261 747 q 615 794 468 794 q 697 790 658 794 q 741 776 726 788 q 750 753 756 765 q 719 736 743 736 q 688 740 713 736 q 674 743 682 742 q 654 744 665 744 q 636 742 647 744 q 603 713 619 736 q 564 626 583 683 q 535 518 547 578 q 553 519 542 519 q 569 518 564 518 q 687 487 635 514 q 739 400 739 460 q 642 250 739 326 q 535 186 588 210 l 618 190 q 713 192 650 192 q 1033 174 882 192 q 1114 161 1089 167 m 496 251 l 497 218 q 606 281 556 243 q 666 337 639 306 q 693 397 693 368 q 681 431 693 418 q 593 469 657 457 q 557 472 582 472 q 524 471 535 472 q 497 286 503 367 l 496 251 z "},"八":{"ha":1250,"x_min":135,"x_max":1129,"o":"m 624 669 q 601 683 614 683 q 585 676 592 683 q 578 657 578 669 q 595 616 578 638 q 615 590 613 594 q 755 428 672 508 q 929 286 838 347 q 1065 213 982 250 q 1103 200 1090 200 q 1122 208 1115 200 q 1129 225 1129 218 q 1122 243 1129 235 q 1101 256 1114 251 q 826 425 960 303 q 624 669 704 538 m 425 557 q 438 578 438 565 q 432 594 438 588 q 411 606 424 606 q 392 599 403 606 q 339 548 364 579 q 308 510 314 517 q 201 354 257 447 q 138 218 146 261 q 144 194 135 204 q 167 183 154 183 q 189 199 182 183 q 198 224 193 208 q 206 250 203 240 q 281 392 224 301 q 425 557 351 503 z "},"六":{"ha":1250,"x_min":288,"x_max":1011,"o":"m 604 856 q 601 881 610 871 q 578 892 592 892 q 554 878 563 892 q 546 856 550 869 q 538 832 542 842 q 473 724 510 772 q 383 628 436 676 q 356 607 381 625 q 331 589 339 596 q 318 578 328 586 q 308 560 308 571 q 316 542 308 549 q 333 536 324 536 q 367 549 347 536 q 396 567 386 561 q 732 661 568 661 q 806 654 775 661 q 821 651 811 653 q 839 649 831 649 q 865 675 865 649 q 796 710 865 706 q 744 711 779 711 q 682 708 703 711 q 481 661 568 694 q 604 856 557 740 m 631 497 q 640 519 640 506 q 633 538 640 531 q 615 546 626 546 q 594 538 604 546 q 574 520 583 529 q 563 508 565 511 q 438 354 497 443 q 332 168 379 265 q 290 51 301 106 q 296 27 288 38 q 317 17 304 17 q 337 26 331 17 q 346 50 343 36 q 351 71 349 64 q 475 318 388 188 q 631 497 547 426 m 735 390 q 721 393 731 393 q 700 386 708 393 q 692 367 692 379 q 699 349 692 356 q 721 336 706 343 q 786 296 765 311 q 915 183 849 250 q 949 139 929 169 q 964 117 960 121 q 986 107 974 107 q 1000 111 994 107 q 1011 132 1011 119 q 989 176 1011 149 q 897 269 950 224 q 814 338 851 310 q 735 390 776 367 z "},"十":{"ha":1250,"x_min":211,"x_max":1047,"o":"m 1047 497 q 1015 472 1047 472 q 968 475 999 472 l 928 476 q 619 461 781 476 l 619 439 q 642 115 615 275 q 645 101 643 110 q 647 86 647 92 q 639 67 647 75 q 619 60 631 60 q 604 65 615 60 q 595 82 597 71 q 592 97 593 93 q 585 149 588 114 l 582 181 q 576 244 579 200 q 574 375 574 331 q 575 456 574 429 q 472 442 511 447 q 340 418 383 428 q 254 393 326 415 q 239 390 243 390 q 217 401 224 390 q 211 418 211 408 q 216 435 211 428 q 231 444 221 443 q 578 503 389 482 l 578 514 l 579 547 q 584 626 581 563 q 596 744 588 689 q 602 789 597 757 q 610 829 607 821 q 619 843 613 838 q 636 849 626 849 q 657 839 649 849 q 663 817 665 829 q 622 507 629 674 q 942 525 793 525 q 963 526 950 525 q 993 528 976 528 q 1047 497 1047 528 z "},"四":{"ha":1250,"x_min":147,"x_max":1058,"o":"m 1058 364 q 1049 347 1058 351 q 1019 339 1039 342 l 982 333 l 969 319 q 863 231 924 271 q 800 193 840 215 q 782 183 797 192 q 754 174 767 174 q 743 176 749 174 q 728 199 728 185 q 735 215 728 206 q 760 231 742 224 q 783 240 778 238 q 904 324 849 272 q 790 304 860 317 l 749 296 q 561 253 624 271 q 475 226 503 236 q 458 221 471 225 q 436 217 446 217 q 414 235 415 217 l 414 239 q 421 253 414 249 q 443 265 428 258 q 526 304 489 283 q 515 339 524 310 q 501 463 504 388 l 500 492 l 499 517 q 500 545 499 533 q 501 565 501 557 q 529 614 501 614 q 549 608 543 614 q 556 586 556 601 q 554 568 556 575 q 547 481 547 526 q 556 393 547 438 l 563 351 q 568 331 565 338 q 703 456 658 394 q 744 520 732 496 q 765 589 756 544 q 790 608 769 608 q 812 599 803 608 q 818 578 821 590 q 768 464 807 524 q 675 356 729 404 q 619 313 639 325 q 856 361 761 347 q 956 379 922 372 q 1007 511 1007 444 q 997 565 1007 540 q 769 665 965 649 q 700 668 725 668 q 476 645 590 668 q 293 581 363 622 q 276 569 288 578 q 254 561 264 561 q 238 568 247 561 q 228 588 228 576 q 240 608 228 601 q 445 685 322 657 q 694 713 568 713 q 835 703 772 713 q 1043 575 1010 675 q 1053 510 1053 544 q 1021 390 1053 447 l 1029 390 q 1058 364 1058 390 m 275 304 q 295 244 281 283 q 321 181 310 204 q 331 162 324 175 q 338 138 338 149 q 329 119 338 128 q 310 110 319 110 q 291 122 299 110 q 278 147 283 135 q 272 161 274 158 q 262 190 267 172 q 253 219 257 208 q 181 474 213 333 q 166 537 178 485 q 150 636 154 589 q 149 651 150 643 q 147 668 147 660 q 160 696 147 689 q 172 699 164 699 q 192 691 183 699 q 200 671 200 683 q 206 589 200 631 q 225 489 213 547 q 240 430 231 463 q 253 382 249 397 q 275 304 261 357 z "},"あ":{"ha":1250,"x_min":189,"x_max":1014,"o":"m 857 544 q 973 464 932 519 q 1014 335 1014 408 q 1001 256 1014 296 q 937 130 985 200 q 840 11 889 60 q 818 1 831 1 q 797 10 806 1 q 788 31 788 19 q 792 44 788 39 q 817 67 797 54 q 850 93 838 81 q 933 210 903 146 q 964 333 964 274 q 953 400 964 372 q 893 476 936 446 q 788 517 850 507 q 744 519 760 519 q 665 510 700 519 q 617 408 635 440 q 558 308 599 374 l 574 274 q 613 211 585 250 q 618 196 618 204 q 610 178 618 185 q 596 174 603 174 q 575 183 582 174 q 535 254 560 207 l 529 265 q 436 157 471 181 q 383 138 410 138 q 356 147 365 138 q 326 222 326 172 q 338 285 326 251 q 465 461 371 386 q 440 597 449 539 q 429 708 431 656 q 240 619 326 688 q 215 610 225 610 q 201 614 207 610 q 189 632 189 622 q 246 686 189 654 q 389 742 297 715 q 429 751 401 746 q 439 808 431 772 q 450 824 442 818 q 468 831 458 831 q 489 823 481 831 q 497 803 497 815 q 490 782 497 793 q 479 758 483 769 q 550 763 517 763 q 593 761 579 763 q 608 753 601 760 q 614 739 614 747 q 606 722 614 728 q 588 717 599 715 q 533 719 551 719 q 471 715 501 719 q 469 685 469 706 q 500 489 469 622 l 500 486 q 633 546 558 525 l 649 590 q 653 644 656 610 l 653 647 q 659 667 653 658 q 675 676 665 675 l 681 676 q 708 656 704 676 l 708 649 q 701 610 708 635 q 685 557 694 583 q 749 563 714 563 q 857 544 803 563 m 579 428 q 611 494 596 454 q 565 475 596 489 q 511 446 536 463 q 539 360 525 399 l 579 428 m 401 183 q 508 311 438 201 q 475 418 489 360 q 379 272 407 360 q 371 215 371 247 q 374 193 371 204 q 388 179 378 179 q 401 183 393 179 z "},"ぁ":{"ha":1250,"x_min":311,"x_max":856,"o":"m 813 356 q 856 261 856 324 q 844 190 856 226 q 813 122 832 153 q 754 68 781 68 q 736 76 744 68 q 726 97 726 86 q 735 117 726 108 q 751 131 740 122 q 774 157 763 139 q 808 263 808 211 q 784 320 808 300 q 724 343 760 340 q 703 344 717 344 q 681 343 688 344 q 613 221 658 290 q 642 172 622 197 q 649 154 649 165 q 636 132 649 139 q 622 128 631 128 q 596 143 607 128 q 578 175 589 153 q 503 110 532 119 q 483 106 493 106 q 447 124 461 106 q 432 168 432 143 q 460 264 432 218 q 532 339 488 310 q 504 481 514 418 q 382 421 418 444 q 364 406 375 415 q 344 393 353 396 q 338 392 342 392 q 314 407 322 392 q 311 419 311 411 q 329 450 311 438 q 402 490 356 468 q 499 528 449 511 q 497 548 499 535 q 494 572 494 561 q 501 608 494 593 q 532 632 511 632 q 549 626 543 632 q 557 606 557 621 q 549 579 557 592 q 544 543 544 574 q 624 563 593 558 q 654 565 643 565 q 711 551 688 565 q 724 538 719 546 q 729 521 729 529 q 724 506 729 511 q 706 497 715 497 q 683 505 699 497 q 660 514 668 513 q 640 515 653 515 q 554 499 607 515 l 547 496 q 572 361 554 440 q 647 383 613 378 l 650 390 q 654 410 653 397 q 657 429 656 422 q 681 451 661 451 q 697 444 690 451 q 703 424 703 438 q 697 389 703 406 q 813 356 769 389 m 594 276 q 626 335 617 315 q 583 318 606 329 q 594 276 586 300 m 485 153 q 561 225 508 153 q 551 261 558 233 l 543 293 q 500 243 515 269 q 483 204 490 226 q 475 168 475 182 q 485 153 475 153 z "},"い":{"ha":1250,"x_min":353,"x_max":939,"o":"m 793 532 q 782 535 788 535 q 758 519 765 535 q 756 508 756 514 q 771 485 756 493 q 883 365 849 446 q 908 350 890 350 q 925 356 918 350 q 939 381 939 365 q 933 399 939 392 q 867 478 899 446 q 793 532 835 510 m 414 483 q 404 501 413 494 q 385 507 396 507 q 362 496 371 507 q 356 472 353 485 q 399 360 367 410 q 483 283 432 310 q 563 263 524 263 q 600 267 582 263 q 685 303 640 274 q 714 339 708 317 q 715 347 715 342 q 694 378 715 372 q 685 379 692 379 q 667 374 675 379 q 656 358 658 368 q 619 323 649 338 q 558 308 589 308 q 488 331 518 308 q 439 388 458 354 q 421 431 425 411 q 414 483 417 450 z "},"ぃ":{"ha":1250,"x_min":404,"x_max":899,"o":"m 803 417 q 790 419 794 419 q 774 415 782 419 q 764 400 767 410 q 763 390 763 397 q 792 367 763 375 q 838 324 818 358 q 843 306 840 319 q 850 288 846 293 q 869 279 858 279 q 894 292 886 279 q 899 307 899 296 q 894 326 899 317 q 858 379 883 356 q 803 417 833 403 m 451 360 q 442 376 450 369 q 426 382 435 382 q 411 375 418 382 q 404 357 404 368 q 411 309 404 340 q 425 258 418 278 q 464 207 439 225 q 521 189 489 189 q 568 199 544 189 q 647 244 594 208 q 672 279 672 264 q 664 297 672 289 q 646 306 656 306 q 621 294 635 306 q 603 278 607 282 q 517 238 554 238 q 474 267 486 238 q 457 324 461 296 q 451 360 453 353 z "},"う":{"ha":1250,"x_min":407,"x_max":935,"o":"m 553 885 q 526 864 533 885 l 525 857 q 547 832 525 839 q 605 790 578 824 q 644 724 632 757 q 652 713 646 718 q 665 708 658 708 q 683 717 676 708 q 686 738 690 726 q 629 827 674 775 q 558 885 585 879 l 553 885 m 431 472 q 440 471 433 471 q 456 476 449 471 q 467 489 464 481 q 513 539 475 513 q 617 588 556 569 q 738 606 678 606 q 808 597 775 606 q 888 508 888 578 q 869 433 888 476 q 714 212 828 335 q 492 22 600 89 q 447 -4 457 1 q 424 -15 436 -10 q 407 -42 407 -24 q 416 -64 407 -54 q 436 -74 425 -74 q 473 -55 443 -74 q 525 -21 503 -36 q 760 194 653 78 q 915 415 868 311 q 935 500 935 458 q 922 565 935 535 q 885 611 910 594 q 738 653 828 653 q 613 635 676 653 q 499 588 549 617 q 432 535 465 568 q 413 497 413 515 q 431 472 413 481 z "},"ぅ":{"ha":1250,"x_min":401,"x_max":804,"o":"m 542 617 q 522 604 529 615 q 519 581 514 593 q 531 568 524 571 q 547 565 538 565 q 564 564 557 565 q 599 551 582 560 q 622 529 615 543 q 627 514 625 522 q 633 501 629 506 q 644 493 636 496 q 653 492 647 492 q 672 500 664 492 q 681 521 681 508 q 661 564 681 542 q 608 605 642 590 q 542 617 574 619 m 401 331 q 410 308 401 317 q 432 299 419 299 q 458 332 458 299 q 490 361 458 342 q 535 382 510 374 q 657 404 597 404 q 730 395 700 404 q 760 356 760 386 q 703 249 760 314 q 586 146 647 185 q 506 104 576 139 q 492 82 492 99 q 499 62 492 71 q 519 53 507 53 q 549 63 531 53 q 596 93 567 74 q 747 231 685 151 q 804 356 804 303 q 794 396 804 378 q 731 440 779 425 q 653 451 694 451 q 537 435 596 451 q 440 392 478 419 q 401 331 401 364 z "},"え":{"ha":1250,"x_min":299,"x_max":1022,"o":"m 425 688 q 413 685 417 685 q 389 699 399 685 q 386 711 386 703 q 400 735 386 729 q 449 744 418 744 q 558 718 501 744 q 635 654 614 692 q 638 642 638 650 q 626 622 638 629 q 615 619 622 619 q 596 631 603 619 q 592 641 594 633 q 579 658 589 649 q 519 690 560 678 q 465 697 499 697 q 446 696 451 697 q 425 688 436 694 m 1010 308 q 1022 283 1022 300 q 1018 269 1022 276 q 968 231 1013 261 q 869 174 918 197 q 786 150 819 150 q 763 156 772 150 q 697 250 731 172 q 679 297 689 268 q 664 328 669 321 q 647 338 657 338 q 580 295 633 338 q 432 171 526 253 q 374 122 413 156 q 357 107 372 121 q 326 93 342 93 q 310 99 317 93 q 299 122 299 106 q 301 140 299 133 q 324 181 307 154 q 357 226 342 207 l 378 251 q 456 347 389 265 q 544 460 524 428 l 563 488 q 496 474 532 486 q 440 446 460 463 q 417 414 425 432 q 390 397 411 397 q 367 410 375 397 q 364 435 358 422 q 444 504 381 474 q 565 535 508 535 q 605 529 590 535 q 619 506 619 524 q 592 444 619 482 q 499 326 565 406 l 456 276 q 410 219 425 240 l 454 258 q 533 322 468 271 q 621 381 582 361 q 650 388 633 388 q 694 367 678 388 q 709 344 700 358 q 722 317 718 329 q 753 244 742 267 q 774 208 764 221 q 797 197 781 197 q 825 203 806 197 q 888 229 856 213 q 940 267 919 246 q 971 300 965 292 q 994 314 981 314 q 1010 308 1004 314 z "},"ぇ":{"ha":1250,"x_min":399,"x_max":903,"o":"m 533 579 q 517 574 525 579 q 508 563 510 569 q 507 554 507 560 q 513 540 507 544 q 533 529 519 535 q 579 488 567 514 q 586 463 582 481 q 597 439 590 446 q 614 432 607 432 q 628 437 621 432 q 638 450 635 442 q 639 460 639 453 q 626 499 639 474 q 544 576 601 549 l 533 579 m 436 331 q 431 314 431 324 q 439 294 431 303 q 460 285 447 285 q 476 291 469 285 q 486 305 482 297 q 492 315 490 313 q 528 350 504 338 q 579 363 553 363 q 476 225 556 325 q 415 144 432 171 q 401 103 399 118 q 419 83 406 83 q 450 98 432 83 q 483 128 468 113 q 504 149 499 143 q 556 180 526 167 q 608 193 585 193 q 636 183 628 193 q 646 153 643 176 q 656 118 646 129 q 710 97 671 97 q 808 121 750 97 q 894 179 872 147 q 903 203 903 193 q 894 219 903 214 q 876 226 888 226 q 857 219 868 226 q 840 203 850 215 q 825 188 831 192 q 779 163 804 174 q 711 142 726 142 q 686 168 692 142 q 639 229 676 217 q 604 235 624 235 q 572 231 588 235 q 514 204 544 224 q 613 331 588 294 q 631 378 631 358 q 594 407 631 401 q 575 408 588 408 q 497 387 535 408 q 436 331 460 365 z "},"お":{"ha":1250,"x_min":181,"x_max":1099,"o":"m 1082 796 q 1099 771 1099 786 q 1092 751 1099 760 q 1075 743 1086 743 q 1056 749 1065 743 q 999 826 1028 764 q 969 928 969 889 q 977 951 969 942 q 996 960 985 960 q 1015 952 1007 960 q 1022 933 1022 944 q 1039 854 1022 893 q 1058 819 1046 836 q 1082 796 1071 801 m 701 535 q 785 449 758 513 q 811 311 811 386 q 771 128 811 235 q 676 -58 731 22 q 668 -72 674 -62 q 658 -85 663 -81 q 635 -97 646 -97 q 619 -92 625 -97 q 606 -69 606 -82 q 614 -50 606 -58 l 639 -19 q 706 93 672 18 q 754 231 740 168 q 767 331 767 290 q 700 486 767 439 q 633 504 676 504 q 543 486 594 504 q 464 443 506 472 q 415 190 450 282 q 378 135 403 158 q 328 113 354 113 q 301 119 315 113 q 275 185 275 133 q 286 254 275 218 q 340 376 311 331 q 429 472 368 421 q 440 592 435 511 l 444 653 l 449 703 q 289 625 361 667 q 260 601 279 619 q 235 572 240 583 q 210 558 229 558 q 194 563 200 558 q 181 588 181 571 q 185 603 181 597 q 265 661 190 613 q 454 753 349 713 l 461 808 q 475 836 464 825 q 501 847 486 847 q 524 840 510 847 q 625 776 585 806 q 632 760 632 769 q 615 735 632 742 q 607 733 613 733 q 594 735 600 733 q 583 736 588 736 q 507 722 557 736 l 489 717 l 485 671 l 478 589 q 471 503 472 535 q 621 550 544 550 q 701 535 660 550 m 503 811 q 490 767 496 804 q 535 779 521 776 l 547 782 q 533 798 542 788 q 516 813 524 808 q 503 811 508 817 m 393 272 q 419 401 408 328 q 376 344 393 374 q 334 260 354 310 q 314 182 314 210 q 331 160 314 160 q 393 272 364 160 z "},"ぉ":{"ha":1250,"x_min":369,"x_max":844,"o":"m 838 554 q 844 526 844 533 q 836 507 844 515 q 822 501 831 501 q 806 508 814 501 q 797 524 799 514 q 774 572 790 550 q 733 608 757 594 q 719 616 729 611 q 703 627 708 621 q 697 642 697 633 q 706 662 697 654 q 725 669 714 669 q 740 665 733 669 q 798 616 771 646 q 838 554 825 586 m 736 335 q 781 282 767 315 q 796 210 796 249 q 786 146 796 181 q 740 65 768 86 q 722 58 731 58 q 702 67 711 58 q 693 86 693 75 q 707 112 693 99 q 724 131 721 125 q 746 217 746 169 q 733 272 746 251 q 694 303 722 293 q 632 314 667 314 q 558 303 592 314 q 561 218 561 236 q 564 161 564 174 q 560 117 564 138 q 547 95 557 103 q 522 88 536 88 q 493 97 504 88 q 456 149 469 117 q 442 211 442 181 q 463 280 442 249 q 518 332 483 311 q 525 414 519 357 q 461 396 493 407 q 418 376 446 390 q 396 369 407 369 q 383 372 388 369 q 369 393 369 381 q 389 418 369 410 q 531 457 453 446 q 574 569 542 533 q 601 586 590 586 q 615 582 608 586 q 626 561 626 575 q 611 533 626 542 q 574 461 589 521 q 583 463 576 463 l 603 464 q 649 449 633 464 q 656 433 656 442 q 653 422 656 428 q 640 410 649 414 q 621 410 631 407 q 565 417 586 417 q 558 349 561 396 q 636 358 597 358 q 736 335 699 358 m 485 217 q 497 167 485 192 q 524 133 508 143 q 517 208 519 165 q 515 268 515 250 l 515 278 q 485 217 485 250 z "},"か":{"ha":1250,"x_min":171,"x_max":1097,"o":"m 1096 268 q 1097 258 1097 265 q 1078 231 1097 238 q 1068 229 1075 229 q 1051 234 1058 229 q 1040 247 1043 239 l 1021 297 q 977 411 994 369 q 939 488 960 453 l 911 536 q 857 628 869 611 q 794 694 821 679 q 781 719 781 703 q 789 740 781 732 q 810 749 797 749 q 824 744 817 749 q 857 704 832 739 q 919 608 881 671 q 979 510 958 546 q 1096 268 1058 371 m 560 557 q 616 510 596 540 q 636 438 636 479 q 635 413 636 421 q 600 344 631 378 q 526 290 569 311 q 446 269 483 269 q 343 365 360 269 l 317 325 l 299 296 q 269 249 293 288 q 238 192 244 211 q 231 174 236 188 q 225 150 225 160 q 217 127 225 136 q 197 118 210 118 q 171 150 171 118 q 222 261 171 176 q 311 394 247 301 l 340 438 l 346 446 q 361 507 354 488 q 333 486 347 500 q 310 475 326 475 q 293 479 299 475 q 282 500 282 486 q 294 525 282 515 q 385 568 333 557 l 388 574 q 454 667 418 636 q 492 681 469 681 q 514 675 506 681 q 522 660 522 669 q 493 588 522 636 q 486 575 488 579 q 560 557 529 571 m 585 401 q 592 439 592 422 q 581 482 592 467 q 531 518 564 506 q 461 531 499 531 l 457 531 l 435 499 q 379 415 392 436 l 379 403 q 383 368 379 385 q 404 329 390 346 q 436 311 418 313 q 522 336 475 307 q 585 401 569 365 z "},"が":{"ha":1250,"x_min":168,"x_max":1165,"o":"m 1140 763 q 1158 753 1150 763 q 1165 733 1165 744 q 1156 712 1165 718 q 1132 707 1146 706 q 1083 733 1115 708 q 1028 789 1050 757 q 983 904 983 851 q 990 925 983 917 q 1008 935 996 933 l 1013 935 q 1029 927 1022 935 q 1038 910 1036 919 q 1071 817 1043 853 q 1108 777 1089 793 q 1139 763 1128 761 l 1140 763 m 906 726 q 885 781 894 750 q 874 836 875 811 l 874 839 q 881 860 874 851 q 900 869 889 868 l 903 869 q 920 862 913 869 q 928 842 928 854 l 926 818 q 929 792 926 814 q 944 747 933 769 q 973 711 954 726 q 1008 696 992 696 q 1031 687 1022 696 q 1039 663 1039 678 q 1032 643 1039 651 q 1013 635 1025 635 q 994 639 1006 635 q 939 676 967 649 q 906 726 919 696 m 431 510 q 508 449 483 492 q 525 378 525 422 q 513 315 525 344 q 463 258 497 281 q 394 236 429 236 q 338 258 360 236 q 299 321 313 283 q 251 244 271 282 q 225 182 231 206 q 222 158 222 165 q 224 144 222 149 l 225 138 q 218 122 225 129 q 201 113 211 115 l 196 113 q 178 119 186 113 q 169 135 171 125 q 168 153 168 140 q 189 233 168 190 q 246 331 210 275 q 288 389 264 360 q 293 449 288 421 q 264 414 272 433 q 239 397 257 397 q 217 406 225 397 q 210 425 210 414 q 238 469 210 447 q 307 506 267 490 q 328 557 317 536 q 367 622 349 600 q 404 650 385 644 q 418 653 413 653 q 451 631 436 653 q 458 599 458 619 q 449 549 458 578 q 431 510 439 526 m 942 418 q 1006 316 968 379 q 1057 225 1043 253 q 1068 188 1068 200 q 1056 165 1068 172 q 1043 161 1050 161 q 1019 176 1028 161 q 975 258 1007 199 q 901 392 938 335 q 841 481 867 446 q 789 538 815 515 q 764 556 772 551 q 750 579 750 561 q 758 601 750 594 q 778 608 767 608 q 793 604 788 608 q 852 544 817 592 q 942 418 888 497 m 390 578 q 360 518 368 539 l 364 518 l 381 518 q 410 575 403 553 q 411 604 415 594 q 390 578 404 600 m 396 279 q 458 311 432 279 q 483 382 483 343 q 471 426 483 408 q 407 469 447 461 q 342 381 385 433 l 333 369 l 333 364 q 355 306 338 333 q 396 279 372 279 m 343 468 l 340 461 q 346 469 343 464 l 343 468 z "},"き":{"ha":1250,"x_min":279,"x_max":847,"o":"m 799 179 q 827 175 815 182 q 839 153 839 168 q 793 119 839 119 l 772 121 q 593 149 654 129 q 522 174 547 163 q 482 210 496 186 q 478 224 478 217 q 488 242 478 235 q 503 246 494 246 q 518 240 513 246 q 529 236 522 236 q 574 269 549 236 q 607 340 600 303 q 611 381 611 361 q 597 476 611 424 q 419 431 456 444 q 391 416 411 426 q 358 406 371 406 q 339 417 344 406 q 335 431 335 424 q 354 457 335 449 q 422 485 394 475 q 496 506 450 494 l 585 524 q 582 538 585 529 q 561 610 581 544 l 553 639 q 439 600 496 624 q 410 588 431 596 q 375 571 389 579 q 344 549 357 561 q 325 532 332 538 q 307 525 315 525 q 288 534 296 525 q 279 554 279 543 q 290 578 279 568 q 369 624 315 600 q 478 665 444 656 q 497 671 488 668 q 514 676 506 674 l 543 685 q 536 732 538 715 l 536 743 q 564 776 536 776 q 585 766 578 776 q 592 740 593 756 l 592 728 q 593 696 592 707 q 719 711 658 711 q 760 703 743 711 q 776 681 776 696 q 767 660 776 667 q 744 653 758 653 q 732 654 736 653 q 689 660 704 660 q 665 658 674 660 q 600 650 633 656 q 626 532 615 575 q 772 567 747 557 q 800 581 782 571 q 819 586 811 586 q 839 578 831 586 q 847 557 847 571 q 792 518 847 531 l 636 486 q 651 365 651 413 q 632 269 651 315 q 569 207 613 222 q 621 190 617 192 q 738 174 685 174 q 799 179 771 174 z "},"ぎ":{"ha":1250,"x_min":289,"x_max":1142,"o":"m 1142 811 q 1132 792 1142 799 q 1111 785 1122 785 q 1057 800 1092 785 q 994 838 1022 815 q 922 938 939 882 q 921 947 921 940 q 938 972 921 967 q 947 974 940 974 q 963 969 956 974 q 974 956 971 964 q 1028 875 993 901 q 1074 847 1051 857 q 1108 840 1097 838 l 1114 842 q 1131 834 1124 842 q 1142 815 1139 826 l 1142 811 m 956 738 q 971 728 965 736 q 976 713 976 721 q 967 691 976 699 q 947 683 958 683 q 932 688 938 683 q 865 763 892 707 q 838 867 838 818 q 846 887 838 878 q 865 896 854 896 q 887 887 878 896 q 894 865 896 878 q 893 844 893 858 q 906 789 893 810 q 956 738 929 744 m 786 197 q 804 201 794 201 q 826 192 818 201 q 832 176 832 183 q 818 151 832 161 q 763 132 801 139 q 682 125 725 125 q 592 135 629 125 q 503 175 549 144 q 457 231 457 206 q 465 249 457 243 q 485 253 474 256 q 515 249 501 249 q 563 269 543 249 q 593 318 583 289 q 604 394 604 351 q 599 468 604 421 l 594 492 q 471 449 535 474 q 382 403 443 438 q 363 397 371 397 q 342 408 349 397 q 336 425 336 417 q 350 449 336 440 q 425 486 386 471 q 528 522 464 501 q 586 540 547 529 q 567 613 574 592 q 372 542 443 583 q 348 522 357 533 q 333 507 339 511 q 318 501 326 501 q 294 514 301 501 q 289 532 289 525 q 300 554 289 547 q 510 650 375 613 l 550 661 l 540 685 q 514 728 528 713 q 503 739 511 731 q 496 757 496 747 q 506 777 496 768 q 526 786 515 786 q 544 775 539 786 l 563 743 q 588 700 578 721 l 599 671 q 676 678 643 678 q 725 674 701 678 q 751 663 742 671 q 761 643 761 654 q 756 625 761 632 q 735 615 747 615 q 713 621 726 615 q 658 626 694 629 q 614 621 628 624 l 618 606 q 631 553 626 578 q 753 572 708 572 q 790 563 778 572 q 803 542 803 554 q 785 517 803 525 q 769 514 781 514 q 747 516 760 514 q 729 517 735 518 q 639 503 681 513 l 647 417 q 649 390 649 408 q 618 271 649 321 q 581 230 606 249 q 531 206 557 211 q 593 182 553 192 q 682 172 644 172 q 786 197 736 172 z "},"く":{"ha":1250,"x_min":313,"x_max":833,"o":"m 701 600 q 715 626 715 614 q 706 646 715 636 q 690 651 700 651 q 656 636 675 651 q 550 560 615 604 q 443 492 485 515 q 418 478 435 486 q 363 447 376 453 q 340 443 350 440 l 335 444 q 315 431 319 444 l 313 418 q 318 401 313 413 q 410 346 333 379 l 464 322 q 647 244 575 272 l 682 231 q 718 217 690 228 q 769 200 746 206 q 804 194 797 194 q 833 221 833 194 q 800 250 833 244 q 733 267 779 253 q 555 335 678 283 q 388 411 432 386 q 535 492 447 435 l 578 518 q 637 555 586 524 q 701 600 688 586 z "},"ぐ":{"ha":1250,"x_min":332,"x_max":1171,"o":"m 1043 960 q 1033 978 1042 971 q 1013 986 1024 986 q 992 976 1000 986 q 985 954 983 967 q 1000 888 989 914 q 1031 831 1007 868 q 1076 778 1046 807 q 1131 740 1106 749 q 1139 739 1133 739 q 1160 745 1150 739 q 1171 763 1169 751 l 1171 767 q 1164 787 1171 778 q 1147 796 1157 796 q 1093 831 1122 796 q 1050 906 1064 865 q 1044 936 1044 919 q 1043 960 1043 953 m 917 826 q 909 844 917 836 q 890 854 901 853 l 888 854 q 868 845 876 854 q 860 825 860 836 q 887 721 860 776 q 954 646 914 665 q 969 643 958 643 q 997 663 992 643 q 999 671 999 665 q 993 687 999 679 q 978 696 988 694 q 928 747 951 703 q 915 803 915 768 q 917 824 915 817 l 917 826 m 710 529 q 724 537 718 529 q 729 556 729 544 q 721 576 729 568 q 699 585 713 585 q 555 524 674 585 q 375 424 436 463 q 340 398 349 406 q 332 382 332 390 q 342 362 332 369 q 379 342 351 354 q 551 262 457 307 q 669 201 644 217 q 704 171 681 194 q 726 161 714 161 q 743 168 736 161 q 753 189 753 178 q 744 208 753 200 q 706 241 725 228 q 653 271 686 254 q 561 315 592 301 l 515 335 q 424 375 449 363 l 404 385 l 440 407 l 528 454 q 645 511 603 493 q 710 529 688 529 z "},"け":{"ha":1250,"x_min":342,"x_max":926,"o":"m 925 721 q 926 711 926 718 q 899 681 926 686 q 822 669 888 678 q 703 653 758 663 q 710 567 704 629 l 715 496 q 722 333 722 403 q 700 124 722 218 q 622 -42 678 31 q 579 -72 599 -72 q 558 -62 568 -72 q 553 -46 553 -57 q 561 -24 553 -32 q 576 -13 564 -21 q 600 13 588 -6 q 653 129 633 60 q 675 269 672 199 l 676 315 q 660 646 676 418 q 540 611 576 629 q 524 607 532 607 q 501 621 510 607 q 499 632 499 629 q 518 661 499 651 q 656 693 542 672 l 647 792 q 644 815 646 803 q 642 835 642 826 q 651 857 642 847 q 672 867 660 867 q 691 858 683 867 q 699 835 699 850 q 697 819 699 829 q 696 793 696 808 q 699 700 696 769 q 846 724 814 717 q 888 736 876 732 l 899 739 q 916 734 908 739 q 925 721 924 729 m 492 375 q 507 379 500 379 q 532 364 525 379 q 535 351 535 356 q 517 324 535 332 q 486 318 506 318 q 443 325 465 318 q 407 344 421 332 q 358 424 374 372 q 342 542 342 476 q 354 663 342 603 q 374 721 363 700 q 390 736 379 732 q 411 736 400 740 q 429 711 429 729 q 425 696 429 703 q 401 650 407 665 q 386 531 386 607 q 392 464 386 503 q 414 405 397 432 q 453 371 431 378 q 465 369 456 369 q 492 375 482 369 z "},"げ":{"ha":1250,"x_min":279,"x_max":1118,"o":"m 1118 817 q 1111 801 1118 807 q 1093 792 1104 794 q 1081 790 1089 790 q 1013 813 1051 790 q 942 872 974 836 q 899 940 910 907 q 897 950 897 943 q 914 974 897 968 q 924 975 917 975 q 938 970 931 975 q 947 957 944 965 q 1001 879 967 907 q 1049 853 1024 863 q 1085 846 1074 843 l 1090 847 q 1108 840 1100 847 q 1118 821 1115 832 l 1118 817 m 938 749 q 972 728 967 749 l 974 721 q 966 703 974 711 q 949 693 958 694 q 904 702 922 692 q 864 739 886 713 q 831 799 843 765 q 819 864 819 833 l 819 865 q 827 885 819 876 q 846 893 835 893 q 865 885 857 893 q 874 867 874 878 q 890 786 874 819 q 910 758 900 767 q 938 749 921 749 m 828 656 q 850 649 842 653 q 863 636 858 646 q 865 624 865 628 q 859 607 865 614 q 843 597 853 600 l 838 597 q 817 601 829 597 q 776 606 800 606 q 679 594 732 606 q 675 471 675 554 q 674 422 674 454 q 666 199 671 282 q 643 31 661 115 q 631 -15 639 14 q 614 -58 622 -43 q 575 -92 594 -92 q 558 -85 568 -92 q 550 -68 550 -79 q 564 -32 550 -57 q 592 35 583 -3 q 621 234 615 132 q 626 488 626 336 l 626 519 q 626 546 626 531 q 626 582 625 561 q 615 579 624 582 q 515 526 550 561 q 485 508 497 508 q 465 517 472 508 q 458 538 458 525 q 465 556 458 549 q 535 603 494 585 q 628 635 575 621 q 631 674 628 663 q 660 703 636 703 q 683 694 674 703 q 689 665 693 685 l 685 647 q 785 660 742 660 q 828 656 807 660 m 371 336 q 390 328 381 336 q 399 310 399 319 q 368 281 399 281 q 320 299 339 281 q 293 346 301 318 q 279 450 279 388 q 283 528 279 490 q 297 615 290 603 q 322 633 307 633 q 344 625 336 633 q 353 603 353 617 q 349 585 353 596 q 326 443 326 528 q 328 408 326 419 q 356 336 332 343 q 365 335 360 335 q 371 336 369 336 z "},"こ":{"ha":1250,"x_min":426,"x_max":785,"o":"m 533 733 q 521 736 525 736 q 496 719 503 736 q 493 708 493 711 q 498 692 493 700 q 511 682 503 685 q 617 611 564 663 q 669 517 669 560 q 678 497 669 504 q 699 489 686 489 q 718 497 710 489 q 726 519 726 506 q 696 596 726 560 q 567 710 651 647 q 533 733 536 732 m 471 235 q 456 238 465 238 q 436 232 444 238 q 426 215 428 226 l 426 210 q 450 181 426 189 q 488 170 464 176 q 525 161 511 164 q 717 139 665 139 q 751 142 732 139 q 776 156 768 144 q 781 178 785 167 q 771 192 776 188 q 754 196 765 196 q 711 192 740 196 q 679 190 701 190 q 536 210 603 190 q 471 235 508 217 z "},"ご":{"ha":1250,"x_min":390,"x_max":1040,"o":"m 1015 746 q 1033 738 1026 746 q 1040 719 1040 731 q 1031 697 1040 704 q 1007 692 1021 690 q 960 719 992 693 q 908 776 929 744 q 880 831 892 800 q 868 890 868 863 q 875 910 868 901 q 893 919 882 918 l 896 919 q 915 912 907 919 q 922 893 922 904 q 950 803 922 842 q 986 762 968 778 q 1015 746 1004 746 m 872 671 q 910 653 903 671 q 903 628 915 639 q 872 617 892 617 q 822 637 840 617 q 785 697 804 657 q 766 747 774 719 q 758 794 758 775 q 765 820 758 810 q 786 832 772 831 l 789 832 q 808 822 801 832 q 813 801 815 813 q 818 753 808 786 q 836 701 828 721 q 872 671 850 671 m 669 208 q 692 200 685 208 q 699 179 699 192 q 680 156 699 164 q 631 147 661 147 q 446 203 547 147 q 424 215 442 206 q 396 235 406 224 q 390 250 390 242 q 393 263 390 257 q 405 272 397 269 q 421 271 413 275 q 437 262 426 268 q 457 256 447 256 q 468 257 464 256 q 532 303 504 269 q 585 383 560 338 q 601 422 593 400 q 607 457 608 443 q 593 476 606 465 q 578 490 581 488 l 540 522 q 443 610 464 586 q 431 642 431 625 q 443 665 431 657 q 460 669 451 669 q 485 654 478 669 q 531 591 503 618 q 600 535 560 564 q 656 456 656 496 q 643 401 656 432 q 615 344 631 369 q 507 226 567 263 q 563 208 542 214 q 607 201 583 201 q 661 207 625 201 l 669 208 z "},"さ":{"ha":1250,"x_min":161,"x_max":1038,"o":"m 1011 696 q 1030 687 1022 694 q 1038 668 1038 679 q 1029 647 1038 654 q 1006 639 1021 639 q 981 641 993 639 q 956 643 968 643 q 596 596 794 643 l 608 568 q 642 486 635 514 q 647 442 647 468 q 613 333 647 383 q 519 264 578 283 q 578 231 536 253 q 653 201 604 218 q 731 179 703 185 q 839 165 803 165 q 857 157 849 165 q 865 138 865 149 q 856 117 865 125 q 833 108 847 108 q 767 119 803 108 q 719 132 732 129 q 574 182 651 149 q 471 247 497 215 q 461 275 461 258 q 476 297 461 293 q 519 314 493 300 q 561 343 546 328 q 592 385 582 364 q 603 439 603 407 q 592 492 603 464 q 566 547 581 521 q 547 583 551 574 q 376 536 446 558 q 250 486 306 514 q 203 461 213 468 q 189 457 196 457 q 165 471 172 457 q 161 483 161 478 q 178 511 161 494 q 203 528 189 522 q 244 542 218 533 q 278 551 269 549 q 394 589 310 563 q 525 626 479 615 q 504 681 508 663 l 503 688 q 509 705 503 697 q 525 715 515 713 l 532 717 q 551 710 543 717 q 560 694 560 704 q 574 643 560 676 l 575 639 q 900 692 771 686 q 953 694 911 692 q 1011 696 996 697 z "},"ざ":{"ha":1250,"x_min":197,"x_max":1193,"o":"m 1193 796 q 1185 778 1193 785 q 1163 771 1176 771 q 1078 809 1124 771 q 1011 890 1033 847 q 998 914 1008 894 q 986 951 988 933 l 986 954 q 992 974 986 965 q 1007 985 997 982 l 1014 986 q 1031 980 1024 986 q 1040 964 1039 974 q 1082 872 1046 908 q 1125 838 1103 851 q 1164 826 1147 825 l 1165 826 q 1185 817 1176 826 q 1193 796 1193 807 m 969 796 q 987 787 979 794 q 994 768 994 779 q 985 750 994 757 q 964 743 976 743 q 947 746 958 743 q 883 790 910 761 q 857 858 857 819 q 863 901 857 882 q 892 924 871 924 q 912 916 903 924 q 921 896 921 908 q 917 879 921 888 q 907 847 907 860 q 914 826 907 835 q 939 806 924 814 q 969 796 954 797 m 856 611 q 921 617 894 617 q 971 590 971 617 q 938 558 971 558 q 920 560 929 558 q 904 561 911 561 q 843 560 885 563 q 603 529 715 550 q 614 426 614 486 q 597 315 614 371 q 542 228 579 258 l 579 211 q 654 178 622 189 q 750 154 710 158 q 790 119 797 151 q 758 94 785 94 q 703 108 744 94 q 589 150 629 133 q 488 197 549 167 l 475 204 q 436 228 442 210 q 435 236 435 231 q 442 252 435 246 q 458 258 449 258 q 482 251 465 258 q 520 273 504 254 q 544 315 536 292 q 567 439 567 374 q 556 519 567 478 q 301 442 397 486 q 272 425 289 436 q 239 407 254 414 q 229 406 236 406 q 201 421 210 406 q 197 432 197 428 q 214 457 197 443 q 538 564 283 515 q 465 642 511 614 q 451 650 461 644 q 437 662 442 656 q 432 676 432 668 q 439 697 432 689 q 457 704 446 704 q 474 700 465 704 q 589 574 557 654 q 856 611 708 594 z "},"し":{"ha":1250,"x_min":389,"x_max":931,"o":"m 475 679 q 454 710 475 704 q 447 711 451 711 q 428 706 438 711 q 418 690 419 700 q 407 638 413 669 q 399 588 401 607 q 389 421 389 478 q 401 289 389 354 q 438 186 413 224 q 525 139 468 139 q 546 140 539 139 q 632 176 578 144 q 726 238 686 207 q 839 331 776 275 q 925 419 901 388 q 931 438 931 426 q 918 463 931 453 q 904 468 907 468 q 888 462 896 468 q 869 442 881 456 q 793 363 846 413 q 696 279 740 314 q 601 215 650 243 q 524 188 553 188 q 497 193 506 188 q 478 214 488 199 q 448 308 457 250 q 439 422 439 365 q 444 522 439 467 q 457 611 450 576 q 464 635 458 618 q 475 674 469 653 l 475 679 z "},"じ":{"ha":1250,"x_min":331,"x_max":1050,"o":"m 958 847 q 949 870 958 861 q 929 879 940 879 q 901 843 901 879 q 903 826 901 832 q 983 679 925 731 q 1022 660 1007 660 q 1043 669 1035 660 q 1050 688 1050 679 q 1036 708 1050 703 q 1025 713 1032 711 q 1014 718 1018 715 q 973 773 988 739 q 958 847 958 807 m 833 778 q 824 797 833 789 q 807 806 815 806 q 783 776 783 806 q 786 757 783 771 q 813 672 800 706 q 847 617 826 638 q 883 600 864 600 q 903 607 896 600 q 913 629 913 617 q 903 649 913 640 q 884 661 894 656 q 868 672 874 667 q 853 693 863 678 q 832 760 832 726 l 833 774 l 833 778 m 407 642 q 401 665 410 656 q 379 675 393 675 q 349 638 351 675 q 331 369 331 481 q 413 114 331 138 q 439 110 425 110 q 576 174 497 110 q 674 266 625 213 q 749 363 724 319 q 764 400 764 388 q 755 420 764 413 q 735 428 746 428 q 711 417 718 428 q 704 399 707 411 q 699 383 701 388 q 639 302 682 354 q 561 222 596 250 q 492 172 519 189 q 438 158 465 156 q 392 221 407 161 q 376 357 376 282 q 407 642 376 485 z "},"す":{"ha":1250,"x_min":251,"x_max":975,"o":"m 935 814 q 965 808 954 814 q 975 786 975 803 q 965 765 975 774 q 943 758 956 757 q 888 761 928 761 q 779 756 846 761 l 717 747 l 682 743 q 672 539 675 682 q 720 455 704 507 q 736 350 736 403 q 719 244 736 307 q 676 124 703 181 q 647 67 671 113 q 625 22 636 43 q 607 -15 614 0 q 599 -35 604 -21 q 593 -57 594 -49 q 581 -78 592 -71 q 558 -82 571 -85 q 538 -54 538 -76 q 560 6 538 -37 l 633 146 q 673 245 656 190 q 692 335 690 300 q 672 460 696 400 q 662 382 669 424 q 643 315 654 340 q 613 261 628 279 q 574 243 597 243 q 543 256 557 243 q 519 289 529 269 q 508 331 513 304 q 503 389 503 358 q 524 497 503 440 q 588 567 546 553 q 607 569 599 569 q 626 567 613 569 l 626 581 q 633 736 626 650 q 449 706 494 715 q 317 676 339 682 q 289 667 300 672 q 278 664 281 664 q 264 669 271 664 q 254 681 257 674 q 251 692 251 689 q 268 714 251 707 q 639 783 325 738 l 640 793 q 672 903 650 860 q 697 918 681 918 q 713 914 704 918 q 726 890 726 906 q 719 871 726 879 q 700 832 707 853 q 690 790 697 822 l 774 800 q 935 814 906 814 m 628 521 q 607 528 617 528 q 571 496 586 528 q 547 424 556 464 q 544 386 544 413 q 550 328 544 358 q 562 299 554 313 q 576 286 569 285 q 609 354 594 290 q 628 476 624 418 l 628 521 z "},"ず":{"ha":1250,"x_min":178,"x_max":1185,"o":"m 1160 871 q 1178 863 1171 871 q 1185 843 1185 854 q 1175 822 1185 829 q 1153 817 1165 815 q 1106 843 1136 818 q 1054 900 1075 868 q 1026 953 1038 924 q 1015 1013 1015 983 q 1022 1033 1015 1025 q 1039 1042 1028 1040 l 1042 1042 q 1060 1034 1053 1042 q 1068 1015 1068 1026 q 1096 925 1068 964 q 1131 886 1113 901 q 1160 871 1149 871 m 1022 803 q 1060 783 1053 803 q 1053 758 1065 769 q 1022 747 1040 747 q 992 753 1006 747 q 964 776 979 760 q 947 797 957 783 q 931 822 936 810 q 913 871 921 843 q 906 918 906 899 q 913 944 906 933 q 932 956 919 954 l 933 956 q 956 944 947 956 q 960 924 965 932 q 957 913 957 918 q 966 865 957 894 q 983 826 975 836 q 1022 803 1004 803 m 978 685 q 997 674 989 682 q 1004 657 1004 667 q 994 635 1004 643 q 971 628 985 626 l 929 632 q 901 635 918 633 q 864 636 885 636 q 669 622 785 636 q 654 453 663 511 q 635 356 643 386 q 615 232 635 311 q 567 81 594 153 q 519 -15 540 10 q 493 -31 507 -31 q 481 -26 488 -31 q 468 -1 468 -17 q 471 13 468 4 q 481 25 474 18 q 492 36 489 32 q 518 94 497 46 l 536 136 q 576 260 557 178 q 558 257 565 257 q 542 260 553 257 q 510 290 524 265 q 492 350 496 314 q 499 407 488 381 q 540 447 511 433 q 563 451 551 451 q 608 431 588 451 q 629 617 625 515 q 388 561 485 594 q 295 521 335 543 q 231 467 256 499 q 207 456 224 456 q 192 460 199 456 q 178 482 178 469 q 185 499 178 489 q 261 558 210 531 q 372 607 313 586 q 631 664 468 640 q 625 794 631 738 l 625 797 q 632 817 625 808 q 649 826 639 825 l 653 826 q 669 820 663 826 q 678 803 676 814 q 672 669 679 782 q 822 685 761 681 q 915 689 872 689 q 978 685 951 689 m 558 304 q 569 314 563 304 q 586 356 578 326 q 582 382 586 369 q 561 403 576 403 q 542 382 544 403 q 539 356 539 365 q 544 324 539 336 q 558 304 551 304 z "},"せ":{"ha":1250,"x_min":190,"x_max":1011,"o":"m 601 526 q 497 506 550 518 q 494 453 494 488 q 508 387 496 418 q 543 338 519 356 q 672 276 590 300 q 829 251 754 251 q 894 258 863 251 q 914 261 908 261 q 947 244 940 261 q 950 232 950 236 q 918 206 950 211 q 854 200 894 200 q 647 235 756 200 q 493 324 539 269 q 451 463 451 372 l 453 488 q 454 496 453 493 q 362 471 400 483 q 290 438 324 458 q 273 427 285 435 q 251 410 261 419 q 214 389 231 389 q 197 396 204 389 q 190 415 190 403 q 197 435 190 428 q 351 517 242 479 q 467 546 407 535 q 503 603 479 581 q 557 626 526 626 q 622 571 593 626 q 789 586 733 582 l 797 586 q 842 625 821 611 q 886 639 864 639 q 944 631 911 639 q 994 610 976 622 q 1011 585 1011 599 q 991 561 1011 567 q 933 556 971 556 q 851 553 904 556 q 817 550 842 553 q 710 428 742 478 q 688 379 690 400 q 664 358 683 358 q 648 368 653 358 q 640 390 643 378 q 636 407 638 403 q 611 496 626 450 l 601 526 m 556 586 q 513 554 529 586 l 567 563 l 583 565 q 556 586 568 586 m 671 439 q 756 546 714 503 q 640 532 678 538 q 671 439 668 474 z "},"ぜ":{"ha":1250,"x_min":189,"x_max":1131,"o":"m 1108 772 q 1124 763 1118 771 q 1131 744 1131 756 q 1119 721 1131 728 q 1094 717 1108 714 q 1049 748 1078 719 q 1000 811 1019 776 q 976 869 985 838 q 971 931 968 901 q 979 951 972 943 q 997 958 986 958 q 1017 950 1008 958 q 1024 931 1025 942 q 1044 835 1018 879 q 1078 791 1060 808 q 1108 772 1097 774 m 974 696 q 1011 676 1004 696 q 1004 651 1017 663 q 972 639 992 639 q 942 645 956 639 q 913 668 929 651 q 895 690 906 676 q 879 715 885 704 q 860 765 868 738 q 853 814 853 793 q 860 841 853 831 q 881 853 867 851 l 882 853 q 905 841 896 853 q 908 821 914 829 q 906 808 906 815 q 915 760 906 790 q 933 719 925 731 q 974 696 954 696 m 826 275 q 860 285 849 285 q 881 274 875 285 q 885 260 885 268 q 828 218 885 235 q 724 201 771 201 q 664 208 696 201 q 547 275 596 224 q 475 399 499 326 l 467 426 l 453 419 q 278 314 342 368 q 265 303 276 313 q 247 281 253 293 q 217 254 235 254 q 201 258 210 254 q 193 267 197 261 q 189 282 189 274 q 193 297 189 289 q 444 468 243 379 l 457 474 q 454 518 454 504 q 464 589 454 558 q 508 646 479 646 q 527 638 519 646 q 535 618 535 629 q 526 599 535 607 q 501 517 501 574 q 503 492 501 500 q 643 540 574 521 q 753 560 713 560 q 797 544 783 560 q 804 525 804 536 q 794 499 804 511 q 765 471 783 488 q 707 412 728 438 q 679 354 686 386 q 678 342 678 350 l 679 318 q 672 292 679 300 q 651 282 664 282 q 624 300 633 282 q 621 318 621 308 q 631 371 621 340 q 657 425 640 401 q 739 511 675 451 q 660 496 711 510 q 510 444 590 479 l 511 439 q 594 293 533 340 q 722 250 647 250 q 826 275 775 250 z "},"そ":{"ha":1250,"x_min":288,"x_max":833,"o":"m 821 107 q 833 85 833 100 q 826 65 833 74 q 810 54 819 56 q 783 51 801 51 q 731 61 760 51 q 631 127 671 81 q 590 233 590 174 q 622 342 590 289 q 703 435 654 394 q 568 415 635 415 q 475 434 511 415 q 439 496 439 453 q 504 622 439 554 q 388 696 433 674 q 349 711 371 704 q 315 722 326 718 q 294 737 301 728 q 289 756 288 746 q 311 774 293 774 q 411 737 340 774 q 542 657 482 700 q 701 738 624 721 q 747 743 726 743 q 792 728 781 743 q 797 713 797 722 q 789 693 797 701 q 769 683 779 683 q 758 686 767 683 q 732 690 746 690 q 660 672 706 690 q 579 628 619 656 q 608 600 601 611 q 621 572 621 583 q 614 557 621 563 q 600 551 608 551 q 563 575 586 551 l 539 596 q 494 540 513 571 q 482 497 482 515 q 486 481 482 489 q 564 457 500 457 q 660 467 607 457 q 750 493 714 478 q 771 497 758 497 q 793 475 793 497 q 788 456 793 464 q 774 442 782 449 q 761 431 765 435 q 638 229 638 307 q 663 164 638 190 q 717 122 682 140 q 776 104 751 104 q 794 108 783 104 q 808 111 804 111 q 821 107 815 111 z "},"ぞ":{"ha":1250,"x_min":329,"x_max":1161,"o":"m 1161 753 q 1152 735 1161 742 q 1128 728 1143 728 q 1044 764 1089 728 q 975 840 1000 800 q 959 864 971 846 q 946 900 947 882 l 946 904 q 965 935 946 926 q 974 936 968 936 q 991 931 983 936 q 1000 915 999 925 q 1046 826 1010 858 q 1090 795 1067 807 q 1131 785 1114 783 q 1152 776 1143 786 q 1161 753 1161 767 m 954 710 q 971 700 964 708 q 978 681 978 692 q 969 663 978 669 q 947 657 960 657 q 929 661 938 657 q 873 710 896 678 q 850 778 850 742 q 852 808 850 790 q 857 833 854 825 q 868 849 860 843 q 886 854 876 854 q 906 847 896 854 q 915 826 915 839 q 910 807 915 817 q 901 774 901 790 q 906 750 901 763 q 925 724 910 738 q 954 710 940 711 m 697 528 q 669 531 689 528 q 636 535 654 535 q 556 521 608 535 q 564 513 560 515 q 581 485 581 500 q 571 464 581 474 q 556 458 564 458 q 529 469 543 458 q 500 501 514 482 q 429 464 461 485 q 403 439 415 454 q 396 413 390 424 q 429 399 403 399 q 450 400 443 399 q 539 414 506 408 l 572 422 q 618 433 603 431 q 661 440 650 440 q 688 432 678 440 q 697 408 697 424 q 690 385 697 396 q 669 363 683 375 q 644 335 653 346 q 601 228 601 274 q 624 153 601 192 q 682 106 646 114 q 703 102 689 104 q 724 94 717 100 q 731 78 731 89 l 731 75 q 722 55 731 63 q 700 47 713 47 q 633 72 664 47 q 581 132 601 97 q 553 232 553 179 q 560 282 553 261 q 583 335 569 314 q 625 385 597 356 l 504 361 q 438 354 472 354 q 356 389 378 354 q 347 418 347 404 q 367 466 347 442 q 411 510 386 490 q 472 544 446 533 q 469 547 472 544 q 369 701 446 578 l 340 747 q 329 776 329 763 q 340 797 329 790 q 354 801 346 801 q 379 786 372 801 q 431 698 401 746 q 482 617 460 650 l 521 561 q 660 588 585 581 l 681 589 q 718 581 707 589 q 730 566 726 575 q 731 547 733 557 q 697 528 724 528 z "},"た":{"ha":1250,"x_min":157,"x_max":951,"o":"m 458 411 q 456 332 456 361 q 477 113 456 215 q 547 -39 499 10 q 558 -64 558 -50 q 553 -79 558 -74 q 531 -90 544 -90 q 514 -85 521 -90 q 408 343 408 -1 l 410 413 q 438 667 413 508 q 200 600 264 635 q 188 597 196 597 q 161 611 169 597 q 157 625 157 618 q 162 640 157 633 q 174 649 167 646 q 319 693 265 679 q 446 718 374 707 q 507 914 478 885 q 533 926 519 926 q 546 922 540 926 q 556 904 556 914 q 544 871 556 893 q 497 725 517 817 q 522 728 506 725 q 765 753 601 738 q 828 758 751 751 q 872 761 856 761 q 893 754 885 761 q 901 735 901 747 q 894 715 901 724 q 872 706 886 707 l 864 706 l 829 707 q 685 697 789 707 q 517 679 581 688 l 488 675 q 458 411 471 581 m 869 458 q 826 452 858 463 q 781 432 794 442 q 689 342 700 379 q 680 330 688 335 q 664 325 672 325 q 651 328 660 325 q 638 344 643 332 q 638 365 632 356 q 793 493 676 444 q 861 511 839 511 q 895 502 879 511 q 928 474 911 493 q 936 451 936 464 q 924 428 936 436 q 907 422 917 422 q 882 436 892 422 q 878 449 878 443 q 869 458 878 456 m 940 310 q 951 285 951 301 q 942 264 951 272 q 905 245 932 257 q 861 228 878 233 q 815 215 836 219 q 788 208 793 210 l 782 207 q 763 214 772 207 q 753 231 754 221 l 753 236 q 759 254 753 246 q 775 265 765 263 q 784 266 781 267 q 789 265 788 265 q 863 276 824 265 q 904 301 901 288 q 924 315 906 315 q 940 310 933 315 z "},"だ":{"ha":1250,"x_min":154,"x_max":1210,"o":"m 1185 825 q 1202 815 1194 825 q 1210 794 1210 806 q 1203 776 1210 783 q 1183 769 1196 769 q 1101 814 1142 769 q 1040 907 1060 858 q 1024 971 1024 946 q 1031 991 1024 982 q 1049 1001 1038 1000 l 1053 1001 q 1072 994 1064 1001 q 1079 976 1079 986 q 1110 881 1079 918 q 1185 825 1154 825 m 1032 754 q 1067 732 1061 754 l 1068 725 q 1060 707 1068 715 q 1043 697 1053 699 q 949 747 992 693 q 916 809 928 774 q 904 881 904 844 l 904 882 q 912 901 904 893 q 931 910 919 910 q 950 902 942 910 q 958 883 958 894 q 958 860 958 878 q 962 827 958 843 q 975 794 965 811 q 1032 754 997 754 m 410 96 q 426 65 414 85 q 446 38 438 46 q 472 -4 472 11 q 468 -17 472 -11 q 449 -28 461 -28 q 428 -21 439 -28 q 392 21 413 -10 q 363 78 371 51 q 332 288 332 179 q 386 613 332 425 l 388 618 q 206 511 257 576 q 183 500 197 500 q 167 506 178 500 q 154 529 154 515 q 161 546 154 539 q 249 609 190 575 q 354 657 307 643 q 381 665 368 661 q 407 672 394 668 q 454 765 435 735 q 494 806 472 793 q 518 813 506 813 q 540 797 533 813 q 544 782 544 792 q 540 768 544 775 q 529 760 536 761 q 513 749 525 758 q 497 733 500 739 q 484 710 490 722 q 472 686 478 697 q 671 708 599 708 q 708 707 697 708 q 727 697 719 706 q 735 679 735 689 q 726 658 735 667 q 704 650 717 650 q 686 653 694 650 q 640 657 671 657 q 544 650 600 657 q 449 633 488 643 q 435 597 438 608 q 382 274 382 421 q 410 96 382 171 m 847 333 q 871 322 864 333 q 874 296 878 311 q 865 279 872 288 q 853 267 858 271 q 788 233 826 246 q 713 221 749 221 q 657 231 681 221 q 647 239 651 233 q 643 250 643 244 q 651 268 643 261 q 667 276 658 275 q 682 278 672 278 l 697 278 q 713 282 707 278 q 742 326 729 293 q 756 392 756 360 q 728 439 756 428 q 704 443 718 443 q 636 418 668 443 q 596 361 603 390 q 585 345 593 351 q 568 339 578 339 q 546 350 554 339 q 540 375 538 361 q 564 419 546 394 q 606 460 582 443 q 703 494 657 494 q 761 476 735 494 q 788 447 779 464 q 796 404 796 429 q 794 381 796 389 q 778 323 792 356 q 751 272 765 290 q 821 315 808 281 q 831 328 824 324 q 847 333 839 333 z "},"ち":{"ha":1250,"x_min":286,"x_max":874,"o":"m 829 693 q 861 688 849 693 q 874 665 874 682 q 865 644 874 653 q 842 638 856 636 q 807 640 826 640 q 749 636 772 640 q 679 621 725 632 q 644 611 647 611 q 596 597 644 611 q 576 539 583 563 q 561 466 568 508 q 554 396 554 424 q 561 363 554 369 q 578 356 568 356 q 597 360 585 356 l 658 383 q 692 395 676 390 q 722 400 708 400 q 753 396 736 400 q 806 354 788 388 q 817 308 817 332 q 799 238 817 276 q 756 169 783 206 q 686 83 728 133 q 647 44 668 63 q 629 38 638 38 q 607 49 615 38 q 601 65 601 56 q 611 89 601 79 q 628 101 617 94 q 651 119 639 107 q 743 229 711 179 q 763 269 754 246 q 772 311 772 293 q 760 343 772 332 q 728 354 747 354 q 653 335 703 354 q 576 313 606 315 q 525 336 539 308 q 513 408 513 361 q 519 483 513 444 q 543 578 526 524 q 449 539 483 557 q 338 471 353 493 q 315 460 331 460 q 297 467 307 460 q 286 489 286 475 q 293 506 286 499 q 365 551 310 522 q 560 632 435 588 q 603 743 581 693 q 639 806 626 793 q 663 817 650 817 q 678 813 669 817 q 690 790 690 806 q 682 771 690 779 q 667 751 676 765 q 649 719 658 736 q 618 653 635 696 q 700 676 671 669 q 829 693 769 693 z "},"ぢ":{"ha":1250,"x_min":249,"x_max":1188,"o":"m 1188 794 q 1177 777 1188 783 q 1150 771 1167 771 q 1067 804 1113 771 q 994 875 1021 838 q 980 897 992 879 q 964 933 968 914 l 964 940 q 981 968 964 963 q 992 971 989 971 q 1008 965 1001 971 q 1017 951 1014 960 q 1019 931 1017 949 q 1033 899 1022 913 q 1092 846 1054 869 q 1154 828 1129 822 q 1177 820 1167 831 q 1188 794 1188 810 m 969 765 q 987 756 979 764 q 994 738 994 749 q 985 719 994 726 q 964 713 976 713 q 947 715 958 713 q 892 756 914 728 q 865 822 869 785 q 866 849 864 833 q 871 874 868 865 q 900 896 879 896 q 920 888 911 896 q 929 868 929 881 q 925 851 929 860 q 915 821 915 832 q 922 799 915 813 q 942 776 929 786 q 969 765 956 767 m 836 654 q 846 635 846 646 q 840 618 846 625 q 825 610 835 611 l 819 610 l 794 611 q 672 598 746 611 q 524 563 599 585 l 518 547 q 492 463 503 506 q 482 392 482 419 q 497 364 482 364 q 529 376 508 364 q 560 393 550 389 q 629 413 596 413 q 651 410 638 413 q 702 374 683 400 q 721 317 721 349 q 717 288 721 303 q 611 126 694 203 q 538 81 561 81 q 518 88 525 81 q 511 107 511 96 q 524 132 511 124 l 558 157 q 614 200 594 181 q 656 258 633 219 q 674 319 674 292 q 662 355 674 342 q 628 368 650 368 q 565 344 604 368 q 531 327 549 335 q 497 319 513 319 q 458 336 475 319 q 439 393 439 356 q 449 460 439 421 q 469 547 460 510 q 317 483 369 514 q 303 474 313 481 q 286 465 294 468 q 271 465 278 463 q 254 478 260 469 q 249 494 249 486 q 263 518 249 510 q 350 557 301 539 q 485 600 393 574 q 539 736 497 636 q 557 772 549 760 q 579 783 565 783 q 606 760 606 783 q 599 738 606 747 q 576 692 592 728 q 544 615 560 656 q 783 661 690 653 l 801 663 q 836 654 826 663 z "},"つ":{"ha":1250,"x_min":290,"x_max":947,"o":"m 296 478 q 290 460 290 471 q 307 433 290 442 q 319 431 311 431 q 346 443 338 431 q 386 488 365 471 q 534 559 439 532 q 711 586 629 586 q 747 585 736 586 q 886 514 856 572 q 896 468 896 494 q 850 328 896 407 q 753 207 804 250 q 701 176 735 192 q 683 149 683 168 q 697 126 683 133 q 724 122 710 118 q 783 161 749 129 q 869 263 826 201 q 931 379 911 325 q 947 467 947 425 q 881 596 947 553 q 710 639 818 639 q 540 615 628 639 q 389 554 453 592 q 333 516 361 539 q 296 478 306 493 z "},"っ":{"ha":1250,"x_min":368,"x_max":835,"o":"m 383 376 q 368 353 368 369 q 376 332 368 342 q 396 322 385 322 q 424 333 408 322 q 447 349 439 344 q 458 355 451 351 q 471 361 464 358 q 621 386 549 386 q 740 361 693 386 q 786 286 786 336 q 776 242 786 264 q 751 204 767 219 q 719 180 736 189 q 675 160 701 171 q 658 147 664 156 q 651 129 651 139 q 656 118 651 125 q 679 103 667 103 l 690 106 q 751 140 726 119 q 835 281 835 204 q 799 373 835 338 q 708 424 763 408 q 610 438 663 438 q 383 376 494 438 z "},"づ":{"ha":1250,"x_min":283,"x_max":1115,"o":"m 963 896 q 953 912 961 906 q 936 918 946 918 q 916 908 924 918 q 908 886 908 899 q 919 849 908 868 q 933 822 931 829 q 990 749 953 785 q 1064 706 1028 714 q 1085 703 1078 703 q 1115 726 1115 703 q 1107 750 1115 740 q 1086 758 1099 760 q 1047 770 1069 757 q 1004 804 1025 783 q 963 896 968 840 m 853 778 q 844 797 853 789 q 825 804 836 804 q 806 796 814 804 q 799 776 799 788 l 799 775 q 810 705 799 740 q 843 643 822 669 q 938 594 886 590 q 955 604 947 596 q 963 622 963 613 q 952 643 963 636 q 926 650 942 650 q 869 690 892 650 q 856 728 858 711 q 853 758 853 744 q 853 778 853 772 m 293 503 q 283 482 283 494 q 294 458 283 467 q 321 454 306 449 q 345 469 332 458 q 365 486 358 481 q 430 515 393 506 q 507 525 467 525 q 624 497 579 525 q 672 448 654 478 q 690 385 690 418 q 689 364 690 371 q 642 258 679 313 q 561 178 606 203 q 541 169 553 174 q 522 163 529 165 q 508 139 508 157 q 517 117 508 125 q 538 110 525 110 q 606 148 561 110 q 675 221 651 186 q 727 313 711 272 q 740 401 743 353 q 712 482 738 443 q 643 544 686 521 q 508 575 586 575 q 388 556 446 575 q 293 503 329 536 z "},"て":{"ha":1250,"x_min":368,"x_max":843,"o":"m 397 718 q 376 708 383 718 q 372 683 368 697 q 385 668 376 671 q 403 665 394 665 q 415 665 413 665 q 457 663 432 665 q 685 585 582 649 q 708 557 708 571 q 704 543 708 551 q 686 514 699 529 q 671 496 674 499 q 651 474 657 482 q 629 444 643 464 q 551 334 575 375 q 526 256 526 293 q 577 165 526 201 q 700 124 628 129 q 781 119 775 119 q 815 122 799 119 q 837 137 831 125 q 839 160 843 149 q 813 178 833 178 q 792 175 806 178 q 749 172 778 172 q 650 185 700 172 q 596 211 618 192 q 574 261 574 231 q 581 294 574 278 q 604 333 589 310 q 674 424 626 365 q 739 508 718 478 q 756 556 756 532 q 731 608 756 585 q 663 654 706 632 q 533 700 608 682 q 397 718 457 718 z "},"で":{"ha":1250,"x_min":254,"x_max":1186,"o":"m 1026 928 q 1019 944 1026 938 q 1000 950 1011 950 q 980 941 988 950 q 972 918 972 932 q 983 881 972 900 q 997 854 994 861 q 1058 780 1017 818 q 1135 733 1099 742 q 1157 731 1151 731 q 1178 737 1171 731 q 1186 753 1186 743 q 1177 777 1186 767 q 1157 786 1168 788 q 1093 814 1132 785 q 1038 874 1054 843 q 1026 928 1026 894 m 851 851 q 843 867 850 861 q 826 874 836 874 q 806 864 814 874 q 797 840 797 854 q 808 805 797 824 q 824 778 819 786 q 891 701 844 738 q 978 665 938 665 q 1010 689 1010 665 q 1001 711 1010 701 q 981 719 992 721 q 922 742 956 717 q 868 799 888 767 q 851 851 854 821 m 276 654 q 260 645 267 653 q 254 626 254 638 q 265 604 254 613 q 288 599 275 596 q 393 608 336 608 q 510 593 457 608 q 607 532 604 565 q 558 415 611 494 q 500 308 517 353 q 489 243 489 275 q 506 174 489 201 q 556 132 524 146 q 625 118 588 118 q 682 126 656 118 q 705 140 696 131 q 714 161 714 150 q 707 179 714 172 q 689 186 700 186 q 672 182 681 186 q 618 169 651 169 q 553 191 572 169 q 535 243 535 213 q 554 310 535 272 q 615 415 574 349 q 656 524 656 481 q 636 578 656 557 q 582 619 617 601 q 506 644 547 636 q 351 660 432 660 q 276 654 306 660 z "},"と":{"ha":1250,"x_min":404,"x_max":894,"o":"m 890 258 q 894 246 894 253 q 857 208 894 226 q 744 171 806 186 q 631 156 683 156 q 561 165 590 156 q 492 217 518 179 q 467 300 467 254 q 479 368 467 333 q 514 433 492 403 q 474 464 496 442 q 422 550 440 501 q 404 650 404 599 q 422 736 404 713 q 446 747 431 747 q 465 740 457 747 q 475 719 475 735 q 469 703 475 708 q 456 647 456 688 q 465 577 456 614 q 490 514 475 540 q 543 468 510 481 q 557 482 543 468 q 588 500 571 493 q 621 507 606 507 q 657 490 647 507 q 661 475 661 482 q 635 438 661 451 q 585 422 608 424 q 542 394 549 407 q 513 297 513 343 q 538 231 513 256 q 628 199 569 199 q 713 211 668 199 q 806 243 776 228 q 826 255 811 246 q 849 267 842 264 q 867 271 860 271 q 890 258 882 271 z "},"ど":{"ha":1250,"x_min":313,"x_max":1053,"o":"m 1029 749 q 1046 738 1039 746 q 1053 719 1053 729 q 1043 700 1053 710 q 1025 693 1036 693 q 994 703 1011 693 q 939 756 963 721 q 907 831 915 792 q 901 871 901 850 q 914 903 901 894 q 929 908 925 908 q 947 900 940 908 q 954 878 954 892 q 975 798 954 836 q 1029 749 996 760 m 882 651 q 901 640 893 649 q 908 622 908 632 q 897 601 908 611 q 882 596 892 596 q 842 611 867 596 q 789 669 810 632 q 761 747 768 707 q 757 778 757 772 q 771 808 757 799 q 785 813 778 813 q 804 803 796 813 q 813 781 813 793 q 831 701 813 739 q 882 651 849 663 m 681 275 q 696 279 689 279 q 714 270 707 279 q 721 249 721 261 q 706 217 721 233 q 672 188 692 200 q 526 139 600 139 q 427 173 467 139 q 388 269 388 207 q 390 304 388 279 q 431 406 400 358 q 369 459 396 425 q 328 533 342 493 q 313 631 313 575 q 317 686 313 660 q 347 719 322 719 q 374 683 376 719 q 371 624 371 644 q 408 485 371 533 q 461 443 429 458 q 547 485 503 485 q 597 472 575 485 q 619 435 619 458 q 586 394 619 404 q 519 383 553 383 q 475 388 499 383 q 432 268 432 324 q 460 210 432 232 q 526 188 489 188 q 591 202 557 188 q 654 240 625 217 q 667 258 660 244 q 681 275 675 271 m 558 435 q 538 438 547 438 q 525 435 533 438 q 515 429 518 432 q 558 435 533 429 z "},"な":{"ha":1250,"x_min":192,"x_max":1006,"o":"m 528 819 q 588 786 568 819 q 603 735 603 760 q 579 688 603 710 q 524 656 556 665 q 444 635 486 643 q 338 361 378 500 q 322 275 322 308 q 367 213 322 213 q 388 204 379 213 q 397 182 397 196 q 388 163 397 171 q 361 154 378 154 q 326 164 346 154 q 296 189 307 174 q 274 256 278 214 q 272 281 272 264 q 299 416 272 342 q 371 586 325 490 q 378 603 374 593 q 390 626 383 613 q 219 617 317 617 q 200 624 208 617 q 192 644 192 632 q 201 666 192 658 q 224 672 210 674 q 307 669 274 669 q 415 675 371 669 q 468 776 460 764 q 528 819 494 819 m 508 697 q 544 716 531 706 q 557 743 557 726 q 549 766 557 756 q 531 775 540 776 q 478 700 514 774 l 471 686 q 508 697 483 689 m 993 649 q 1006 628 1006 640 q 1001 614 1006 622 q 979 599 993 599 q 963 604 974 599 q 847 631 918 631 q 764 617 796 631 l 738 604 q 722 600 729 600 q 699 613 707 600 q 694 626 694 621 q 707 647 694 642 q 773 669 732 661 q 851 678 814 678 q 933 670 894 678 q 993 649 972 663 m 964 354 q 983 347 975 354 q 993 328 992 340 l 993 325 q 984 306 993 314 q 964 299 975 299 l 944 300 q 860 288 910 300 q 765 257 810 276 q 768 199 768 215 q 754 128 768 153 q 724 99 744 110 q 681 89 703 89 q 653 94 664 89 q 615 153 615 113 q 629 204 615 179 q 665 249 643 229 q 717 283 681 264 q 714 356 714 331 q 724 449 714 410 q 761 508 735 488 q 781 515 769 515 q 801 506 793 515 q 808 485 808 496 q 800 465 808 474 q 790 458 796 461 q 780 449 783 454 q 772 432 776 443 q 761 340 761 401 l 763 304 q 871 340 815 326 q 964 354 926 354 m 711 144 q 724 190 724 157 q 721 235 724 201 q 671 189 685 213 q 660 154 660 169 q 664 142 660 146 q 685 133 672 133 q 711 144 700 133 z "},"に":{"ha":1250,"x_min":282,"x_max":1000,"o":"m 515 92 q 532 97 522 97 q 554 85 546 97 q 557 71 557 81 q 547 39 557 57 q 524 10 536 21 q 472 -11 501 -11 q 389 29 429 -11 q 282 381 282 136 q 286 488 282 433 q 319 717 292 581 q 371 878 346 853 q 393 888 381 888 q 408 882 403 888 q 421 858 421 869 q 417 843 421 851 q 355 635 379 765 q 331 389 331 506 q 340 243 331 308 q 378 122 350 178 q 420 64 393 90 q 469 38 447 38 q 496 53 485 38 q 503 72 499 58 q 515 92 508 86 m 986 489 q 1000 465 1000 481 q 969 422 1000 446 q 910 383 947 403 q 843 354 874 364 q 801 346 815 346 q 769 355 781 346 q 758 378 758 364 q 767 399 758 390 q 776 404 772 404 q 782 404 781 404 q 803 422 794 404 q 814 440 813 439 q 838 519 838 482 q 831 551 838 535 q 792 572 821 572 q 761 567 778 572 q 701 525 726 553 q 667 507 686 507 q 656 510 658 507 q 643 532 643 518 q 656 558 643 546 q 725 606 682 583 q 786 621 753 621 q 803 619 797 621 q 863 586 844 613 q 882 521 882 560 q 854 417 882 465 l 849 407 l 853 408 q 918 444 890 422 q 940 468 935 458 q 947 478 943 471 q 958 490 950 486 q 972 493 967 493 q 986 489 979 493 z "},"ぬ":{"ha":1250,"x_min":368,"x_max":1025,"o":"m 1025 364 q 1020 349 1025 357 q 1006 338 1015 342 q 979 333 996 333 q 956 331 963 332 l 953 321 q 910 247 942 285 q 846 210 879 210 q 822 215 833 210 q 793 253 793 229 q 822 308 793 278 q 878 350 850 338 l 907 364 q 851 413 890 386 q 779 444 811 439 q 722 449 753 449 q 633 438 672 449 l 593 347 l 568 292 q 654 207 607 236 q 685 190 674 194 q 717 179 697 185 q 739 153 739 174 q 732 133 739 140 q 713 125 725 125 q 638 165 689 125 q 547 249 586 206 q 507 183 528 208 q 451 154 485 154 q 435 156 440 154 q 388 186 407 160 q 368 247 368 213 q 394 330 368 290 q 460 400 419 369 q 407 586 425 482 q 399 699 399 635 q 417 833 399 790 q 463 882 435 882 q 483 874 475 882 q 492 853 492 865 q 482 829 492 839 q 461 792 471 818 q 450 739 451 765 q 449 690 449 724 q 461 557 449 626 q 497 426 474 488 q 597 474 550 458 q 649 595 628 549 q 692 672 671 642 q 724 715 711 700 q 753 729 738 729 q 768 724 761 729 q 778 706 778 717 q 767 683 778 694 q 721 622 746 663 q 656 490 694 578 q 711 494 685 494 q 820 477 767 494 q 911 425 874 460 q 949 383 938 401 q 981 392 965 389 q 1013 386 1001 393 q 1025 367 1024 379 l 1025 364 m 575 417 q 515 385 543 404 q 540 336 526 358 l 575 417 m 486 233 q 518 290 499 251 q 479 358 496 322 q 434 306 451 335 q 417 250 417 276 q 426 214 417 229 q 444 201 435 201 q 486 233 464 201 m 853 253 q 907 317 879 253 q 854 282 875 303 q 842 261 842 269 q 853 253 842 253 z "},"ね":{"ha":1250,"x_min":263,"x_max":1061,"o":"m 1040 399 q 1061 371 1061 388 q 1054 350 1061 360 q 1038 340 1046 340 q 1015 354 1026 340 q 993 374 1003 371 q 965 379 983 378 q 942 381 958 381 q 917 379 925 381 q 914 354 917 371 q 876 285 906 319 q 813 250 846 250 q 779 261 794 250 q 764 304 764 272 q 768 336 764 324 q 794 376 775 357 q 836 407 814 396 q 860 415 856 414 q 810 449 843 436 q 711 465 764 465 q 517 421 619 465 q 511 242 511 285 q 531 11 511 101 q 542 -13 533 -1 q 554 -29 551 -25 q 558 -49 558 -37 q 546 -72 558 -64 q 531 -78 539 -78 q 494 -46 508 -78 q 463 197 463 18 q 469 399 463 288 q 400 357 438 382 q 371 335 390 350 q 333 314 351 321 q 315 310 325 310 q 276 333 289 310 q 263 396 263 357 q 281 498 263 444 q 329 581 300 551 q 363 596 344 596 q 381 589 374 596 q 389 569 389 581 q 372 536 389 553 q 354 521 365 531 q 338 501 343 511 q 315 403 315 457 q 321 361 315 378 q 385 403 342 378 q 454 440 429 429 l 472 449 q 499 740 479 546 q 519 904 507 826 q 523 931 521 914 q 528 960 525 947 q 540 983 531 974 q 560 993 549 993 q 578 986 571 993 q 585 968 585 979 q 582 956 585 964 q 567 893 574 933 q 556 815 561 853 l 550 775 q 519 468 531 646 q 671 507 599 497 q 704 508 681 508 q 828 488 768 508 q 908 422 888 467 q 979 417 943 424 q 1040 399 1015 411 m 810 294 q 847 320 826 296 q 872 369 867 344 q 810 294 811 347 z "},"の":{"ha":1250,"x_min":404,"x_max":782,"o":"m 738 542 q 782 399 782 483 q 765 290 782 340 q 739 228 758 268 q 710 179 719 188 q 693 172 703 172 q 668 188 676 172 q 665 196 665 193 q 682 232 665 210 q 723 308 708 264 q 738 396 738 351 q 715 492 738 449 q 667 541 697 522 q 603 563 638 560 l 593 525 l 586 499 q 533 326 553 374 q 476 279 513 279 q 421 319 438 279 q 404 411 404 358 q 438 535 404 482 q 535 603 471 588 q 567 608 547 606 q 585 658 578 642 q 614 682 596 682 q 634 674 626 682 q 642 653 642 665 q 636 635 642 642 l 619 607 q 738 542 693 596 m 475 326 q 503 384 482 321 q 546 529 525 447 l 554 561 q 519 549 536 557 q 471 500 488 533 q 451 428 454 467 q 475 326 447 349 z "},"は":{"ha":1250,"x_min":251,"x_max":1026,"o":"m 414 33 q 427 23 422 31 q 432 7 432 15 q 424 -12 432 -6 q 404 -19 417 -19 q 386 -15 394 -19 q 284 120 317 19 q 251 361 251 221 q 265 560 251 457 q 303 751 279 663 l 311 786 q 326 838 322 831 q 344 852 333 847 q 364 851 354 857 q 380 835 375 846 q 381 814 385 825 q 297 390 308 615 l 296 351 q 325 149 296 240 q 414 33 354 57 m 999 657 q 1018 648 1010 656 q 1026 629 1026 640 q 1017 608 1026 617 q 994 600 1008 600 q 972 602 990 600 q 938 604 954 604 q 814 582 889 604 q 813 558 813 575 q 819 469 813 518 l 822 436 q 867 438 838 438 q 961 431 917 438 q 978 421 972 429 q 985 403 985 413 q 976 383 985 392 q 956 374 967 374 q 944 376 953 374 q 893 390 925 386 q 854 393 871 393 q 826 392 836 393 q 822 304 829 339 q 790 252 815 271 q 731 233 764 233 q 663 256 689 233 q 636 315 636 279 q 658 372 636 347 q 714 411 681 397 q 778 429 743 422 q 772 469 776 443 q 765 526 767 496 q 764 567 764 540 q 613 501 674 535 q 515 424 540 461 q 492 411 507 411 q 478 415 483 411 q 464 439 464 425 q 469 453 464 447 q 561 525 508 492 q 769 614 646 576 q 821 710 781 669 q 839 718 829 718 q 858 710 850 718 q 865 693 865 703 q 853 668 865 678 q 828 631 842 661 q 960 656 911 650 q 999 657 985 658 m 782 354 q 781 386 782 375 q 690 344 721 375 q 679 318 679 333 q 693 289 679 301 q 732 276 707 276 q 771 296 760 276 q 782 354 782 315 z "},"ば":{"ha":1250,"x_min":231,"x_max":1197,"o":"m 1197 789 q 1188 772 1197 778 q 1165 765 1179 765 q 1083 801 1126 765 q 1011 881 1040 838 q 985 940 986 917 l 985 944 q 1004 975 985 965 q 1014 978 1010 978 q 1031 972 1024 978 q 1039 956 1038 965 q 1056 901 1042 924 q 1109 844 1075 869 q 1168 822 1143 819 q 1188 813 1179 824 q 1197 789 1197 803 m 1001 721 q 1019 714 1011 721 q 1029 696 1026 707 l 1029 692 q 1020 673 1029 681 q 994 665 1011 665 q 916 717 946 665 q 879 847 886 769 l 879 850 q 888 871 879 863 q 908 879 896 879 q 938 847 938 879 l 938 817 q 953 744 938 772 q 997 721 968 715 l 1001 721 m 379 107 q 398 99 390 107 q 407 82 406 92 l 407 79 q 399 59 407 67 q 376 51 392 51 q 329 65 350 51 q 289 113 308 79 q 246 244 261 161 q 231 417 231 328 q 261 624 231 553 q 304 686 282 672 q 324 692 311 692 q 344 682 336 692 q 351 664 351 672 q 340 642 351 650 q 292 553 303 614 q 275 389 275 465 q 315 165 275 274 q 341 124 325 140 q 379 107 357 107 m 861 422 q 881 414 872 422 q 889 394 889 406 q 880 376 889 383 q 858 369 871 368 q 799 372 819 372 q 725 365 754 372 q 689 265 715 304 q 651 231 674 244 q 607 217 629 217 q 579 226 590 217 q 564 263 564 238 q 592 332 564 296 q 634 370 607 351 q 685 396 661 389 q 674 519 686 435 q 521 433 571 483 q 493 397 499 411 q 469 383 488 383 q 456 386 460 383 q 440 408 440 394 q 443 421 440 413 q 457 440 447 429 q 478 460 467 451 q 571 519 515 490 q 668 561 626 549 q 688 613 668 599 q 739 625 704 625 q 799 615 774 625 q 838 597 825 607 q 851 572 851 588 q 813 544 851 544 q 714 532 763 544 l 722 490 q 729 408 731 447 q 861 422 789 422 m 722 586 q 710 572 713 585 q 764 581 736 579 q 722 586 735 589 m 657 297 q 678 346 671 322 q 651 328 661 338 q 628 303 640 318 q 610 271 614 285 q 615 257 606 257 q 636 269 624 257 q 657 297 649 282 z "},"ぱ":{"ha":1250,"x_min":232,"x_max":1113,"o":"m 1060 856 q 1113 761 1113 828 q 1100 693 1113 726 q 1054 608 1089 661 q 996 538 1019 556 q 975 531 988 531 q 953 539 963 531 q 944 560 944 547 q 957 585 944 575 q 915 619 933 594 q 885 672 896 644 q 869 753 869 715 q 908 844 869 815 q 994 871 943 871 q 1060 856 1033 871 m 1056 706 q 1069 765 1069 742 q 1064 794 1069 782 q 1036 819 1056 811 q 993 828 1017 828 q 947 818 967 828 q 914 756 914 800 q 943 664 914 708 q 967 642 953 650 q 985 634 972 639 q 1003 619 999 629 q 1056 706 1033 650 m 390 61 q 403 51 397 60 q 408 35 408 43 q 397 11 408 19 q 369 6 386 3 q 277 92 310 14 q 236 289 244 171 q 232 408 232 346 q 264 672 232 571 q 306 735 282 735 q 329 710 329 735 q 325 690 329 699 q 292 562 303 646 q 281 386 281 478 q 292 228 281 311 q 331 99 304 146 q 364 64 346 71 q 376 63 368 63 q 390 61 386 63 m 849 414 q 872 411 863 414 q 886 399 881 408 q 889 386 889 394 q 878 363 889 371 q 860 357 871 357 q 829 361 858 357 q 731 350 788 365 l 714 346 q 671 228 714 268 q 618 204 646 204 q 582 220 596 204 q 568 264 568 236 q 669 379 568 338 q 660 492 661 474 q 658 508 660 503 q 549 453 593 488 q 501 400 526 435 q 475 386 492 386 q 460 390 465 386 q 450 413 450 397 q 454 429 450 421 q 499 479 471 458 q 567 521 526 500 q 661 558 611 543 q 674 610 665 588 q 704 638 683 638 q 718 632 707 638 q 731 610 731 624 q 724 588 731 599 q 717 572 718 575 l 742 575 q 771 578 758 578 q 792 572 785 578 q 804 549 804 564 q 801 536 804 540 q 788 524 796 526 q 769 523 779 522 q 754 524 760 524 q 710 519 732 524 l 706 519 q 705 496 704 510 q 706 475 706 482 q 713 394 707 447 q 842 414 786 414 l 849 414 m 651 271 q 669 329 667 293 q 614 268 617 303 l 614 264 q 624 249 614 249 q 651 271 636 249 z "},"ひ":{"ha":1250,"x_min":258,"x_max":1028,"o":"m 285 578 q 261 563 269 578 q 258 550 258 558 q 271 526 258 535 q 318 518 283 518 q 494 542 386 518 q 571 556 515 546 q 529 496 560 538 q 472 411 488 439 q 444 321 444 358 q 488 256 444 274 q 540 244 514 244 q 621 269 583 244 q 694 328 663 296 q 734 365 722 356 q 756 375 746 375 q 768 369 763 375 q 834 322 778 360 q 904 278 890 285 q 972 260 946 260 q 989 261 983 260 q 1016 275 1004 264 q 1022 300 1028 286 q 992 318 1015 318 q 979 317 983 318 q 969 315 976 315 q 888 340 925 315 q 796 410 850 364 q 760 424 781 424 q 726 415 743 424 q 689 388 710 406 q 661 363 672 374 q 597 311 625 329 q 539 293 569 293 q 493 335 488 293 q 531 424 499 369 q 597 521 563 478 q 624 572 624 554 q 581 599 624 599 q 532 592 560 599 q 493 583 504 586 q 367 568 417 568 q 293 576 331 568 l 285 578 z "},"び":{"ha":1250,"x_min":218,"x_max":1157,"o":"m 979 863 q 970 876 976 871 q 954 882 964 882 q 933 873 942 882 q 925 851 925 864 q 932 824 925 838 q 947 801 939 811 q 957 786 954 790 q 1032 713 982 749 q 1119 678 1082 678 q 1147 685 1138 678 q 1157 703 1157 692 q 1146 727 1157 717 q 1124 735 1135 738 q 1058 755 1099 729 q 996 810 1017 781 q 982 842 985 824 q 979 863 979 860 m 890 721 q 893 736 893 732 q 887 755 893 749 q 871 761 881 761 q 838 733 847 761 q 836 719 836 729 q 873 639 836 674 q 956 592 910 604 q 985 596 971 588 q 1000 618 1000 604 q 991 639 1000 631 q 969 646 982 647 q 938 650 954 644 q 914 665 922 656 q 890 721 885 700 m 233 493 q 218 464 218 478 q 225 449 218 454 q 243 443 231 443 q 279 460 263 443 q 332 498 303 483 q 386 515 361 513 l 397 515 q 428 496 428 515 q 416 454 428 478 q 369 369 404 431 q 331 299 343 326 q 318 242 318 271 q 336 201 318 214 q 381 188 354 188 q 452 206 422 188 q 519 261 482 225 q 570 307 549 290 q 619 331 592 324 q 669 336 640 336 q 735 331 693 336 q 766 324 753 328 q 789 318 779 321 q 847 304 828 307 q 903 300 878 300 q 960 329 960 300 q 945 349 960 344 q 916 352 931 353 q 897 351 901 351 q 778 369 863 351 q 704 382 721 381 q 558 358 615 388 q 525 335 540 349 q 489 300 510 322 q 444 258 456 267 q 413 239 429 246 q 383 232 396 232 q 367 244 367 232 q 384 297 367 263 q 432 382 401 331 q 465 444 454 419 q 476 493 476 468 q 451 544 476 526 q 393 563 425 563 q 376 561 382 563 q 233 493 294 550 z "},"ぴ":{"ha":1250,"x_min":143,"x_max":1071,"o":"m 982 829 q 1051 788 1031 829 q 1067 699 1071 747 q 1000 526 1057 596 l 1014 524 q 1030 514 1024 522 q 1036 494 1036 506 q 1026 474 1036 481 q 1001 467 1015 467 q 913 504 953 467 q 846 596 872 542 q 828 675 828 632 q 844 744 828 711 q 892 799 860 778 q 982 829 938 829 m 1021 675 q 1025 714 1025 692 q 1007 774 1025 756 q 976 785 996 785 q 944 778 961 785 q 917 763 926 771 q 876 674 876 731 q 888 617 876 644 q 921 568 900 589 q 954 542 936 553 q 993 597 975 560 q 1021 675 1011 633 m 797 371 q 917 286 864 351 q 931 266 924 276 q 938 246 938 256 q 928 223 938 232 q 907 214 919 214 q 889 222 897 214 q 876 246 883 228 q 858 274 868 264 q 771 326 814 318 q 724 315 747 331 q 683 281 701 299 q 658 256 665 263 q 538 185 597 197 q 489 179 507 179 q 416 201 444 179 q 388 274 388 224 q 399 338 388 306 q 432 417 411 371 q 461 501 461 475 q 435 521 461 521 q 293 476 394 521 q 240 447 293 476 q 182 415 185 417 q 168 413 176 413 q 150 420 157 413 q 143 438 143 428 q 157 463 143 453 q 294 533 215 503 q 431 564 374 564 q 488 548 467 564 q 510 503 510 532 q 482 411 510 469 q 474 393 478 403 q 465 372 469 383 q 449 330 463 365 q 436 267 436 294 q 485 222 436 222 q 541 235 510 222 q 599 268 572 247 q 640 306 619 285 q 705 358 678 340 q 765 375 732 375 q 797 371 781 375 z "},"ふ":{"ha":1250,"x_min":238,"x_max":1111,"o":"m 404 767 q 384 758 392 767 q 376 739 376 750 q 385 720 376 729 q 410 710 394 711 q 453 706 450 706 q 569 658 493 697 q 647 603 646 619 q 623 576 649 596 q 590 550 597 557 q 551 502 564 524 q 538 451 538 481 q 547 400 538 425 q 576 342 557 375 q 600 296 593 311 q 606 282 601 293 q 610 263 610 271 q 594 244 610 244 q 573 256 583 244 q 560 269 563 267 q 514 335 539 290 l 493 369 q 455 417 474 399 q 414 435 436 435 q 390 428 404 435 q 326 365 358 410 q 268 271 293 319 q 238 169 238 213 q 260 114 238 135 q 319 89 285 89 q 363 99 339 89 q 399 122 383 107 q 415 154 415 138 q 407 174 415 167 q 388 182 399 182 q 371 176 378 182 q 355 161 364 171 q 338 146 346 151 q 317 140 329 140 q 290 171 290 140 q 303 225 290 190 q 358 326 319 268 q 415 385 397 385 q 492 290 432 385 q 510 261 499 279 q 529 236 522 243 q 561 210 543 221 q 597 200 579 200 q 626 208 613 200 q 654 260 654 226 q 642 313 654 281 l 618 356 q 591 409 600 389 q 582 451 582 429 q 615 517 582 486 q 642 536 618 519 q 681 567 668 553 q 694 601 694 581 q 671 642 694 624 q 549 719 601 697 q 476 746 522 731 q 411 765 431 761 l 404 767 m 854 436 q 833 431 842 438 q 825 414 825 424 q 831 399 825 406 q 844 389 836 392 q 890 368 868 381 q 977 301 936 342 q 1044 215 1018 260 q 1053 199 1047 210 q 1068 182 1060 188 q 1082 178 1076 178 q 1102 187 1093 178 q 1111 207 1111 196 q 1094 242 1111 222 q 1032 307 1078 261 q 933 399 974 365 q 854 436 892 432 z "},"ぶ":{"ha":1250,"x_min":225,"x_max":1157,"o":"m 1036 925 q 1028 942 1036 935 q 1008 950 1019 950 q 988 940 996 950 q 982 918 982 933 q 999 854 982 890 q 1050 772 1022 800 q 1096 733 1078 744 q 1131 722 1113 722 q 1142 725 1136 722 q 1157 753 1157 733 q 1129 776 1157 774 q 1093 794 1108 779 q 1064 832 1078 808 q 1036 925 1036 878 m 883 822 q 876 844 883 835 q 857 853 869 853 q 831 819 831 853 q 835 785 831 810 q 864 714 844 747 q 911 664 883 681 q 946 651 933 651 q 967 658 960 651 q 974 675 974 665 q 969 690 974 683 q 958 700 965 697 q 942 705 951 703 q 928 711 933 707 q 904 738 914 721 q 883 822 883 772 m 376 681 q 348 676 360 683 q 336 658 336 669 q 343 642 336 651 q 361 631 350 635 q 385 627 372 628 q 408 624 397 626 q 497 592 450 615 q 551 550 543 569 q 553 546 553 549 q 543 535 553 539 q 481 486 500 515 q 467 435 467 464 q 471 400 467 417 q 515 303 482 357 q 530 284 519 297 q 544 260 540 271 q 546 253 546 257 q 538 242 546 244 q 522 243 529 239 q 487 271 500 253 q 460 321 474 289 q 433 370 444 353 q 406 401 422 388 q 365 418 385 418 q 310 392 338 418 q 265 332 283 365 q 237 265 249 303 q 225 193 225 226 q 251 128 225 149 q 276 118 265 118 q 294 126 288 118 q 301 144 301 136 q 290 171 301 158 q 281 207 281 182 q 303 296 281 246 q 349 364 326 346 q 365 371 357 371 q 381 365 374 371 q 396 344 388 358 l 415 310 q 467 228 442 258 q 532 197 493 197 q 582 215 564 197 q 592 240 592 225 q 571 297 592 264 q 544 337 564 308 q 518 392 525 365 q 511 431 511 424 q 525 467 511 451 q 556 486 533 475 q 589 508 578 497 q 600 536 600 518 q 576 589 600 563 q 376 681 519 657 m 718 428 q 693 419 704 428 q 682 401 682 411 q 692 383 682 392 q 714 376 700 378 q 736 372 728 374 q 818 324 776 360 q 879 249 860 288 q 887 224 882 243 q 900 199 892 204 q 917 193 907 193 q 939 202 929 193 q 949 224 949 211 q 937 260 949 240 q 910 296 925 279 q 897 312 904 303 q 882 329 890 321 q 803 393 842 371 q 756 419 775 410 q 718 428 738 428 z "},"ぷ":{"ha":1250,"x_min":238,"x_max":1069,"o":"m 1032 882 q 1069 788 1069 846 q 1057 726 1069 756 q 974 621 1033 672 q 958 606 971 618 q 932 594 946 594 q 921 597 929 594 q 906 622 906 606 q 918 647 906 639 q 946 667 943 665 q 857 758 886 697 q 843 817 843 789 q 876 892 843 867 q 947 915 907 915 q 993 906 971 915 q 1032 882 1015 897 m 1025 788 q 1003 847 1025 821 q 949 872 981 872 q 926 869 933 872 q 888 817 888 857 q 899 771 888 794 q 928 732 911 747 q 967 707 947 714 q 976 704 971 706 q 986 701 981 703 q 1025 788 1025 746 m 542 482 q 552 433 542 456 q 583 376 563 411 q 617 317 608 338 q 633 213 638 265 q 619 172 632 192 q 588 151 607 151 q 511 221 550 151 q 425 406 472 290 q 422 418 424 408 q 413 428 419 428 q 376 390 400 428 q 331 308 351 353 q 297 216 313 269 q 289 158 281 163 q 308 129 308 149 q 292 104 308 113 q 259 113 275 96 q 239 151 243 131 q 238 168 238 157 q 269 295 238 218 q 338 424 301 372 q 415 479 375 479 q 453 456 440 479 q 482 389 467 433 l 494 354 q 543 261 514 308 q 559 237 549 253 q 582 207 569 221 q 586 238 586 224 q 568 308 586 268 q 542 354 563 321 q 515 400 522 385 q 496 483 496 449 q 503 529 496 504 q 550 621 522 597 q 450 647 514 647 q 413 644 435 647 q 399 642 408 644 q 382 640 389 640 q 353 658 360 640 q 351 668 351 661 q 359 686 351 678 q 379 696 367 694 q 411 697 389 697 q 502 690 457 697 q 572 667 547 682 q 601 621 601 650 q 595 597 601 608 q 581 574 589 585 q 571 560 574 564 q 542 482 542 515 m 860 417 q 971 268 928 368 q 983 243 972 265 q 993 203 993 221 q 989 186 993 193 q 967 174 981 174 q 949 181 957 174 q 939 197 940 188 q 931 232 938 206 q 914 281 925 258 q 860 350 893 321 q 840 362 853 356 q 821 375 828 368 q 814 393 814 382 q 822 415 814 407 q 842 422 831 422 q 860 417 853 422 z "},"へ":{"ha":1250,"x_min":363,"x_max":967,"o":"m 363 279 q 371 260 363 268 q 390 253 379 253 q 412 262 407 253 q 419 290 417 271 q 469 411 428 346 q 550 515 496 453 q 617 576 604 578 q 627 569 622 575 q 638 554 632 564 l 665 511 q 738 413 707 451 q 806 344 768 375 q 869 299 838 318 q 925 275 901 281 l 935 274 q 955 278 947 274 q 965 292 963 283 q 967 300 967 294 q 949 326 967 318 q 926 334 942 331 q 904 340 911 338 q 868 363 893 346 q 761 460 808 403 q 663 599 714 518 q 615 625 644 626 q 515 547 581 624 q 408 399 449 471 q 377 337 388 361 q 363 283 367 313 l 363 279 z "},"べ":{"ha":1250,"x_min":307,"x_max":1133,"o":"m 1000 871 q 992 888 1000 881 q 972 896 983 896 q 953 887 961 896 q 944 864 944 878 q 950 833 944 850 q 963 801 956 817 q 1013 723 979 763 q 1081 671 1046 683 q 1104 667 1094 667 q 1133 690 1131 667 l 1133 693 q 1126 713 1133 704 q 1108 722 1118 722 q 1072 738 1093 722 q 1032 776 1051 753 q 1000 871 1000 814 m 896 778 q 888 797 896 789 q 869 806 881 806 q 850 797 858 806 q 842 778 842 789 l 842 776 q 881 642 842 692 q 924 601 901 614 q 974 589 946 589 q 992 597 983 589 q 1000 617 1000 606 q 990 638 1000 631 q 965 646 979 646 q 910 689 932 646 q 897 724 899 708 q 895 754 894 739 q 896 778 896 769 m 310 308 q 307 288 307 292 q 324 261 307 265 q 332 260 326 260 q 349 266 342 260 q 358 283 357 272 q 374 352 367 325 q 397 406 382 379 q 478 510 428 463 q 565 557 529 557 q 593 546 579 557 q 617 524 607 535 q 629 510 626 513 q 694 429 633 506 q 756 351 738 371 q 822 286 788 313 q 879 260 856 260 q 899 268 892 260 q 907 289 907 276 q 898 308 907 301 q 872 322 889 315 q 847 333 854 329 q 788 385 814 356 q 728 464 763 415 q 674 534 697 506 q 622 585 650 563 q 568 606 596 606 q 469 564 529 606 q 365 452 404 519 q 310 308 326 385 z "},"ぺ":{"ha":1250,"x_min":261,"x_max":1042,"o":"m 976 649 q 956 627 974 646 q 919 604 938 608 q 941 597 926 601 q 964 588 956 593 q 978 563 978 578 q 975 551 978 557 q 951 538 967 538 q 932 542 944 538 q 849 585 890 556 q 783 654 808 614 q 760 733 760 693 q 803 832 760 789 q 858 869 826 856 q 922 883 889 883 q 1008 851 975 883 q 1042 772 1042 818 q 1035 732 1042 756 q 976 649 1021 693 m 940 686 q 978 728 963 704 q 994 774 994 751 q 992 790 994 779 q 925 833 976 833 q 854 811 883 833 q 810 735 810 776 q 886 625 810 676 l 886 629 q 897 656 886 646 q 915 668 904 661 q 940 686 926 675 m 821 288 q 835 250 835 268 q 824 231 835 236 q 813 228 819 228 q 793 235 803 228 q 778 253 783 243 q 732 321 772 263 q 627 458 689 386 q 532 542 565 529 q 501 536 518 547 q 464 507 485 525 q 385 397 424 471 q 324 249 347 324 q 311 219 317 228 q 292 210 306 210 q 268 222 275 210 q 265 247 261 233 q 419 526 314 404 q 524 592 475 592 q 567 576 542 592 q 673 484 626 539 q 779 346 719 429 l 821 288 z "},"ほ":{"ha":1250,"x_min":282,"x_max":910,"o":"m 538 51 q 547 36 544 46 q 546 18 549 26 q 519 0 539 0 q 490 6 510 0 q 365 110 414 28 q 299 306 317 192 q 282 515 282 410 q 304 769 282 633 q 308 795 304 772 q 324 829 311 818 q 342 836 331 836 q 364 825 357 836 q 369 810 369 818 q 367 796 369 807 q 359 770 364 785 q 350 740 354 756 q 333 635 340 690 q 328 519 328 590 q 338 356 328 438 q 365 217 347 275 q 417 115 383 158 q 500 60 450 71 q 519 58 507 58 q 538 51 531 58 m 883 432 q 910 406 910 428 q 899 384 910 392 q 874 379 888 376 q 819 388 840 388 q 797 385 811 388 l 803 356 q 806 321 806 343 q 785 249 806 276 q 729 222 764 222 q 673 240 692 222 q 654 286 654 258 q 663 321 654 304 q 690 363 672 340 q 729 400 708 385 q 737 406 732 401 q 751 415 742 410 l 744 460 l 739 457 q 680 423 710 443 q 633 382 650 403 q 611 371 625 371 q 593 378 603 371 q 583 399 583 386 q 589 417 583 410 q 718 500 610 447 q 728 504 722 501 q 740 510 733 507 q 736 567 736 542 q 747 632 736 601 q 682 621 713 636 q 633 576 651 606 q 608 563 625 563 q 593 567 599 563 q 579 590 579 575 q 583 606 579 600 q 642 651 592 624 q 742 679 689 679 q 825 657 788 679 q 843 631 843 647 q 837 613 843 619 q 821 607 831 607 q 796 615 810 607 q 790 618 793 618 q 783 528 781 594 q 843 547 821 542 q 867 550 860 550 q 892 529 889 550 l 892 525 q 883 504 892 513 q 864 496 875 496 q 817 489 843 496 q 786 478 804 486 l 789 447 l 790 431 q 839 435 813 435 q 883 432 856 435 m 717 269 q 728 268 721 268 q 753 283 743 268 q 764 324 764 299 q 761 349 764 332 l 758 365 q 722 330 739 350 q 704 294 706 310 l 704 292 q 717 269 704 275 z "},"ぼ":{"ha":1250,"x_min":215,"x_max":1158,"o":"m 1151 753 q 1158 733 1158 746 q 1157 722 1158 726 q 1129 707 1151 707 q 1092 715 1114 707 q 1035 767 1057 731 q 1006 844 1014 803 q 1001 866 1004 850 q 997 896 997 882 q 1003 921 997 911 q 1025 933 1010 933 q 1044 927 1036 933 q 1050 908 1051 921 l 1049 886 q 1064 807 1049 843 q 1115 763 1079 771 q 1133 760 1121 761 q 1151 753 1144 760 m 369 42 q 392 8 392 26 q 382 -12 392 -3 q 368 -18 376 -18 q 321 10 349 -18 q 235 174 261 69 q 215 344 215 251 q 236 578 215 435 q 258 692 242 618 q 285 813 274 767 q 315 838 292 838 q 333 830 326 838 q 340 808 340 822 q 338 792 340 797 q 283 589 303 700 q 264 372 264 478 q 279 206 264 276 q 369 42 304 86 m 1021 656 q 1038 652 1025 654 q 1058 644 1051 650 q 1065 629 1065 639 q 1032 601 1065 601 q 956 640 988 601 q 911 726 924 678 q 903 774 903 754 q 908 799 903 789 q 929 810 914 810 q 947 803 939 810 q 956 785 956 796 q 1021 656 956 668 m 842 436 q 874 447 861 447 q 896 429 890 447 q 864 389 904 400 q 713 318 775 364 l 706 313 q 707 278 706 293 l 710 244 q 695 183 713 211 q 646 156 678 156 q 603 176 618 156 q 588 224 588 196 q 665 335 588 278 q 668 443 665 371 q 600 403 644 431 q 547 354 574 385 q 521 340 536 340 q 501 348 508 340 q 494 367 494 356 q 501 386 494 379 q 671 497 558 443 l 674 532 q 676 558 674 538 q 679 597 679 579 q 660 639 679 638 q 600 624 631 643 q 549 578 569 604 q 535 560 546 575 q 513 537 524 546 q 492 528 501 528 q 477 535 483 528 q 471 550 471 542 q 479 571 471 563 q 566 651 522 617 q 661 686 610 686 q 722 615 722 686 q 719 576 722 599 q 715 540 717 553 l 714 517 q 739 528 722 519 q 824 581 797 554 q 833 590 826 583 q 846 600 839 597 q 856 603 851 603 q 874 594 867 603 q 882 574 882 586 q 873 553 882 561 q 853 539 864 544 q 840 532 843 533 l 768 494 q 708 464 733 479 q 704 382 704 425 l 704 361 q 782 404 736 382 q 842 436 803 414 m 667 282 q 657 272 657 272 q 640 249 647 263 q 632 224 632 235 q 638 207 632 213 q 660 201 647 194 q 671 235 671 207 l 669 254 l 667 282 z "},"ぽ":{"ha":1250,"x_min":226,"x_max":1019,"o":"m 1006 765 q 979 710 997 742 q 943 660 961 678 l 942 658 q 968 649 957 649 q 989 642 981 649 q 997 624 997 635 q 990 603 997 613 q 967 594 982 593 q 899 626 932 599 q 846 693 867 654 q 807 829 807 765 q 821 888 807 864 q 906 942 847 933 l 921 943 q 976 929 951 943 q 1013 892 1001 915 q 1019 847 1019 878 q 1006 765 1019 803 m 868 754 q 901 697 878 729 q 902 698 901 697 q 903 699 903 699 q 953 765 931 724 q 975 846 975 807 q 951 893 975 883 q 926 897 942 897 q 890 889 907 897 q 853 821 853 869 q 868 754 853 789 m 403 56 q 419 33 419 50 q 417 21 419 29 q 392 6 410 6 q 375 10 383 6 q 262 142 297 43 q 226 374 226 240 q 242 539 226 442 q 279 697 257 636 q 319 792 303 758 q 331 805 324 800 q 346 810 339 810 q 358 806 353 810 q 372 782 372 796 q 367 765 372 772 q 295 603 314 686 q 274 390 276 521 q 303 180 271 279 q 403 56 335 81 m 811 394 q 833 387 825 394 q 842 365 842 379 q 810 344 842 344 l 792 346 q 688 325 742 350 q 694 276 693 292 l 696 257 q 639 186 696 186 q 595 197 615 186 q 569 229 575 208 q 567 250 567 243 q 642 353 567 306 q 626 414 632 389 q 593 381 606 401 q 583 359 589 372 q 568 342 578 346 q 544 346 556 336 q 532 368 532 356 q 536 379 532 374 q 621 460 569 431 q 660 556 618 522 q 724 588 679 571 q 675 599 706 599 q 614 585 642 599 q 574 550 590 574 q 566 531 571 546 q 554 511 561 517 q 536 506 547 506 q 518 515 524 506 q 512 529 514 524 q 514 543 510 535 q 538 584 524 564 q 568 613 553 604 q 638 639 604 633 q 669 642 660 642 l 690 640 q 746 625 721 638 q 771 589 771 613 q 763 567 771 575 q 739 553 756 560 q 685 519 701 533 q 664 479 668 506 q 722 497 690 489 q 774 504 754 504 q 800 499 792 504 q 808 481 808 493 q 794 462 808 467 q 753 456 779 457 l 724 451 q 667 435 694 444 l 679 372 q 811 394 729 394 m 649 232 q 654 264 654 238 q 651 306 654 278 l 646 301 q 619 275 629 290 q 610 247 610 260 q 615 231 610 236 q 632 224 622 224 q 649 232 640 224 z "},"ま":{"ha":1250,"x_min":338,"x_max":924,"o":"m 897 318 q 917 302 911 313 q 918 281 924 292 q 889 258 908 258 q 861 267 878 258 q 781 283 828 283 q 669 264 728 283 l 669 232 q 650 144 668 185 q 601 79 632 104 q 540 57 576 57 q 492 74 513 57 q 465 138 465 96 q 472 176 465 161 q 582 283 496 236 q 615 299 596 292 q 600 417 604 372 q 449 400 528 406 q 432 399 442 400 q 411 397 422 397 q 364 414 375 397 q 360 429 360 422 q 371 450 360 442 q 396 456 382 458 q 446 453 418 453 q 547 460 485 453 l 596 467 q 589 569 590 532 l 585 642 q 454 614 535 636 q 386 586 407 600 q 364 578 374 578 q 340 593 349 578 q 338 604 338 601 q 350 628 338 615 q 381 644 361 639 q 403 651 400 650 q 536 679 468 671 l 583 686 q 590 733 586 721 q 601 757 596 749 q 624 765 607 765 q 645 756 636 765 q 654 735 654 747 q 650 719 654 728 q 640 692 646 711 l 679 696 q 719 697 694 697 q 760 693 744 697 q 786 665 786 683 q 783 654 786 660 q 757 638 775 638 q 744 640 753 638 q 689 650 724 650 q 636 647 672 650 l 638 601 q 639 546 638 569 q 642 506 640 522 q 644 475 644 486 l 678 479 q 740 500 726 486 q 768 513 753 513 q 789 503 782 513 q 794 486 794 496 q 779 460 794 469 q 649 425 750 442 q 664 314 650 403 q 800 332 726 332 q 897 318 861 332 m 596 151 q 621 244 621 192 q 575 218 592 231 q 534 176 550 201 q 518 132 518 151 q 524 114 518 119 q 542 106 532 106 q 596 151 568 106 z "},"み":{"ha":1250,"x_min":235,"x_max":1026,"o":"m 1004 511 q 1019 478 1026 497 q 985 457 1013 457 q 967 458 975 457 q 953 460 960 460 q 922 461 943 461 q 833 456 894 461 l 811 399 q 765 256 790 343 q 738 142 739 168 q 737 125 736 132 q 738 115 738 118 q 728 94 738 104 q 708 85 719 85 q 688 92 696 85 q 681 114 681 100 q 715 243 681 129 q 782 450 749 357 q 647 429 739 444 q 503 385 560 414 q 457 361 488 378 l 446 311 q 439 280 444 304 q 426 237 433 256 q 408 204 418 218 q 369 185 393 185 q 336 200 350 185 q 321 247 321 218 q 417 393 321 331 l 426 435 q 489 643 464 578 q 531 719 508 690 q 372 650 479 708 q 339 631 351 639 q 314 611 326 622 l 281 586 q 264 581 275 581 q 238 596 246 581 q 235 606 235 601 q 239 623 235 614 q 251 638 243 632 q 328 683 268 651 q 424 729 389 715 q 558 768 517 768 q 582 764 572 768 q 599 744 599 758 q 578 703 599 731 q 472 424 525 633 q 725 492 565 468 l 800 501 q 856 626 835 590 q 892 656 871 656 q 904 651 899 656 q 915 629 915 644 q 906 604 915 615 q 854 506 892 586 q 963 511 935 511 q 976 513 969 511 q 990 514 983 514 q 1004 511 1000 514 m 381 247 q 400 319 383 256 q 369 257 369 292 q 373 242 369 244 q 381 247 376 239 z "},"む":{"ha":1250,"x_min":183,"x_max":1003,"o":"m 1003 442 q 968 415 1003 415 q 900 428 942 415 q 838 458 858 442 q 779 317 833 406 q 624 194 703 194 q 592 200 607 194 q 508 257 549 214 l 499 203 q 485 176 494 188 q 458 165 475 165 q 430 175 442 165 q 406 204 418 185 q 375 279 392 224 q 358 364 358 335 q 363 393 358 379 q 378 413 368 407 q 399 418 388 418 q 431 410 415 418 q 447 397 436 407 q 465 379 458 388 l 489 351 q 558 571 522 479 q 339 532 421 556 q 294 515 321 526 q 246 494 268 504 q 228 482 235 489 q 211 475 221 475 q 189 486 197 475 q 183 504 183 493 q 193 525 183 517 q 267 560 218 544 q 390 592 315 575 q 581 619 458 606 q 592 643 582 624 q 613 680 599 658 q 640 714 628 701 q 669 736 656 729 q 688 740 676 740 q 711 725 704 740 q 714 713 714 717 q 710 697 714 704 q 699 688 706 689 q 665 671 675 681 q 633 625 651 657 q 703 629 678 629 q 738 624 726 629 q 750 600 750 618 q 740 578 750 582 q 708 574 729 574 q 684 576 700 574 q 654 578 668 578 q 608 575 644 578 q 560 453 583 521 q 524 333 536 385 l 518 311 q 558 267 539 283 q 603 242 578 251 q 622 238 614 238 q 649 244 636 238 q 679 265 661 251 q 748 352 714 293 q 789 453 782 411 q 790 465 790 457 q 789 489 790 479 q 788 506 788 499 q 794 523 788 515 q 811 531 800 531 q 839 519 828 531 q 972 472 892 467 l 975 472 q 995 463 988 472 q 1003 442 1003 454 m 454 211 q 464 249 460 236 q 475 299 472 282 q 401 378 411 378 q 406 318 394 378 q 426 255 411 290 q 454 211 440 219 z "},"め":{"ha":1250,"x_min":290,"x_max":922,"o":"m 922 353 q 903 239 922 294 q 847 136 883 183 q 831 114 843 131 q 805 87 818 97 q 779 76 792 76 q 760 85 767 76 q 753 104 753 93 q 763 125 753 117 q 781 140 768 131 q 801 160 793 150 q 871 307 856 219 q 874 344 874 319 q 847 442 874 397 q 772 519 821 488 q 650 556 717 556 q 606 551 628 556 l 599 536 q 525 392 568 463 l 549 353 q 599 282 579 307 q 646 244 618 257 q 668 217 668 233 q 664 203 668 211 q 642 189 654 189 q 618 197 632 189 q 556 258 589 215 q 497 346 532 290 q 446 283 471 307 q 389 265 421 258 q 336 339 336 276 q 354 415 336 376 q 417 504 376 464 q 390 563 407 524 q 317 747 338 685 l 307 775 q 295 814 300 796 q 294 839 290 832 q 305 849 297 844 q 319 853 313 853 q 339 847 331 853 q 347 831 347 842 q 376 716 347 797 q 453 535 406 635 q 574 593 507 576 q 614 708 606 668 q 617 728 615 715 q 622 749 618 740 q 636 760 626 757 q 643 761 639 761 q 665 751 656 761 q 671 731 675 742 q 656 686 661 706 l 624 601 q 757 581 690 606 q 875 490 828 553 q 922 353 922 426 m 499 442 q 547 536 514 469 q 474 492 510 519 l 499 442 m 401 314 q 471 393 422 314 q 438 458 465 404 q 385 360 393 408 l 383 347 q 388 324 383 335 q 401 314 393 314 z "},"も":{"ha":1250,"x_min":285,"x_max":897,"o":"m 893 611 q 897 533 897 574 q 886 410 897 465 q 824 208 867 310 q 728 44 782 106 q 626 -17 672 -17 q 593 -8 610 -17 q 451 283 499 38 q 433 432 438 365 l 383 407 q 363 394 376 403 q 340 385 350 386 l 335 385 q 307 403 313 385 l 306 410 q 322 439 306 422 q 347 456 333 450 q 374 465 360 461 q 394 472 388 469 l 431 485 q 436 629 428 564 q 360 572 388 604 q 344 551 353 564 q 328 531 335 538 q 311 525 321 525 q 290 533 294 525 q 285 549 285 540 q 299 579 285 560 q 358 638 319 608 q 443 686 397 667 q 469 794 454 749 q 490 844 481 826 q 517 863 499 863 q 538 854 529 863 q 547 835 547 846 q 540 819 547 829 q 497 704 514 790 q 593 715 538 715 q 640 711 619 715 q 667 685 667 703 q 658 666 667 674 q 639 658 650 658 q 619 663 633 658 q 593 668 604 668 q 488 651 539 668 q 479 501 479 579 q 576 529 538 521 q 658 538 614 538 q 684 530 672 538 q 696 511 696 522 q 690 494 696 501 q 657 482 682 482 q 638 483 647 482 q 619 485 628 485 q 551 476 583 485 q 479 453 519 468 l 482 421 q 519 196 492 301 q 590 50 546 90 q 626 33 610 33 q 678 57 646 33 q 778 203 732 99 q 840 407 824 307 q 853 540 853 488 q 796 721 853 664 q 781 733 790 726 q 767 747 771 740 q 763 765 763 756 q 768 783 763 778 q 786 792 776 792 q 810 783 797 792 q 860 715 833 769 q 893 611 888 661 z "},"や":{"ha":1250,"x_min":208,"x_max":1003,"o":"m 946 629 q 988 602 972 622 q 1003 558 1003 582 q 978 492 1003 535 q 922 419 953 450 q 861 389 892 389 q 818 418 833 389 q 799 487 808 436 q 783 590 789 538 q 721 576 742 582 q 601 444 660 449 l 586 444 q 656 264 618 356 q 707 154 693 172 q 722 141 711 149 q 740 127 733 133 q 747 113 747 121 q 739 94 747 101 q 719 86 731 86 q 526 474 650 86 l 519 481 q 401 397 450 438 q 313 307 350 357 q 263 206 276 257 q 252 190 260 196 q 235 183 244 183 q 216 191 224 183 q 208 211 208 199 q 211 226 208 221 q 249 302 231 274 q 306 374 268 331 q 492 522 375 454 q 464 621 468 571 l 464 631 q 475 661 464 656 q 489 665 483 665 q 509 653 501 665 q 528 617 517 642 q 550 554 533 604 q 590 574 583 571 q 689 611 636 593 l 704 642 l 761 782 q 789 807 772 807 q 801 804 797 807 q 812 792 807 801 q 817 764 817 782 q 822 638 817 693 q 861 639 835 639 q 946 629 915 639 m 756 629 l 779 633 q 775 700 775 667 l 775 703 l 743 626 l 756 629 m 904 463 q 941 511 922 482 q 960 557 960 540 q 939 588 960 576 q 869 600 917 600 q 826 597 857 600 q 833 533 829 565 q 839 483 836 501 q 849 444 843 457 q 864 432 854 432 q 904 463 876 432 m 597 488 q 660 556 621 489 q 608 532 631 544 l 565 507 l 569 494 q 597 488 582 486 z "},"ゃ":{"ha":1250,"x_min":336,"x_max":882,"o":"m 876 432 q 882 403 882 419 q 844 328 882 361 q 765 294 807 294 q 708 316 732 294 q 672 371 683 338 l 661 414 q 633 404 639 407 q 616 365 626 379 q 583 351 606 351 q 546 357 563 351 l 508 332 q 489 317 499 325 q 528 215 504 267 q 574 135 551 164 q 582 111 582 122 q 571 86 582 94 q 560 83 568 83 q 532 97 544 83 q 492 170 514 118 q 451 285 469 222 q 393 207 410 246 q 386 179 386 193 q 392 162 386 172 q 396 143 399 151 q 385 128 393 133 q 369 122 378 122 q 346 138 354 122 q 336 176 336 156 q 438 335 336 247 q 411 447 418 410 q 408 471 408 458 q 425 499 408 493 q 432 500 428 500 q 458 478 446 500 q 535 407 490 428 q 603 442 571 428 l 614 492 q 627 543 621 531 q 651 556 633 556 q 683 533 675 556 q 694 471 692 510 l 718 475 q 779 481 754 481 q 876 432 856 481 m 653 460 l 649 483 l 644 457 l 653 460 m 836 403 q 819 428 836 421 q 776 436 801 436 q 700 426 744 436 q 768 338 719 338 q 815 358 794 338 q 836 403 836 379 m 494 381 q 464 408 483 389 q 475 367 468 388 l 494 381 z "},"ゆ":{"ha":1250,"x_min":306,"x_max":939,"o":"m 833 681 q 911 615 883 660 q 939 518 939 571 q 922 443 939 479 q 888 399 910 415 q 840 382 865 382 q 808 389 826 382 q 744 451 775 403 q 690 571 714 500 q 679 414 689 500 q 649 223 668 310 q 594 60 631 136 q 578 35 588 46 q 557 24 568 24 q 539 31 547 24 q 532 46 532 36 q 540 74 532 58 q 550 93 549 89 q 636 451 613 217 l 639 479 q 643 530 640 494 q 646 593 646 565 q 644 632 646 619 q 571 594 606 617 q 425 460 508 556 q 406 436 422 456 q 373 403 390 417 q 342 390 356 390 q 328 394 333 390 q 310 425 314 404 q 306 474 306 446 q 331 583 306 519 q 388 689 357 647 q 399 705 390 693 q 416 724 407 717 q 436 732 425 732 q 454 724 446 732 q 463 704 463 715 q 450 681 463 692 q 371 557 399 638 q 354 485 363 532 l 353 468 l 354 453 l 424 525 q 542 626 485 586 q 640 676 585 657 q 635 719 635 704 q 642 749 635 735 q 664 761 649 761 q 682 753 674 761 q 688 738 688 747 q 689 724 689 728 q 694 692 692 704 q 749 697 731 697 q 833 681 794 697 m 828 426 q 842 425 833 425 q 883 453 869 425 q 896 518 896 482 q 890 560 896 540 q 840 629 876 606 q 753 653 803 653 q 707 649 731 653 q 746 544 718 614 q 828 426 790 436 z "},"ゅ":{"ha":1250,"x_min":376,"x_max":842,"o":"m 744 492 q 817 466 792 492 q 842 403 842 440 q 817 326 842 363 q 763 272 794 296 q 701 247 732 247 q 667 257 682 247 q 653 132 667 186 q 607 57 632 57 q 594 61 601 57 q 583 82 583 68 q 591 109 583 93 q 600 129 599 125 q 621 264 621 182 q 618 319 621 281 q 607 349 610 339 q 604 358 604 354 q 574 317 597 351 q 553 289 569 313 q 517 251 536 265 q 479 236 497 236 q 433 256 454 236 q 400 303 413 276 q 376 397 376 347 q 388 460 376 426 q 403 489 396 479 q 425 499 411 499 q 445 491 438 499 q 453 472 453 483 q 446 454 453 464 q 424 383 424 431 q 439 319 424 349 q 481 281 454 289 q 504 303 483 279 q 536 343 525 326 q 590 411 560 378 q 579 464 582 442 q 575 496 575 489 q 599 524 575 524 q 617 512 611 524 q 627 489 624 500 q 632 474 631 478 l 638 453 q 744 492 689 492 m 772 338 q 792 369 783 351 q 800 403 800 388 q 769 443 800 433 q 744 447 757 447 q 649 407 703 447 q 664 313 660 357 q 688 289 672 297 q 700 286 692 286 q 772 338 731 286 z "},"よ":{"ha":1250,"x_min":415,"x_max":879,"o":"m 849 693 q 871 683 863 692 q 879 663 879 674 q 871 643 879 654 q 853 635 863 635 q 839 638 847 635 q 775 647 815 647 q 695 640 740 647 q 610 621 650 633 q 593 585 599 604 q 582 504 588 563 q 579 442 579 483 l 581 349 l 581 347 q 778 404 668 389 q 813 407 797 407 q 854 375 854 407 q 844 355 854 363 q 819 347 833 347 q 797 349 810 347 q 771 350 783 350 q 685 334 739 350 q 582 294 631 318 l 582 278 l 583 204 q 575 122 583 154 q 540 64 564 75 q 508 56 524 56 q 465 72 485 56 q 432 113 444 88 q 415 183 415 149 q 438 246 415 224 q 494 299 472 283 q 536 324 519 315 l 536 383 q 553 596 536 513 l 554 600 q 532 589 546 597 q 513 572 524 583 q 492 556 501 561 q 476 551 483 551 q 459 559 467 551 q 451 576 451 567 q 458 596 451 585 q 591 670 494 643 q 783 697 688 697 q 849 693 819 697 m 533 151 q 536 268 536 190 q 510 251 532 265 q 474 218 488 238 q 461 174 461 200 q 469 134 461 153 q 494 106 478 115 q 508 100 506 100 q 533 151 529 100 z "},"ょ":{"ha":1250,"x_min":419,"x_max":797,"o":"m 776 518 q 797 489 797 510 q 794 476 797 485 q 775 464 789 464 q 747 469 767 464 q 704 474 729 474 q 627 464 667 474 q 558 438 588 454 l 569 413 q 599 329 590 361 q 672 336 638 336 q 761 324 719 336 q 785 305 778 318 q 786 282 793 292 q 764 271 779 271 q 738 278 754 271 q 685 289 717 286 q 607 283 647 292 q 608 261 608 276 q 543 128 608 172 q 496 113 519 113 q 442 135 465 113 q 419 193 419 158 q 449 266 419 235 q 533 314 479 297 l 557 321 q 524 406 549 350 q 514 399 518 400 q 492 403 501 394 q 483 424 483 411 q 492 443 483 435 q 506 454 500 451 q 496 503 496 481 q 504 535 496 522 q 532 551 515 551 q 544 547 538 551 q 557 524 557 539 q 551 507 557 514 q 546 481 543 497 q 638 511 585 499 q 674 519 643 513 q 733 525 706 525 q 776 518 761 525 m 553 207 q 565 274 568 235 q 501 244 525 260 q 478 219 489 235 q 468 190 468 204 q 479 165 468 176 q 497 157 488 157 q 528 174 513 157 q 553 207 544 190 z "},"ら":{"ha":1250,"x_min":417,"x_max":793,"o":"m 728 839 q 714 856 722 850 q 697 863 706 863 q 679 856 689 863 q 668 833 668 847 q 676 814 668 822 q 704 758 689 801 q 738 593 738 667 q 736 569 738 578 l 736 567 q 744 547 736 556 q 763 539 753 539 q 784 547 775 539 q 793 565 793 554 q 770 703 793 608 q 728 839 747 797 m 536 697 q 551 729 551 710 q 546 744 551 739 q 526 754 538 754 q 506 746 515 754 q 483 720 499 740 q 460 686 468 700 q 417 500 417 607 q 421 450 417 475 q 429 415 425 425 q 475 368 442 386 q 503 361 489 361 q 556 372 517 361 q 581 379 560 374 q 622 385 601 385 q 674 372 650 385 q 706 333 697 358 q 710 307 710 321 q 618 124 710 240 q 531 31 597 97 q 522 11 522 22 q 531 -8 522 0 q 551 -17 539 -17 q 569 -8 564 -17 l 592 17 q 669 109 626 51 q 729 206 711 167 q 751 260 744 240 q 757 299 757 279 q 700 410 757 368 q 639 429 672 429 q 576 418 618 429 q 507 407 532 407 q 479 418 488 407 q 464 458 471 429 q 461 490 461 475 q 473 581 461 531 q 504 661 485 632 q 536 697 518 682 z "},"り":{"ha":1250,"x_min":443,"x_max":801,"o":"m 800 749 q 795 790 801 778 q 771 801 789 801 q 753 795 758 801 q 746 776 749 789 q 743 743 743 765 q 739 654 743 686 q 681 333 722 506 q 594 51 640 161 q 582 27 588 38 q 572 8 576 17 q 558 -17 563 -7 q 553 -39 553 -31 q 565 -60 553 -54 q 579 -64 574 -64 q 606 -47 594 -64 q 632 7 618 -29 q 738 372 685 136 q 800 749 790 607 m 508 676 q 510 689 510 681 q 485 719 510 714 l 481 719 q 458 706 467 719 q 448 633 453 693 q 443 526 443 574 q 463 414 443 465 q 511 363 482 363 q 531 369 524 363 q 538 388 538 376 q 526 413 538 401 q 494 486 501 438 q 492 533 492 501 q 499 624 492 579 q 508 676 507 669 z "},"る":{"ha":1250,"x_min":385,"x_max":931,"o":"m 899 503 q 922 496 914 503 q 931 478 931 489 q 919 453 931 460 q 889 447 908 447 q 794 427 850 447 q 690 378 739 407 q 646 347 660 358 q 668 313 650 340 q 696 259 686 285 q 706 210 706 233 q 688 153 706 181 q 641 108 669 125 q 585 90 613 90 q 556 97 572 90 q 508 163 518 114 q 504 199 504 182 q 583 357 504 281 q 542 428 557 396 q 528 496 528 461 q 618 661 528 585 q 640 683 631 672 q 644 699 649 694 q 629 703 640 703 q 550 683 601 703 q 469 643 499 663 q 442 615 446 626 q 410 588 431 588 q 397 590 406 588 q 385 611 385 594 q 390 633 385 622 q 442 688 403 660 q 531 733 482 715 q 619 750 581 750 q 668 739 651 750 q 692 699 692 725 q 682 665 692 681 q 635 606 669 643 q 599 565 613 582 q 579 526 586 547 q 574 496 574 514 q 619 388 574 453 l 625 392 q 796 479 686 438 q 846 494 817 486 q 894 503 875 501 l 899 503 m 657 193 q 658 210 658 199 q 646 260 658 233 q 611 317 633 286 q 576 272 590 296 q 553 192 553 233 q 562 150 553 164 q 586 136 571 136 q 630 156 607 136 q 657 193 653 175 z "},"れ":{"ha":1250,"x_min":186,"x_max":1093,"o":"m 1068 444 q 1087 436 1081 444 q 1093 417 1093 428 q 1092 406 1093 410 q 1042 342 1083 375 q 947 286 1000 310 q 856 257 894 263 q 829 254 836 254 q 757 310 765 254 q 756 338 756 315 l 757 426 q 752 473 757 458 q 731 488 747 488 q 688 474 715 488 q 624 435 665 463 q 549 379 583 407 l 510 347 q 542 136 517 215 q 631 10 575 32 q 647 -6 642 6 q 647 -26 651 -17 q 622 -44 639 -44 q 610 -42 618 -44 q 508 85 543 -11 q 463 310 472 182 l 393 251 q 313 207 340 207 q 292 214 303 207 q 271 268 271 229 q 285 350 271 299 q 306 417 293 382 q 321 469 314 443 q 331 521 328 494 q 332 539 332 526 q 331 557 332 553 l 306 538 q 221 482 250 488 l 210 481 q 186 497 190 481 l 186 503 q 211 531 186 522 q 269 562 242 539 q 306 592 296 585 q 342 607 328 607 q 378 547 378 607 q 356 429 378 493 q 328 338 338 375 q 318 274 318 301 q 321 253 318 264 q 403 319 339 265 l 460 367 l 460 431 q 487 696 463 536 q 543 919 511 856 q 571 936 551 936 q 591 928 583 936 q 599 908 599 921 l 596 897 l 583 869 q 569 842 575 857 q 526 655 542 771 q 507 429 510 539 l 507 406 l 519 415 q 669 517 600 479 q 732 535 703 535 q 763 528 750 535 q 790 497 782 517 q 799 448 797 476 q 800 342 800 419 q 806 313 800 322 q 831 303 811 303 q 912 322 863 303 q 999 369 961 340 q 1042 424 1038 397 q 1051 439 1043 433 q 1068 444 1058 444 z "},"ろ":{"ha":1250,"x_min":335,"x_max":836,"o":"m 346 653 q 335 631 335 644 q 343 613 335 619 q 361 606 351 606 q 383 614 372 606 q 397 625 394 622 q 579 696 465 674 q 664 703 618 703 q 750 694 714 703 q 786 671 786 686 q 771 653 786 663 q 744 639 756 644 l 683 610 q 622 581 632 586 q 581 547 597 568 q 564 500 564 525 q 646 404 564 438 q 682 390 657 400 q 724 369 707 381 q 747 339 740 357 q 750 322 750 333 q 735 285 750 303 q 696 244 721 267 q 577 179 649 206 q 446 153 506 153 q 422 144 432 153 q 411 124 411 136 q 423 101 411 108 q 451 94 435 94 q 569 122 497 94 q 693 188 640 150 q 783 282 763 236 q 792 324 792 303 q 765 390 792 364 q 734 414 751 404 q 689 436 717 424 q 650 454 657 450 q 613 497 613 474 q 635 531 613 517 q 710 569 657 546 l 763 593 q 836 668 836 628 q 805 722 836 701 q 735 747 774 742 q 669 751 701 751 q 596 747 633 751 q 454 713 539 740 q 397 688 421 701 q 346 653 374 675 z "},"わ":{"ha":1250,"x_min":303,"x_max":929,"o":"m 919 372 q 929 285 929 333 q 910 171 929 218 q 895 149 906 160 q 874 139 885 139 q 856 147 863 139 q 849 165 849 156 q 853 181 849 175 q 872 225 863 197 q 883 296 883 261 q 851 419 883 364 q 782 479 828 460 q 718 492 753 492 q 594 458 658 492 q 599 331 594 392 q 615 142 607 171 q 617 131 617 138 q 610 109 617 118 q 590 100 604 100 q 560 132 565 100 q 552 251 554 167 q 549 431 550 336 q 513 400 532 419 q 422 300 488 375 q 403 285 414 292 q 379 279 392 279 q 333 314 351 279 q 308 438 311 363 q 360 685 303 628 q 385 697 372 697 q 403 690 396 697 q 413 669 413 682 q 408 653 413 661 q 399 643 404 646 q 365 585 376 631 q 354 479 354 539 q 361 375 354 424 q 379 326 368 326 q 429 376 388 326 q 500 450 465 418 q 549 486 515 464 l 549 654 q 558 804 549 726 q 567 826 560 817 q 589 836 575 836 q 608 826 600 836 q 615 801 615 817 q 614 788 615 793 q 593 510 593 704 q 713 536 653 536 q 826 507 775 536 q 886 451 863 486 q 919 372 910 415 z "}}}
